<svg width="602" height="446" viewBox="0 0 602 446" fill="none" xmlns="http://www.w3.org/2000/svg">
<rect width="602" height="446" rx="12" fill="#5100FE" fill-opacity="0.28"/>
<g clip-path="url(#clip0_1085_9753)">
<path d="M153.842 389.892C153.034 389.943 152.587 388.939 153.198 388.353L153.259 388.111L153.235 388.053C152.418 386.104 149.648 386.118 148.838 388.07C148.119 389.802 147.203 391.538 146.978 393.37C146.877 394.179 146.922 395.002 147.102 395.796C145.417 392.114 144.53 388.093 144.53 384.05C144.53 383.034 144.586 382.018 144.699 381.004C144.793 380.176 144.922 379.352 145.088 378.535C145.99 374.123 147.943 369.92 150.76 366.41C152.114 365.67 153.243 364.512 153.925 363.125C154.17 362.624 154.362 362.086 154.453 361.538C154.299 361.558 153.872 359.21 153.988 359.066C153.774 358.74 153.389 358.578 153.155 358.26C151.988 356.678 150.381 356.954 149.542 359.104C147.75 360.009 147.732 361.51 148.832 362.953C149.532 363.871 149.628 365.114 150.242 366.097C150.179 366.178 150.113 366.256 150.05 366.337C148.892 367.823 147.89 369.42 147.046 371.098C147.284 369.233 146.932 366.987 146.331 365.538C145.647 363.888 144.366 362.498 143.237 361.072C141.881 359.358 139.102 360.106 138.863 362.278L138.856 362.341C139.024 362.436 139.188 362.537 139.348 362.643C140.263 363.248 139.947 364.667 138.863 364.834L138.838 364.838C138.899 365.442 139.002 366.041 139.154 366.63C137.706 372.231 140.832 374.271 145.295 374.363C145.394 374.414 145.49 374.464 145.588 374.512C145.136 375.786 144.775 377.092 144.507 378.417C144.267 379.587 144.1 380.769 144.007 381.957C143.891 383.456 143.901 384.962 144.027 386.458L144.02 386.405C143.699 384.757 142.804 383.218 141.506 382.152C139.572 380.562 136.839 379.977 134.752 378.699C133.747 378.084 132.46 378.879 132.635 380.044L132.644 380.1C132.955 380.226 133.258 380.373 133.551 380.537C133.718 380.632 133.883 380.732 134.043 380.838C134.958 381.444 134.642 382.863 133.558 383.03L133.533 383.034L133.483 383.041C134.016 384.307 134.758 385.483 135.688 386.496C136.593 391.386 140.482 391.85 144.641 390.426H144.644C145.098 392.407 145.763 394.343 146.617 396.188H153.665C153.69 396.109 153.713 396.028 153.736 395.95C153.084 395.991 152.427 395.953 151.785 395.834C152.308 395.192 152.831 394.545 153.354 393.903C153.367 393.89 153.377 393.878 153.387 393.865C153.652 393.537 153.92 393.211 154.185 392.882C154.202 391.874 154.081 390.868 153.842 389.892Z" fill="#F2F2F2"/>
<path d="M453.842 389.892C454.65 389.943 455.097 388.939 454.485 388.353L454.425 388.111L454.449 388.053C455.266 386.104 458.035 386.118 458.846 388.07C459.565 389.802 460.48 391.538 460.706 393.37C460.807 394.179 460.761 395.002 460.582 395.796C462.267 392.114 463.154 388.093 463.154 384.05C463.154 383.034 463.098 382.018 462.984 381.004C462.891 380.176 462.762 379.352 462.595 378.535C461.693 374.123 459.741 369.92 456.924 366.41C455.57 365.67 454.441 364.512 453.758 363.125C453.513 362.624 453.321 362.086 453.23 361.538C453.385 361.558 453.812 359.21 453.695 359.066C453.91 358.74 454.294 358.578 454.529 358.26C455.695 356.678 457.303 356.954 458.142 359.104C459.934 360.009 459.951 361.51 458.851 362.953C458.152 363.871 458.056 365.114 457.442 366.097C457.505 366.178 457.571 366.256 457.634 366.337C458.792 367.823 459.794 369.42 460.638 371.098C460.399 369.233 460.752 366.987 461.352 365.538C462.036 363.888 463.318 362.498 464.446 361.072C465.802 359.358 468.582 360.106 468.821 362.278L468.828 362.341C468.66 362.436 468.496 362.537 468.335 362.643C467.42 363.248 467.737 364.667 468.821 364.834L468.845 364.838C468.785 365.442 468.681 366.041 468.53 366.63C469.977 372.231 466.852 374.271 462.388 374.363C462.29 374.414 462.194 374.464 462.095 374.512C462.547 375.786 462.909 377.092 463.176 378.417C463.416 379.587 463.583 380.769 463.677 381.957C463.793 383.456 463.783 384.962 463.656 386.458L463.664 386.405C463.985 384.757 464.879 383.218 466.178 382.152C468.112 380.562 470.845 379.977 472.932 378.699C473.936 378.084 475.224 378.879 475.048 380.044L475.04 380.1C474.729 380.226 474.426 380.373 474.133 380.537C473.965 380.632 473.801 380.732 473.641 380.838C472.725 381.444 473.042 382.863 474.126 383.03L474.151 383.034L474.201 383.041C473.668 384.307 472.925 385.483 471.996 386.496C471.09 391.386 467.202 391.85 463.042 390.426H463.04C462.585 392.407 461.921 394.343 461.067 396.188H454.019C453.993 396.109 453.971 396.028 453.948 395.95C454.6 395.991 455.256 395.953 455.898 395.834C455.375 395.192 454.852 394.545 454.329 393.903C454.317 393.89 454.307 393.878 454.297 393.865C454.031 393.537 453.763 393.211 453.498 392.882C453.482 391.874 453.603 390.868 453.842 389.892Z" fill="#F2F2F2"/>
<path d="M317.386 392.879L323.436 392.879L326.314 369.534L317.384 369.535L317.386 392.879Z" fill="#FFB6B6"/>
<path d="M338.114 392.742C338.302 393.059 338.402 394.084 338.402 394.453C338.402 395.587 337.482 396.507 336.348 396.507H317.612C316.838 396.507 316.211 395.879 316.211 395.105V394.325C316.211 394.325 315.284 391.98 317.192 389.089C317.192 389.089 319.564 391.353 323.108 387.807L324.153 385.913L331.718 391.448L335.911 391.964C336.829 392.077 337.642 391.947 338.114 392.742Z" fill="#2F2E41"/>
<path d="M275.602 392.879L281.652 392.879L284.53 369.534L275.601 369.535L275.602 392.879Z" fill="#FFB6B6"/>
<path d="M296.33 392.742C296.519 393.059 296.618 394.084 296.618 394.453C296.618 395.587 295.699 396.507 294.565 396.507H275.828C275.054 396.507 274.427 395.879 274.427 395.105V394.325C274.427 394.325 273.5 391.98 275.409 389.089C275.409 389.089 277.78 391.353 281.324 387.807L282.369 385.913L289.934 391.448L294.128 391.964C295.045 392.077 295.858 391.947 296.33 392.742Z" fill="#2F2E41"/>
<path d="M98.6762 397H503.324C503.697 397 504 396.697 504 396.324C504 395.95 503.697 395.647 503.324 395.647H98.6762C98.3028 395.647 98 395.95 98 396.324C98 396.697 98.3028 397 98.6762 397Z" fill="#E6E6E6"/>
<path d="M319.194 282.626L321.437 285.576C321.437 285.576 321.64 286.954 325.04 298.179L326.906 382.544H315.619L300.535 315.042L284.878 383.898L275.094 384.475L275.553 306.213C275.553 306.213 274.523 303.489 275.399 300.298C278.753 288.082 278.56 291.303 278.697 287.121C278.872 281.82 319.194 282.626 319.194 282.626Z" fill="#2F2E41"/>
<path d="M301.403 211.731C307.944 211.731 313.246 206.427 313.246 199.884C313.246 193.341 307.944 188.037 301.403 188.037C294.862 188.037 289.56 193.341 289.56 199.884C289.56 206.427 294.862 211.731 301.403 211.731Z" fill="#FEB8B8"/>
<path d="M295.036 213.96L288.483 217.583C283.015 217.979 279.094 219.434 275.61 221.189L279.452 254.888L278.753 288.082C278.753 288.082 300.543 303.015 321.438 285.576V240.473L320.457 222.536C320.342 220.444 318.493 218.822 316.418 219.097C315.232 219.254 313.867 219.223 312.473 218.758L308.136 213.723L295.036 213.96Z" fill="#6C63FF"/>
<path d="M332.087 186.159C332.748 187.65 333.017 189.167 332.93 190.482L340.122 204.287L333.455 207.519L326.877 193.166C325.844 192.349 324.902 191.13 324.241 189.64C322.731 186.233 323.264 182.693 325.43 181.732C327.597 180.771 330.578 182.753 332.087 186.159Z" fill="#FFB6B6"/>
<path d="M312.473 218.758L314.457 219.666C316.277 217.709 321.761 218.017 324.421 218.27L336.112 219.385L330.653 202.299L338.872 198.991L348.693 217.898C349.287 221.106 347.954 224.365 345.283 226.236L320.226 240.471L317.313 220.973L312.473 218.758Z" fill="#6C63FF"/>
<path d="M251.879 298.902C252.003 297.276 252.485 295.812 253.185 294.696L253.396 279.13L260.798 279.447L259.787 295.203C260.309 296.413 260.562 297.933 260.437 299.559C260.152 303.274 258.005 306.138 255.641 305.957C253.278 305.775 251.594 302.617 251.879 298.902Z" fill="#FFB6B6"/>
<path d="M281.095 225.447L277.693 220.279C277.693 220.279 272.146 221.338 269.199 225.522C266.251 229.706 255.11 255.366 255.11 255.366L252.97 284.333L261.257 282.626L265.256 260.658L278.113 243.082L281.095 225.447Z" fill="#6C63FF"/>
<path d="M313.246 201.455C313.691 199.197 306.827 195.91 306.839 195.914C307.904 196.254 306.228 198.207 305.134 197.977C305.134 197.977 303.525 198.795 304.402 199.499C301.381 199.24 297.344 196.368 294.324 196.109C293.108 196.003 292.638 198.934 291.874 199.884C290.719 201.338 289.56 198.446 289.988 202.299H289.815C289.185 200.778 288.554 199.231 288.348 197.597C288.149 195.963 288.428 194.203 289.47 192.928C289.815 192.496 288.459 191.075 288.824 190.663C289.986 189.328 292.239 188.597 293.274 187.169C294.645 185.278 296.205 186.613 299.06 185.022C299.807 184.606 301.105 184.456 301.932 184.672L303.864 185.177C303.488 185.742 303.954 186.487 304.627 186.396L307.144 186.053C308.094 186.359 308.997 186.811 309.422 187.681C309.681 188.199 309.727 188.803 309.926 189.348C310.292 190.351 311.155 191.075 311.845 191.885C313.701 192.426 313.801 193.814 313.801 196.142C315.531 197.112 313.726 199.283 313.246 201.455Z" fill="#2F2E41"/>
<path d="M119.449 91.9523C119.988 90.4381 121.492 89.5443 123.022 89.716C123.66 89.7876 124.297 89.8444 124.938 89.8067C140.919 88.8665 160.713 98.0201 181.785 110.556C162.495 94.9416 144.84 81.1295 124.076 95.3237C122.593 96.3376 120.492 95.9795 119.629 94.4033C119.282 93.7701 119.157 93.0112 119.364 92.2285C119.388 92.1361 119.417 92.044 119.449 91.9523Z" fill="#E6E6E6"/>
<path d="M226.036 54.5011C227.353 55.3412 227.895 56.9389 227.456 58.3632L227.406 58.5239C226.966 59.9538 226.008 61.155 224.738 61.9457C206.567 73.2623 227.606 87.7449 193.975 111.122C210.26 93.689 223.656 53.3185 225.69 54.3079C225.808 54.3649 225.923 54.4292 226.036 54.5011Z" fill="#E6E6E6"/>
<path d="M253.889 142.994C253.211 144.402 251.69 145.13 250.224 144.863L250.058 144.833C248.587 144.566 247.281 143.756 246.345 142.589C232.955 125.883 221.078 148.5 193.882 117.87C213.119 131.977 254.78 140.49 254.039 142.629C253.997 142.752 253.947 142.874 253.889 142.994Z" fill="#E6E6E6"/>
<path d="M229.415 141.95C228.718 142.338 227.593 142.283 226.685 141.863L226.583 141.816C225.671 141.395 224.966 140.804 224.567 140.158C218.86 130.908 207.01 136.91 194.82 119.376C204.813 128.91 230.451 141.194 229.58 141.844C229.53 141.882 229.475 141.917 229.415 141.95Z" fill="#E6E6E6"/>
<path d="M234.915 105.056C234.742 105.835 233.956 106.641 233.04 107.043L232.937 107.088C232.017 107.492 231.107 107.628 230.359 107.499C219.653 105.642 216.291 118.496 195.086 116.004C208.846 114.839 235.035 103.779 234.944 104.862C234.939 104.925 234.929 104.989 234.915 105.056Z" fill="#E6E6E6"/>
<path d="M127.766 153.372C126.997 152.012 127.269 150.346 128.325 149.295L128.444 149.177C129.504 148.121 130.914 147.511 132.406 147.409C153.762 145.954 141.985 123.284 182.651 118.443C160.089 126.184 129.312 155.534 127.98 153.705C127.903 153.599 127.832 153.489 127.766 153.372Z" fill="#E6E6E6"/>
<path d="M213.65 153.128C212.86 153.655 211.846 153.55 211.172 152.936L211.096 152.866C210.418 152.25 209.996 151.401 209.877 150.481C208.171 137.316 194.969 145.463 190.475 120.472C196.014 134.146 214.893 152.089 213.842 152.983C213.782 153.034 213.717 153.083 213.65 153.128Z" fill="#E6E6E6"/>
<path d="M189.731 174.781C188.521 174.791 187.503 173.977 187.198 172.86L187.163 172.734C186.856 171.614 186.983 170.422 187.484 169.367C194.652 154.266 174.883 153.731 187.138 124.194C183.745 142.49 191.778 174.544 190.037 174.761C189.937 174.773 189.835 174.78 189.731 174.781Z" fill="#6C63FF"/>
<path d="M145.934 154.144C145.155 153.218 145.131 151.914 145.796 150.967L145.871 150.86C146.538 149.908 147.536 149.246 148.668 148.959C164.866 144.848 152.667 129.276 183.223 119.875C166.974 128.933 147.422 155.569 146.145 154.366C146.071 154.297 146.001 154.223 145.934 154.144Z" fill="#6C63FF"/>
<path d="M155.762 140.625C155.269 140.164 155.256 139.471 155.678 138.939L155.726 138.879C156.15 138.345 156.783 137.951 157.501 137.751C167.772 134.893 160.058 127.105 179.435 120.836C169.126 126.331 156.704 141.323 155.895 140.735C155.849 140.701 155.804 140.665 155.762 140.625Z" fill="#6C63FF"/>
<path d="M170.126 150.477C169.503 150.219 169.247 149.575 169.455 148.928L169.479 148.855C169.688 148.206 170.142 147.614 170.744 147.175C179.356 140.888 169.398 136.309 185.337 123.628C177.616 132.396 171.253 150.799 170.289 150.533C170.234 150.518 170.179 150.499 170.126 150.477Z" fill="#E6E6E6"/>
<path d="M128.104 106.8L129.67 111.622H134.739L130.638 114.603L132.204 119.425L128.104 116.445L124.003 119.425L125.569 114.603L121.468 111.622H126.537L128.104 106.8Z" fill="#6C63FF"/>
<path d="M197.957 49L199.523 53.8225H204.592L200.491 56.803L202.057 61.6256L197.957 58.6451L193.856 61.6256L195.422 56.803L191.321 53.8225H196.39L197.957 49Z" fill="#E6E6E6"/>
<path d="M235.039 100.761L236.605 105.583H241.674L237.573 108.564L239.14 113.386L235.039 110.406L230.938 113.386L232.504 108.564L228.403 105.583H233.472L235.039 100.761Z" fill="#6C63FF"/>
<path d="M160.012 153.385L161.578 158.207H166.647L162.546 161.188L164.113 166.01L160.012 163.03L155.911 166.01L157.477 161.188L153.376 158.207H158.445L160.012 153.385Z" fill="#6C63FF"/>
<path d="M188.47 100.761L190.037 105.583H195.106L191.005 108.564L192.571 113.386L188.47 110.406L184.369 113.386L185.936 108.564L181.835 105.583H186.904L188.47 100.761Z" fill="#6C63FF"/>
<path d="M227.606 49L229.172 53.8225H234.241L230.14 56.803L231.706 61.6256L227.606 58.6451L223.505 61.6256L225.071 56.803L220.97 53.8225H226.039L227.606 49Z" fill="#E6E6E6"/>
<path d="M125.447 144.311L127.433 148.977L132.482 148.528L128.661 151.86L130.647 156.525L126.299 153.919L122.478 157.25L123.612 152.308L119.264 149.702L124.313 149.254L125.447 144.311Z" fill="#E6E6E6"/>
<path d="M168.81 55.2127C169.725 54.7624 170.752 55.0661 171.334 55.882L171.4 55.974C171.984 56.7926 172.262 57.8283 172.213 58.8874C171.516 74.0471 186.673 67.2706 186.648 96.2774C183.48 79.8433 167.333 56.1573 168.585 55.3411C168.657 55.2941 168.732 55.2512 168.81 55.2127Z" fill="#6C63FF"/>
<path d="M155.591 77.6829C155.997 77.1767 156.662 77.1069 157.205 77.4642L157.266 77.5045C157.812 77.8629 158.238 78.4317 158.484 79.0966C162.009 88.6138 168.906 80.6466 176.398 98.5295C170.337 89.1935 154.993 78.6346 155.496 77.8185C155.525 77.7715 155.557 77.7262 155.591 77.6829Z" fill="#E6E6E6"/>
<path d="M143.924 105.346C143.98 104.7 144.494 104.272 145.144 104.267L145.217 104.266C145.87 104.261 146.54 104.497 147.115 104.912C155.334 110.863 156.639 100.404 172.805 111.102C162.578 106.713 143.956 106.47 143.92 105.512C143.918 105.457 143.92 105.401 143.924 105.346Z" fill="#E6E6E6"/>
<path d="M373.458 131.865C373.809 130.88 374.787 130.299 375.783 130.41C376.198 130.457 376.613 130.494 377.029 130.469C387.427 129.858 400.306 135.813 414.016 143.969C401.465 133.81 389.979 124.824 376.469 134.059C375.504 134.719 374.136 134.486 373.575 133.46C373.35 133.048 373.268 132.554 373.403 132.045C373.418 131.985 373.437 131.925 373.458 131.865Z" fill="#E6E6E6"/>
<path d="M442.807 107.498C443.664 108.045 444.017 109.084 443.731 110.011L443.699 110.116C443.413 111.046 442.789 111.828 441.963 112.342C430.14 119.705 443.829 129.128 421.947 144.338C432.543 132.995 441.259 106.729 442.583 107.373C442.659 107.41 442.734 107.452 442.807 107.498Z" fill="#E6E6E6"/>
<path d="M460.93 165.075C460.489 165.992 459.499 166.465 458.545 166.291L458.437 166.272C457.48 166.098 456.63 165.571 456.022 164.812C447.31 153.942 439.582 168.658 421.887 148.729C434.403 157.907 461.51 163.446 461.028 164.837C461 164.918 460.967 164.997 460.93 165.075Z" fill="#E6E6E6"/>
<path d="M445.006 164.396C444.552 164.648 443.821 164.613 443.23 164.34L443.163 164.309C442.57 164.035 442.111 163.65 441.852 163.23C438.138 157.211 430.428 161.117 422.497 149.708C428.999 155.912 445.68 163.904 445.113 164.327C445.081 164.352 445.045 164.375 445.006 164.396Z" fill="#E6E6E6"/>
<path d="M448.584 140.391C448.472 140.898 447.96 141.423 447.364 141.684L447.297 141.714C446.699 141.976 446.107 142.065 445.62 141.981C438.654 140.773 436.467 149.136 422.67 147.515C431.623 146.756 448.662 139.56 448.604 140.265C448.6 140.306 448.594 140.348 448.584 140.391Z" fill="#E6E6E6"/>
<path d="M378.87 171.828C378.37 170.942 378.546 169.859 379.233 169.175L379.311 169.098C380 168.411 380.918 168.014 381.889 167.948C395.784 167.001 388.121 152.251 414.58 149.102C399.901 154.138 379.876 173.234 379.009 172.044C378.959 171.975 378.912 171.903 378.87 171.828Z" fill="#E6E6E6"/>
<path d="M434.749 171.669C434.235 172.012 433.575 171.943 433.136 171.544L433.087 171.499C432.646 171.098 432.371 170.545 432.294 169.946C431.184 161.381 422.594 166.681 419.67 150.422C423.274 159.318 435.557 170.993 434.874 171.574C434.834 171.608 434.793 171.639 434.749 171.669Z" fill="#E6E6E6"/>
<path d="M419.187 185.757C418.399 185.763 417.737 185.234 417.538 184.507L417.515 184.425C417.316 183.696 417.398 182.921 417.724 182.235C422.388 172.409 409.526 172.061 417.499 152.843C415.292 164.747 420.518 185.603 419.386 185.744C419.32 185.752 419.254 185.756 419.187 185.757Z" fill="#6C63FF"/>
<path d="M390.69 172.33C390.183 171.727 390.168 170.879 390.601 170.262L390.649 170.193C391.083 169.574 391.733 169.143 392.469 168.956C403.008 166.281 395.071 156.15 414.952 150.033C404.38 155.926 391.659 173.257 390.827 172.474C390.78 172.429 390.734 172.381 390.69 172.33Z" fill="#6C63FF"/>
<path d="M397.085 163.534C396.764 163.234 396.755 162.783 397.03 162.437L397.061 162.398C397.337 162.05 397.749 161.794 398.216 161.664C404.899 159.804 399.88 154.737 412.487 150.658C405.78 154.233 397.697 163.988 397.171 163.605C397.141 163.583 397.112 163.559 397.085 163.534Z" fill="#6C63FF"/>
<path d="M406.431 169.944C406.025 169.776 405.858 169.357 405.994 168.936L406.01 168.889C406.146 168.466 406.441 168.081 406.833 167.796C412.436 163.705 405.957 160.726 416.328 152.475C411.304 158.18 407.164 170.154 406.537 169.98C406.501 169.97 406.465 169.958 406.431 169.944Z" fill="#E6E6E6"/>
<path d="M379.089 141.526L380.108 144.663H383.406L380.738 146.603L381.757 149.74L379.089 147.801L376.421 149.74L377.44 146.603L374.772 144.663H378.07L379.089 141.526Z" fill="#6C63FF"/>
<path d="M424.538 103.919L425.557 107.057H428.855L426.187 108.996L427.206 112.134L424.538 110.195L421.87 112.134L422.889 108.996L420.221 107.057H423.519L424.538 103.919Z" fill="#E6E6E6"/>
<path d="M448.665 137.597L449.685 140.734H452.983L450.314 142.674L451.334 145.811L448.665 143.872L445.997 145.811L447.016 142.674L444.348 140.734H447.646L448.665 137.597Z" fill="#6C63FF"/>
<path d="M399.849 171.836L400.869 174.973H404.167L401.498 176.913L402.518 180.05L399.849 178.111L397.181 180.05L398.2 176.913L395.532 174.973H398.83L399.849 171.836Z" fill="#6C63FF"/>
<path d="M418.366 137.597L419.385 140.734H422.683L420.015 142.674L421.034 145.811L418.366 143.872L415.698 145.811L416.717 142.674L414.049 140.734H417.347L418.366 137.597Z" fill="#6C63FF"/>
<path d="M443.828 103.919L444.848 107.057H448.146L445.477 108.996L446.497 112.134L443.828 110.195L441.16 112.134L442.179 108.996L439.511 107.057H442.809L443.828 103.919Z" fill="#E6E6E6"/>
<path d="M377.36 165.932L378.653 168.968L381.938 168.676L379.452 170.844L380.744 173.879L377.915 172.183L375.429 174.351L376.166 171.135L373.337 169.439L376.623 169.148L377.36 165.932Z" fill="#E6E6E6"/>
<path d="M405.574 107.961C406.169 107.668 406.837 107.866 407.216 108.397L407.259 108.457C407.639 108.989 407.82 109.663 407.788 110.352C407.334 120.216 417.196 115.807 417.18 134.68C415.119 123.987 404.613 108.576 405.427 108.045C405.474 108.014 405.523 107.986 405.574 107.961Z" fill="#6C63FF"/>
<path d="M396.974 122.581C397.237 122.252 397.67 122.207 398.024 122.439L398.063 122.465C398.418 122.698 398.696 123.068 398.856 123.501C401.149 129.693 405.637 124.51 410.511 136.145C406.568 130.071 396.584 123.201 396.912 122.67C396.931 122.639 396.951 122.609 396.974 122.581Z" fill="#E6E6E6"/>
<path d="M389.383 140.58C389.419 140.16 389.753 139.881 390.176 139.878L390.224 139.878C390.648 139.874 391.085 140.027 391.458 140.298C396.806 144.169 397.655 137.365 408.173 144.325C401.52 141.469 389.403 141.311 389.38 140.688C389.379 140.652 389.38 140.616 389.383 140.58Z" fill="#E6E6E6"/>
</g>
<defs>
<clipPath id="clip0_1085_9753">
<rect width="406" height="348" fill="white" transform="translate(98 49)"/>
</clipPath>
</defs>
</svg>
