<svg width="602" height="446" viewBox="0 0 602 446" fill="none" xmlns="http://www.w3.org/2000/svg">
<rect width="602" height="446" rx="12" fill="#0019FE" fill-opacity="0.22"/>
<g clip-path="url(#clip0_1085_9643)">
<path d="M371.78 155.724C380.705 132.63 401.79 112.675 427.27 110.301C411.951 132.675 405.348 159.543 408.629 186.152C409.933 196.409 412.493 207.687 406.748 216.417C403.173 221.85 396.874 225.194 390.38 226.703C383.886 228.212 377.119 228.095 370.44 227.97L368.945 228.681C364.247 204.459 362.856 178.819 371.78 155.724Z" fill="#F0F0F0"/>
<path d="M427.394 110.804C410.023 122.484 396.918 139.136 389.94 158.393C388.471 162.528 387.354 166.845 387.29 171.235C387.261 175.515 388.424 179.724 390.657 183.425C392.667 186.916 395.143 190.263 396.237 194.164C397.389 198.275 396.45 202.435 394.096 205.987C391.215 210.333 386.884 213.424 382.539 216.305C377.715 219.504 372.652 222.753 369.7 227.778C369.342 228.386 368.382 227.817 368.739 227.209C373.874 218.466 384.652 215.29 391.245 207.864C394.322 204.399 396.332 200.021 395.381 195.406C394.549 191.372 391.999 187.918 389.932 184.4C387.761 180.706 386.343 176.873 386.178 172.599C386.009 168.227 386.952 163.859 388.305 159.706C391.445 150.312 396.1 141.452 402.1 133.45C408.896 124.28 417.27 116.297 426.862 109.846C427.456 109.447 427.984 110.408 427.394 110.804Z" fill="white"/>
<path d="M391.807 152.065C388.609 150.5 386.094 147.891 384.71 144.705C383.326 141.519 383.163 137.963 384.252 134.673C384.474 134.008 385.559 134.309 385.336 134.975C384.316 138.038 384.468 141.35 385.763 144.314C387.058 147.278 389.411 149.699 392.398 151.14C393.047 151.454 392.452 152.377 391.807 152.065Z" fill="white"/>
<path d="M389.396 181.784C396.389 179.658 402.293 175.073 405.931 168.943C406.29 168.336 407.251 168.905 406.892 169.512C403.094 175.884 396.94 180.643 389.657 182.84C388.963 183.049 388.705 181.992 389.396 181.784Z" fill="white"/>
<path d="M409.668 125.513C410.774 126.367 412.083 126.943 413.478 127.19C414.873 127.437 416.309 127.346 417.658 126.926C418.35 126.709 418.607 127.766 417.92 127.982C416.427 128.44 414.841 128.538 413.299 128.269C411.758 128 410.308 127.371 409.077 126.439C408.953 126.36 408.865 126.239 408.831 126.1C408.796 125.962 408.818 125.815 408.892 125.692C408.971 125.57 409.096 125.482 409.242 125.449C409.387 125.416 409.54 125.439 409.668 125.513Z" fill="white"/>
<path d="M488.688 169.169C488.261 169.317 487.833 169.464 487.403 169.621C481.665 171.632 476.106 174.09 470.781 176.968C470.366 177.184 469.949 177.409 469.541 177.637C456.789 184.703 445.512 193.986 436.281 205.014C432.613 209.406 429.296 214.06 426.361 218.936C422.308 225.67 418.47 233.282 412.517 238.19C411.902 238.709 411.254 239.19 410.577 239.632L369.962 230.381C369.88 230.316 369.796 230.259 369.714 230.193L368.075 229.895C368.208 229.633 368.352 229.365 368.485 229.103C368.562 228.951 368.648 228.801 368.724 228.649C368.778 228.548 368.832 228.448 368.875 228.354C368.893 228.32 368.911 228.287 368.927 228.262C368.969 228.168 369.019 228.085 369.06 228C369.86 226.497 370.673 224.996 371.498 223.498C371.5 223.489 371.5 223.489 371.511 223.482C377.827 212.083 385.187 201.091 394.046 191.524C394.313 191.236 394.581 190.939 394.866 190.656C398.885 186.365 403.26 182.397 407.95 178.792C410.525 176.826 413.201 174.987 415.969 173.281C423.13 168.888 430.963 165.605 439.184 163.555C455.571 159.47 473.133 160.475 487.59 168.543C487.96 168.749 488.321 168.954 488.688 169.169Z" fill="#F0F0F0"/>
<path d="M488.475 169.645C467.299 168.905 446.419 174.605 428.802 185.937C425.042 188.387 421.451 191.187 418.653 194.655C415.953 198.056 414.249 202.091 413.716 206.34C413.138 210.292 413.021 214.399 411.454 218.147C409.802 222.098 406.451 224.875 402.349 226.347C397.33 228.148 391.939 228.106 386.667 227.888C380.815 227.647 374.74 227.306 369.24 229.608C368.574 229.887 368.163 228.875 368.828 228.597C378.397 224.593 388.989 228.303 398.899 226.194C403.523 225.21 407.866 222.879 409.993 218.644C411.853 214.94 411.977 210.704 412.527 206.698C413.105 202.491 414.371 198.608 416.912 195.1C419.512 191.511 422.997 188.57 426.675 186.039C435.058 180.358 444.318 175.981 454.114 173.069C465.275 169.685 476.955 168.164 488.649 168.572C489.373 168.597 489.194 169.67 488.475 169.645Z" fill="white"/>
<path d="M434.251 181.967C432.677 178.864 432.3 175.323 433.188 171.977C434.076 168.632 436.171 165.698 439.098 163.702C439.692 163.3 440.369 164.169 439.774 164.572C437.045 166.426 435.094 169.158 434.274 172.276C433.454 175.393 433.818 178.69 435.302 181.571C435.623 182.197 434.571 182.59 434.251 181.967Z" fill="white"/>
<path d="M413.736 204.299C420.65 206.654 428.232 206.414 434.971 203.628C435.638 203.351 436.049 204.363 435.382 204.639C428.364 207.526 420.473 207.76 413.284 205.294C412.599 205.058 413.055 204.064 413.736 204.299Z" fill="white"/>
<path d="M465.121 171.117C465.47 172.44 466.155 173.659 467.114 174.664C468.074 175.669 469.277 176.429 470.617 176.875C471.305 177.103 470.849 178.096 470.165 177.871C468.687 177.371 467.359 176.53 466.297 175.421C465.234 174.313 464.47 172.972 464.07 171.513C464.021 171.379 464.026 171.232 464.085 171.101C464.145 170.97 464.254 170.866 464.39 170.81C464.529 170.758 464.684 170.761 464.821 170.819C464.958 170.876 465.066 170.984 465.121 171.117Z" fill="white"/>
<path d="M136.448 367.414C113.196 357.105 94.115 335.362 93.5801 310.727C115.602 327.12 142.939 335.486 170.753 334.347C181.478 333.87 193.355 332.264 201.966 338.437C207.324 342.278 210.312 348.577 211.386 354.923C212.459 361.27 211.826 367.755 211.192 374.156L211.815 375.645C186.367 378.325 159.7 377.723 136.448 367.414Z" fill="#F0F0F0"/>
<path d="M94.1109 310.647C104.9 328.2 121.161 342.036 140.584 350.188C144.756 351.91 149.145 353.307 153.688 353.7C158.12 354.051 162.568 353.253 166.571 351.389C170.34 349.724 173.994 347.6 178.118 346.845C182.464 346.049 186.702 347.265 190.204 349.793C194.49 352.886 197.365 357.276 200.021 361.664C202.971 366.535 205.954 371.64 210.937 374.852C211.541 375.241 210.878 376.12 210.275 375.732C201.606 370.143 199.13 359.559 191.934 352.67C188.577 349.456 184.192 347.196 179.34 347.76C175.097 348.254 171.327 350.441 167.526 352.159C163.536 353.963 159.457 355.035 155.017 354.871C150.475 354.703 146.021 353.468 141.821 351.856C132.326 348.132 123.498 342.995 115.661 336.632C106.675 329.418 99.0372 320.778 93.0781 311.085C92.7095 310.485 93.7447 310.051 94.1109 310.647Z" fill="white"/>
<path d="M134.169 347.917C132.306 350.868 129.413 353.085 126.008 354.173C122.603 355.261 118.907 355.148 115.581 353.855C114.908 353.591 115.303 352.573 115.976 352.838C119.071 354.047 122.514 354.152 125.683 353.133C128.852 352.113 131.537 350.038 133.256 347.28C133.63 346.681 134.541 347.321 134.169 347.917Z" fill="white"/>
<path d="M164.776 352.476C163.101 345.603 158.797 339.59 152.721 335.636C152.119 335.245 152.782 334.366 153.383 334.757C159.698 338.883 164.164 345.149 165.89 352.304C166.054 352.986 164.939 353.154 164.776 352.476Z" fill="white"/>
<path d="M108.011 328.77C108.979 327.773 109.675 326.56 110.036 325.24C110.396 323.92 110.411 322.534 110.078 321.208C109.905 320.528 111.02 320.361 111.192 321.036C111.553 322.504 111.535 324.034 111.14 325.493C110.744 326.952 109.984 328.296 108.925 329.407C108.834 329.52 108.702 329.595 108.556 329.618C108.409 329.64 108.26 329.608 108.137 329.528C108.016 329.443 107.935 329.316 107.912 329.174C107.888 329.032 107.924 328.887 108.011 328.77Z" fill="white"/>
<path d="M159.205 256.227C159.326 256.648 159.446 257.07 159.576 257.494C161.227 263.153 163.352 268.674 165.932 274.002C166.125 274.416 166.326 274.834 166.531 275.243C172.888 288.015 181.654 299.539 192.382 309.231C196.655 313.084 201.226 316.618 206.056 319.804C212.727 324.202 220.323 328.461 224.957 334.544C225.448 335.174 225.898 335.832 226.305 336.515L213.654 374.798C213.58 374.871 213.515 374.947 213.441 375.021L213.008 376.572C212.747 376.424 212.48 376.266 212.219 376.118C212.067 376.033 211.918 375.94 211.766 375.855C211.666 375.795 211.566 375.735 211.472 375.687C211.438 375.668 211.405 375.648 211.38 375.631C211.286 375.583 211.204 375.529 211.119 375.483C209.622 374.602 208.129 373.709 206.639 372.804C206.63 372.801 206.63 372.801 206.623 372.79C195.291 365.867 184.459 357.973 175.217 348.748C174.939 348.47 174.652 348.19 174.38 347.895C170.238 343.715 166.457 339.215 163.077 334.442C161.235 331.822 159.531 329.115 157.973 326.33C153.962 319.126 151.154 311.359 149.65 303.315C146.656 287.279 149.023 270.499 158.473 257.233C158.715 256.894 158.954 256.563 159.205 256.227Z" fill="#F0F0F0"/>
<path d="M159.682 256.467C157.316 276.735 161.645 297.205 172.054 314.969C174.309 318.762 176.938 322.421 180.32 325.368C183.639 328.216 187.69 330.156 192.052 330.988C196.103 331.842 200.349 332.264 204.114 334.051C208.082 335.934 210.705 339.361 211.92 343.409C213.407 348.362 212.956 353.533 212.333 358.576C211.641 364.175 210.83 369.979 212.799 375.432C213.038 376.093 211.959 376.41 211.72 375.751C208.294 366.264 212.938 356.379 211.502 346.709C210.831 342.197 208.744 337.852 204.517 335.49C200.821 333.426 196.442 332.987 192.333 332.156C188.018 331.284 184.091 329.776 180.649 327.072C177.127 324.306 174.344 320.739 171.999 317.018C166.746 308.543 162.911 299.326 160.634 289.704C157.972 278.736 157.278 267.411 158.583 256.218C158.664 255.526 159.762 255.779 159.682 256.467Z" fill="white"/>
<path d="M168.353 309.439C165.019 310.715 161.322 310.81 157.923 309.705C154.524 308.6 151.643 306.368 149.796 303.408C149.424 302.808 150.376 302.224 150.748 302.825C152.463 305.585 155.147 307.663 158.314 308.686C161.482 309.708 164.925 309.607 168.021 308.401C168.695 308.14 169.022 309.179 168.353 309.439Z" fill="white"/>
<path d="M189.939 330.815C192.901 324.358 193.225 317.062 190.847 310.385C190.611 309.723 191.69 309.405 191.926 310.066C194.387 317.019 194.033 324.61 190.935 331.324C190.64 331.964 189.644 331.452 189.939 330.815Z" fill="white"/>
<path d="M159.443 278.993C160.84 278.757 162.154 278.192 163.268 277.347C164.382 276.502 165.26 275.404 165.824 274.152C166.111 273.509 167.106 274.022 166.821 274.661C166.191 276.042 165.219 277.253 163.991 278.189C162.763 279.125 161.315 279.757 159.774 280.031C159.631 280.068 159.479 280.052 159.348 279.985C159.217 279.918 159.118 279.806 159.07 279.671C159.026 279.533 159.041 279.385 159.111 279.258C159.181 279.131 159.301 279.035 159.443 278.993Z" fill="white"/>
<path d="M189.986 231.277C169.44 211.809 160.762 191.5 165.55 174.09C171.696 151.748 198.996 136.3 240.451 131.708L240.604 132.989C199.726 137.517 172.842 152.618 166.846 174.42C162.186 191.363 170.737 211.229 190.926 230.358L189.986 231.277Z" fill="#F0F0F0"/>
<path d="M388.22 300.382C362.577 300.382 334.712 296.714 307.034 289.661C272.806 280.939 241.423 267.775 216.277 251.591L217.021 250.519C242.046 266.625 273.29 279.729 307.377 288.414C338.18 296.264 369.214 299.901 397.113 298.941L397.161 300.229C394.215 300.331 391.235 300.382 388.22 300.382Z" fill="#F0F0F0"/>
<path d="M447.048 292.271L446.619 291.049C469.553 283.586 483.897 271.563 488.101 256.28C493.444 236.851 481.835 214.305 455.411 192.796C428.852 171.177 390.554 153.238 347.57 142.286L347.913 141.039C391.085 152.04 429.569 170.071 456.276 191.811C483.118 213.66 494.88 236.673 489.396 256.61C485.072 272.331 470.428 284.663 447.048 292.271Z" fill="#F0F0F0"/>
<path d="M236.461 300.921C186.075 279.412 147.248 251.506 127.134 222.344L128.251 221.631C148.225 250.591 186.848 278.331 237.004 299.742L236.461 300.921Z" fill="#F0F0F0"/>
<path d="M413.616 338.184C408.419 338.184 403.133 338.072 397.758 337.849L397.816 336.56C437.925 338.232 473.314 333.612 500.164 323.197L500.666 324.394C477.244 333.477 447.39 338.184 413.616 338.184Z" fill="#F0F0F0"/>
<path d="M384.381 132.864C376.053 130.254 367.487 127.825 358.921 125.642C309.626 113.081 261.169 108.621 218.786 112.747L218.651 111.464C261.192 107.324 309.815 111.795 359.264 124.395C367.854 126.584 376.444 129.021 384.796 131.638L384.381 132.864Z" fill="#F0F0F0"/>
<path d="M158.495 233.212C137.949 213.744 129.272 193.434 134.06 176.024C140.205 153.682 167.505 138.235 208.96 133.642L209.113 134.924C168.236 139.452 141.352 154.553 135.356 176.354C130.695 193.298 139.247 213.164 159.436 232.293L158.495 233.212Z" fill="#F0F0F0"/>
<path d="M356.73 302.316C331.087 302.316 303.222 298.649 275.544 291.596C241.316 282.874 209.932 269.71 184.787 253.525L185.531 252.453C210.556 268.559 241.8 281.664 275.886 290.349C306.69 298.198 337.724 301.835 365.623 300.875L365.671 302.164C362.725 302.266 359.744 302.317 356.73 302.316Z" fill="#F0F0F0"/>
<path d="M415.558 294.206L415.128 292.984C438.062 285.52 452.407 273.498 456.61 258.215C461.954 238.786 450.345 216.24 423.921 194.73C397.362 173.111 359.064 155.173 316.08 144.22L316.422 142.973C359.595 153.974 398.079 172.005 424.786 193.746C451.627 215.595 463.39 238.608 457.906 258.544C453.582 274.266 438.938 286.597 415.558 294.206Z" fill="#F0F0F0"/>
<path d="M204.971 302.855C154.584 281.346 115.758 253.441 95.644 224.279L96.7603 223.566C116.735 252.526 155.358 280.266 205.514 301.677L204.971 302.855Z" fill="#F0F0F0"/>
<path d="M382.126 340.118C376.929 340.118 371.643 340.007 366.268 339.783L366.326 338.495C406.435 340.166 441.824 335.546 468.674 325.132L469.175 326.328C445.753 335.412 415.9 340.118 382.126 340.118Z" fill="#F0F0F0"/>
<path d="M352.891 134.799C344.563 132.189 335.997 129.759 327.43 127.576C278.136 115.016 229.678 110.556 187.295 114.682L187.161 113.398C229.702 109.259 278.325 113.729 327.773 126.329C336.364 128.519 344.954 130.955 353.305 133.573L352.891 134.799Z" fill="#F0F0F0"/>
<path d="M219.769 230.567C217.016 230.57 214.376 231.624 212.429 233.498C210.482 235.372 209.387 237.913 209.384 240.563C205.436 268.545 204.117 296.812 205.444 325.021C205.523 326.823 205.611 328.47 205.712 330.06C205.859 332.684 206.046 335.455 206.268 338.297C206.395 339.973 206.529 341.655 206.676 343.331C206.922 346.06 207.192 348.834 207.48 351.574C207.661 353.248 207.848 354.93 208.048 356.605C208.434 359.896 208.869 363.269 209.381 366.917C209.376 369.574 210.468 372.124 212.416 374.007C214.364 375.889 217.009 376.95 219.769 376.956H393.971C396.724 376.953 399.364 375.899 401.311 374.025C403.257 372.151 404.353 369.61 404.356 366.96L404.364 366.891C405.14 363.488 405.862 360.021 406.512 356.584C406.859 354.772 407.159 353.127 407.429 351.554C407.918 348.689 408.352 345.917 408.72 343.314C408.972 341.567 409.199 339.874 409.396 338.282C409.721 335.677 410.014 332.984 410.293 330.049C410.446 328.454 410.586 326.807 410.722 325.013V325.013C412.852 296.738 410.71 268.315 404.364 240.632L404.356 240.563C404.353 237.913 403.257 235.372 401.311 233.498C399.364 231.624 396.724 230.57 393.971 230.567L219.769 230.567Z" fill="#3F3D56"/>
<path d="M313.633 273.359C275.888 273.359 235.892 270.058 183.546 263.454H183.54C180.826 263.45 178.209 262.483 176.191 260.737C174.173 258.991 172.895 256.589 172.603 253.992C172.555 253.602 172.532 253.209 172.534 252.816V222.506C172.533 222.441 172.536 222.377 172.543 222.312C172.602 219.527 173.791 216.875 175.855 214.923C177.919 212.971 180.695 211.873 183.589 211.866C274.66 199.947 329.982 199.948 430.192 211.868H430.197C433.089 211.886 435.859 212.993 437.915 214.951C439.971 216.909 441.15 219.563 441.199 222.347C441.205 222.4 441.207 222.453 441.206 222.506V252.816C441.208 253.21 441.184 253.604 441.137 253.995C440.84 256.599 439.554 259.005 437.527 260.751C435.499 262.498 432.872 263.461 430.151 263.456C386.856 270.058 351.369 273.359 313.633 273.359Z" fill="#6C63FF"/>
<path d="M319.688 294.411H296.786C293.871 294.408 291.077 293.292 289.016 291.308C286.955 289.324 285.795 286.634 285.792 283.829V203.746C285.795 200.94 286.955 198.251 289.016 196.267C291.077 194.283 293.871 193.167 296.786 193.164H319.688C322.603 193.167 325.397 194.283 327.458 196.267C329.52 198.251 330.679 200.94 330.682 203.746V283.829C330.679 286.634 329.52 289.324 327.458 291.308C325.397 293.292 322.603 294.408 319.688 294.411Z" fill="#3F3D56"/>
<path d="M371.682 177.84C371.517 176.339 371.225 174.853 370.809 173.397C370.361 171.938 369.793 170.516 369.112 169.143C366.669 164.097 362.548 159.979 357.401 157.439C351.013 154.413 343.706 154.165 336.837 155.623C331.064 156.868 325.642 159.311 320.951 162.782C318.519 164.546 316.297 166.563 314.326 168.796C312.291 171.147 308.505 177.604 308.232 178.202C306.092 173.524 303.021 169.296 299.192 165.755C294.742 161.689 289.43 158.599 283.621 156.697C280.533 155.695 277.326 155.068 274.077 154.83C270.639 154.555 267.177 154.845 263.84 155.689C257.845 157.305 252.661 160.953 249.242 165.96C245.984 170.614 244.384 176.159 244.683 181.763C244.848 184.593 245.482 187.379 246.56 190.015C247.139 191.443 247.825 192.827 248.612 194.158C249.428 195.473 250.339 196.73 251.34 197.92C255.268 202.56 260.559 205.951 266.521 207.65C272.886 209.543 279.638 209.605 286.183 208.716C292.904 207.803 299.374 205.709 305.704 203.416C306.548 203.11 307.389 202.795 308.232 202.483C313.859 204.567 319.535 206.577 325.426 207.852C332.053 209.393 338.932 209.658 345.666 208.634C351.943 207.642 357.779 204.898 362.45 200.742C366.772 196.828 369.797 191.772 371.145 186.209C371.811 183.468 371.992 180.639 371.682 177.84ZM284.435 202.486C280.802 202.934 277.126 202.955 273.488 202.548C270.881 202.184 268.326 201.53 265.876 200.598C260.101 198.283 255.497 193.883 253.051 188.341C252.319 186.594 251.799 184.772 251.499 182.911C251.306 181.255 251.306 179.583 251.497 177.927C251.782 176.185 252.27 174.479 252.952 172.842C253.69 171.25 254.607 169.74 255.685 168.34C256.731 167.086 257.912 165.944 259.21 164.932C260.44 164.056 261.764 163.31 263.159 162.705C264.823 162.079 266.555 161.633 268.322 161.375C270.716 161.12 273.133 161.138 275.522 161.429C278.365 161.852 281.148 162.59 283.814 163.629C286.651 164.814 289.331 166.318 291.799 168.11C294.083 169.852 296.154 171.839 297.97 174.032C299.768 176.334 301.277 178.834 302.463 181.478C303.616 184.237 304.425 187.118 304.875 190.06L304.881 190.103C304.705 191.582 304.617 193.068 304.617 194.556C304.619 195.129 304.645 195.702 304.675 196.274C304.392 196.536 304.156 196.842 303.977 197.178C299.31 198.94 294.526 200.401 289.656 201.549C287.93 201.933 286.19 202.245 284.435 202.486ZM364.979 182.911C364.679 184.772 364.158 186.594 363.427 188.342C360.993 193.891 356.385 198.295 350.602 200.598C348.151 201.53 345.597 202.184 342.99 202.548C339.345 202.956 335.662 202.934 332.023 202.484C325.559 201.594 319.324 199.63 313.224 197.439C312.973 197.349 312.724 197.253 312.473 197.162C312.303 196.831 312.077 196.529 311.805 196.268C311.913 194.192 311.846 192.11 311.605 190.044C312.056 187.108 312.865 184.232 314.015 181.478C315.201 178.834 316.71 176.334 318.508 174.032C320.324 171.839 322.395 169.852 324.679 168.11C327.147 166.318 329.827 164.814 332.664 163.629C335.33 162.59 338.113 161.852 340.956 161.429C343.345 161.138 345.762 161.12 348.155 161.375C349.923 161.633 351.655 162.079 353.32 162.705C354.715 163.31 356.038 164.056 357.268 164.932C358.566 165.944 359.747 167.086 360.793 168.34C361.871 169.74 362.788 171.25 363.526 172.842C364.208 174.479 364.696 176.185 364.981 177.927C365.172 179.583 365.172 181.255 364.979 182.911Z" fill="#3F3D56"/>
<path d="M238.529 297.958C240.75 297.958 242.549 296.225 242.549 294.088C242.549 291.951 240.75 290.219 238.529 290.219C236.309 290.219 234.509 291.951 234.509 294.088C234.509 296.225 236.309 297.958 238.529 297.958Z" fill="#6C63FF"/>
<path d="M267.34 288.284C269.56 288.284 271.36 286.552 271.36 284.415C271.36 282.278 269.56 280.546 267.34 280.546C265.12 280.546 263.32 282.278 263.32 284.415C263.32 286.552 265.12 288.284 267.34 288.284Z" fill="#6C63FF"/>
<path d="M254.609 318.594C256.83 318.594 258.629 316.862 258.629 314.725C258.629 312.588 256.83 310.855 254.609 310.855C252.389 310.855 250.589 312.588 250.589 314.725C250.589 316.862 252.389 318.594 254.609 318.594Z" fill="#6C63FF"/>
<path d="M373.871 297.958C376.091 297.958 377.891 296.225 377.891 294.088C377.891 291.951 376.091 290.219 373.871 290.219C371.65 290.219 369.851 291.951 369.851 294.088C369.851 296.225 371.65 297.958 373.871 297.958Z" fill="#6C63FF"/>
<path d="M345.06 288.284C347.28 288.284 349.08 286.552 349.08 284.415C349.08 282.278 347.28 280.546 345.06 280.546C342.84 280.546 341.04 282.278 341.04 284.415C341.04 286.552 342.84 288.284 345.06 288.284Z" fill="#6C63FF"/>
<path d="M357.791 318.594C360.011 318.594 361.811 316.862 361.811 314.725C361.811 312.588 360.011 310.855 357.791 310.855C355.57 310.855 353.771 312.588 353.771 314.725C353.771 316.862 355.57 318.594 357.791 318.594Z" fill="#6C63FF"/>
<path d="M377.22 365.67C379.44 365.67 381.24 363.938 381.24 361.801C381.24 359.664 379.44 357.932 377.22 357.932C375 357.932 373.2 359.664 373.2 361.801C373.2 363.938 375 365.67 377.22 365.67Z" fill="#6C63FF"/>
<path d="M387.271 337.941C389.491 337.941 391.291 336.208 391.291 334.071C391.291 331.934 389.491 330.202 387.271 330.202C385.05 330.202 383.25 331.934 383.25 334.071C383.25 336.208 385.05 337.941 387.271 337.941Z" fill="#6C63FF"/>
<path d="M355.78 350.193C358 350.193 359.8 348.461 359.8 346.324C359.8 344.187 358 342.455 355.78 342.455C353.56 342.455 351.76 344.187 351.76 346.324C351.76 348.461 353.56 350.193 355.78 350.193Z" fill="#6C63FF"/>
<path d="M261.98 365.67C264.2 365.67 266 363.938 266 361.801C266 359.664 264.2 357.932 261.98 357.932C259.759 357.932 257.959 359.664 257.959 361.801C257.959 363.938 259.759 365.67 261.98 365.67Z" fill="#6C63FF"/>
<path d="M272.03 337.941C274.25 337.941 276.05 336.208 276.05 334.071C276.05 331.934 274.25 330.202 272.03 330.202C269.81 330.202 268.01 331.934 268.01 334.071C268.01 336.208 269.81 337.941 272.03 337.941Z" fill="#6C63FF"/>
<path d="M240.54 350.193C242.76 350.193 244.56 348.461 244.56 346.324C244.56 344.187 242.76 342.455 240.54 342.455C238.319 342.455 236.52 344.187 236.52 346.324C236.52 348.461 238.319 350.193 240.54 350.193Z" fill="#6C63FF"/>
<path d="M356.044 92.3942C357.567 93.0058 359.227 93.2298 360.865 93.0445C362.503 92.8593 364.064 92.2711 365.398 91.3365C368.798 88.896 370.072 84.6359 371.14 80.6859L374.293 69L368.967 72.1124C365.137 74.3502 361.219 76.6622 358.454 80.0595C355.689 83.4569 354.29 88.2178 356.112 92.1602" fill="#F2F2F2"/>
<path d="M213.596 192.215C214.624 190.973 215.303 189.498 215.566 187.93C215.83 186.363 215.67 184.757 215.101 183.266C213.594 179.451 209.686 177.104 206.031 175.034L195.218 168.914L196.87 174.697C198.057 178.856 199.294 183.116 201.931 186.606C204.569 190.096 208.943 192.695 213.381 192.088" fill="#F2F2F2"/>
<path d="M467.528 372.137C468.556 370.896 469.235 369.42 469.499 367.853C469.762 366.286 469.602 364.679 469.033 363.189C467.526 359.373 463.618 357.027 459.964 354.957L449.15 348.837L450.802 354.62C451.989 358.778 453.226 363.039 455.863 366.529C458.501 370.019 462.875 372.617 467.313 372.01" fill="#F2F2F2"/>
<path d="M263.32 143.83C266.28 143.83 268.68 141.521 268.68 138.671C268.68 135.822 266.28 133.512 263.32 133.512C260.359 133.512 257.959 135.822 257.959 138.671C257.959 141.521 260.359 143.83 263.32 143.83Z" fill="#FD6584"/>
<path d="M120.609 296.023C123.569 296.023 125.969 293.713 125.969 290.864C125.969 288.015 123.569 285.705 120.609 285.705C117.648 285.705 115.249 288.015 115.249 290.864C115.249 293.713 117.648 296.023 120.609 296.023Z" fill="#FD6584"/>
<path d="M489.111 254.105C492.071 254.105 494.471 251.796 494.471 248.946C494.471 246.097 492.071 243.787 489.111 243.787C486.151 243.787 483.751 246.097 483.751 248.946C483.751 251.796 486.151 254.105 489.111 254.105Z" fill="#FD6584"/>
<path d="M115.249 166.401C118.209 166.401 120.609 164.091 120.609 161.242C120.609 158.393 118.209 156.083 115.249 156.083C112.288 156.083 109.889 158.393 109.889 161.242C109.889 164.091 112.288 166.401 115.249 166.401Z" fill="#E6E6E6"/>
<path d="M446.901 313.435C449.861 313.435 452.261 311.125 452.261 308.276C452.261 305.426 449.861 303.117 446.901 303.117C443.941 303.117 441.541 305.426 441.541 308.276C441.541 311.125 443.941 313.435 446.901 313.435Z" fill="#E6E6E6"/>
<path d="M457.621 156.728C460.581 156.728 462.981 154.418 462.981 151.569C462.981 148.72 460.581 146.41 457.621 146.41C454.66 146.41 452.261 148.72 452.261 151.569C452.261 154.418 454.66 156.728 457.621 156.728Z" fill="#E6E6E6"/>
<path d="M222.602 238.781C222.138 239.486 221.015 239.384 220.384 238.943C219.508 238.33 219.792 237.151 220.395 236.454C222.312 234.24 225.481 236.578 225.909 238.777C226.068 239.85 225.896 240.943 225.416 241.923C224.935 242.902 224.166 243.724 223.204 244.287C221.017 245.534 218.177 244.908 216.297 243.416C212.375 240.302 213.443 234.067 217.799 231.814C220.579 230.376 224.094 231.007 226.833 232.212C229.916 233.567 232.567 235.645 235.418 237.377C241.673 241.146 248.75 243.472 256.094 244.173C257.379 244.299 257.37 242.363 256.094 242.238C252.024 241.833 248.029 240.907 244.213 239.485C240.439 238.012 236.856 236.119 233.538 233.845C230.181 231.63 226.674 229.479 222.52 229.113C220.843 228.925 219.145 229.167 217.597 229.815C216.05 230.463 214.708 231.494 213.708 232.803C212.819 233.975 212.224 235.328 211.97 236.758C211.715 238.188 211.808 239.655 212.241 241.045C212.763 242.498 213.676 243.792 214.887 244.795C216.097 245.798 217.562 246.474 219.132 246.755C220.644 247.03 222.207 246.844 223.604 246.223C225.001 245.602 226.161 244.577 226.923 243.291C228.453 240.745 228.403 237.326 226.093 235.216C225.431 234.568 224.602 234.101 223.692 233.863C222.781 233.624 221.82 233.623 220.909 233.859C220.069 234.132 219.33 234.635 218.782 235.306C218.234 235.977 217.902 236.787 217.825 237.637C217.602 240.941 222.475 242.593 224.337 239.757C225.03 238.702 223.292 237.73 222.602 238.781Z" fill="#3F3D56"/>
<path d="M394.489 238.781C394.952 239.486 396.075 239.384 396.706 238.942C397.582 238.33 397.298 237.151 396.695 236.454C394.779 234.24 391.609 236.578 391.181 238.777C391.022 239.849 391.194 240.943 391.675 241.922C392.155 242.902 392.924 243.724 393.886 244.286C396.073 245.534 398.913 244.908 400.793 243.415C404.715 240.301 403.648 234.067 399.291 231.814C396.511 230.376 392.996 231.007 390.258 232.211C387.175 233.567 384.524 235.645 381.673 237.377C375.417 241.146 368.341 243.472 360.996 244.173C359.711 244.299 359.72 242.363 360.996 242.238C365.066 241.833 369.062 240.907 372.877 239.485C376.652 238.012 380.235 236.119 383.552 233.845C386.909 231.63 390.416 229.479 394.571 229.113C396.247 228.924 397.945 229.167 399.493 229.815C401.041 230.463 402.383 231.494 403.382 232.803C404.271 233.975 404.866 235.328 405.121 236.758C405.375 238.188 405.282 239.655 404.849 241.045C404.327 242.498 403.414 243.792 402.204 244.795C400.993 245.798 399.528 246.474 397.958 246.755C396.446 247.03 394.883 246.844 393.486 246.223C392.09 245.602 390.929 244.577 390.167 243.291C388.638 240.745 388.688 237.326 390.997 235.216C391.659 234.568 392.488 234.101 393.399 233.863C394.31 233.624 395.27 233.623 396.181 233.859C397.021 234.132 397.761 234.634 398.308 235.305C398.856 235.976 399.189 236.787 399.266 237.637C399.489 240.941 394.616 242.593 392.753 239.757C392.06 238.702 393.798 237.73 394.489 238.781Z" fill="#3F3D56"/>
<path d="M152.654 92.4497L149.998 95.6558L140.609 90.3097L143.263 87.1036L152.654 92.4497Z" fill="#E4E4E4"/>
<path d="M162.451 106.225L164.796 109.593L154.932 114.315L152.587 110.948L162.451 106.225Z" fill="#E4E4E4"/>
<path d="M172.662 91.5817L177.348 91.7415L176.881 101.178L172.195 101.019L172.662 91.5817Z" fill="#E4E4E4"/>
<path d="M484.306 289.784L481.651 292.99L472.261 287.644L474.916 284.438L484.306 289.784Z" fill="#E4E4E4"/>
<path d="M494.103 303.559L496.448 306.927L486.584 311.65L484.239 308.281L494.103 303.559Z" fill="#E4E4E4"/>
<path d="M504.314 288.916L509 289.076L508.534 298.513L503.847 298.354L504.314 288.916Z" fill="#E4E4E4"/>
</g>
<defs>
<clipPath id="clip0_1085_9643">
<rect width="416" height="308" fill="white" transform="translate(93 69)"/>
</clipPath>
</defs>
</svg>
