<svg width="728" height="619" viewBox="0 0 728 619" fill="none" xmlns="http://www.w3.org/2000/svg">
<path fill-rule="evenodd" clip-rule="evenodd" d="M250.259 27.9569C333.913 24.114 397.941 94.1148 456.413 154.064C513.875 212.978 579.946 278.112 574.329 360.217C568.878 439.91 492.465 490.165 430.015 539.972C376.853 582.371 318.156 622.394 250.259 618.68C185.128 615.117 132.591 569.985 89.1506 521.326C48.6461 475.956 24.1917 420.856 19.5136 360.217C14.3741 293.595 24.1 227.056 62.2152 172.173C109.056 104.724 168.228 31.7254 250.259 27.9569Z" fill="#EDF3FF"/>
<g clip-path="url(#clip0_1_12146)">
<path d="M220.359 220.555C216.463 215.508 210.958 210.838 210.609 204.61C210.289 198.898 214.549 193.226 212.753 187.761C211.371 183.559 206.814 181.024 202.361 179.681C193.835 177.148 184.711 177.499 176.405 180.68L176.856 180.363C171.786 178.557 165.86 180.421 161.872 183.873C157.883 187.326 155.513 192.111 153.674 196.906C151.834 201.702 150.409 206.672 147.853 211.168C145.297 215.664 141.384 219.752 136.221 221.306C137.95 224.753 143.353 225.936 146.522 223.56C147.331 222.903 148.059 222.151 148.689 221.32C150.802 218.75 152.916 216.181 155.03 213.611C157.204 217.478 153.956 222.816 156.629 226.396C158.007 228.242 160.525 228.944 162.863 229.447C181.137 233.345 200.094 232.642 218.029 227.401C219.47 226.976 221.061 226.391 221.659 225.086C222.349 223.58 221.383 221.883 220.359 220.555Z" fill="#2F2E41"/>
<path d="M272.175 240.252C272.061 240.754 271.986 241.264 271.952 241.777L232.01 264.816L222.302 259.228L211.952 272.775L228.178 284.338C229.488 285.272 231.067 285.756 232.676 285.717C234.285 285.677 235.838 285.117 237.102 284.12L278.289 251.632C280.148 252.32 282.172 252.426 284.092 251.936C286.013 251.445 287.738 250.382 289.039 248.887C290.341 247.392 291.156 245.537 291.377 243.568C291.597 241.598 291.213 239.608 290.275 237.862C289.337 236.117 287.89 234.698 286.126 233.794C284.362 232.891 282.364 232.546 280.4 232.806C278.435 233.065 276.595 233.916 275.126 235.247C273.657 236.577 272.627 238.323 272.175 240.252Z" fill="#FFB7B7"/>
<path d="M230.675 265.907L217.766 282.635C217.398 283.111 216.933 283.503 216.401 283.782C215.869 284.062 215.282 284.224 214.682 284.257C214.082 284.29 213.481 284.193 212.922 283.973C212.362 283.753 211.857 283.415 211.44 282.982L196.825 267.809C194.4 265.916 192.824 263.139 192.444 260.086C192.063 257.034 192.909 253.955 194.796 251.525C196.682 249.095 199.456 247.512 202.508 247.124C205.56 246.735 208.641 247.573 211.076 249.453L229.405 259.701C229.93 259.994 230.385 260.397 230.74 260.883C231.095 261.368 231.341 261.924 231.461 262.513C231.582 263.102 231.574 263.71 231.438 264.296C231.303 264.881 231.042 265.431 230.675 265.907Z" fill="#6C63FF"/>
<path d="M212.909 557.38L224.308 557.379L229.73 513.417L212.906 513.418L212.909 557.38Z" fill="#FFB7B7"/>
<path d="M210.001 553.659L232.45 553.658H232.451C236.245 553.658 239.884 555.165 242.567 557.848C245.25 560.53 246.757 564.168 246.757 567.962V568.427L210.002 568.428L210.001 553.659Z" fill="#2F2E41"/>
<path d="M134.805 557.38L146.205 557.379L151.627 513.417L134.803 513.418L134.805 557.38Z" fill="#FFB7B7"/>
<path d="M131.897 553.659L154.347 553.658H154.348C158.142 553.658 161.78 555.165 164.463 557.848C167.146 560.53 168.654 564.168 168.654 567.962V568.427L131.898 568.428L131.897 553.659Z" fill="#2F2E41"/>
<path d="M206.063 214.34C207.25 203.527 199.445 193.798 188.63 192.611C177.814 191.424 168.084 199.228 166.897 210.042C165.71 220.856 173.515 230.584 184.33 231.771C195.146 232.958 204.876 225.154 206.063 214.34Z" fill="#FFB7B7"/>
<path d="M198.007 241.72L209.613 247.469C209.613 247.469 222.581 270.001 215.143 291.384C211.531 301.765 221.701 334.858 221.701 334.858C221.701 334.858 237.458 484.755 237.508 531.018C217.932 534.027 199.336 537.746 198.406 528.449C197.476 519.152 187.298 409.231 187.298 409.231C187.298 409.231 173.301 531.238 162.144 533.098C150.986 534.957 128.671 532.168 128.671 532.168C128.671 532.168 146.387 353.451 158.474 342.295L160.334 332.999L160.284 249.549L174.21 242.904L198.007 241.72Z" fill="#2F2E41"/>
<path d="M156.489 368.406C157.773 367.712 158.89 366.744 159.759 365.571C160.629 364.398 161.231 363.049 161.523 361.618C161.814 360.187 161.789 358.71 161.448 357.291C161.107 355.871 160.459 354.543 159.549 353.401L173.047 263.445L155.412 262.598L144.891 352.182C143.073 353.837 141.926 356.102 141.666 358.546C141.406 360.991 142.053 363.445 143.482 365.445C144.912 367.445 147.026 368.851 149.423 369.397C151.82 369.943 154.334 369.59 156.489 368.406Z" fill="#FFB7B7"/>
<path d="M172.663 285.984L151.573 284.653C150.973 284.615 150.388 284.448 149.859 284.164C149.329 283.88 148.866 283.485 148.503 283.006C148.14 282.527 147.884 281.975 147.753 281.388C147.622 280.801 147.619 280.193 147.745 279.605L152.139 259.004C152.35 255.935 153.77 253.075 156.086 251.051C158.403 249.027 161.428 248.004 164.498 248.207C167.568 248.41 170.432 249.821 172.463 252.133C174.493 254.444 175.524 257.466 175.329 260.536L177.096 281.458C177.147 282.057 177.067 282.66 176.864 283.226C176.66 283.792 176.337 284.307 175.916 284.736C175.496 285.166 174.987 285.5 174.426 285.715C173.865 285.93 173.263 286.022 172.663 285.984Z" fill="#6C63FF"/>
<path d="M207.128 199.387C206.36 195.905 203.867 193.02 200.994 190.907C196.259 187.424 190.452 185.712 184.584 186.069C178.716 186.426 173.16 188.829 168.881 192.86C166.491 194.971 164.767 197.733 163.922 200.808C163.518 202.345 163.497 203.957 163.859 205.504C164.221 207.051 164.956 208.486 166 209.684L166.393 209.931C166.037 208.417 167.212 206.905 168.617 206.237C170.078 205.701 171.603 205.359 173.153 205.22C175.498 204.777 177.721 203.836 179.671 202.46C181.621 201.084 183.253 199.306 184.456 197.245C185.348 199.781 186.773 202.097 188.634 204.037C190.496 205.977 192.751 207.496 195.249 208.491C197.853 209.509 205.004 210.909 207.483 209.617C210.645 207.968 207.895 202.869 207.128 199.387Z" fill="#2F2E41"/>
<path d="M62.1713 530.224C65.5801 531.422 69.2399 531.722 72.7984 531.095C76.3568 530.468 79.6938 528.936 82.488 526.645C89.6038 520.673 91.8353 510.838 93.6501 501.728L99.0196 474.782L87.7783 482.522C79.6937 488.087 71.4276 493.832 65.8304 501.893C60.2333 509.954 57.7914 520.959 62.2872 529.682" fill="#E6E6E6"/>
<path d="M63.9072 564.722C62.4924 554.416 61.0366 543.976 62.0315 533.559C62.9131 524.307 65.7361 515.272 71.4833 507.862C74.534 503.936 78.246 500.573 82.4526 497.923C83.5493 497.231 84.5588 498.968 83.4669 499.658C76.1881 504.257 70.5582 511.048 67.3888 519.053C63.8885 527.954 63.3264 537.658 63.9294 547.114C64.2938 552.832 65.0682 558.513 65.846 564.187C65.9074 564.444 65.869 564.714 65.7387 564.943C65.6084 565.173 65.3958 565.344 65.1439 565.423C64.887 565.492 64.6131 565.457 64.3817 565.326C64.1503 565.194 63.9801 564.977 63.9079 564.721L63.9072 564.722Z" fill="#F2F2F2"/>
<path d="M74.0913 548.184C75.553 550.406 77.5625 552.215 79.9261 553.435C82.2898 554.655 84.9278 555.246 87.5862 555.15C94.4194 554.826 100.114 550.06 105.239 545.533L120.403 532.147L110.367 531.667C103.15 531.321 95.7471 530.997 88.8731 533.225C81.999 535.452 75.6596 540.806 74.4028 547.92" fill="#E6E6E6"/>
<path d="M59.9081 570.647C66.7198 558.596 74.6202 545.203 88.738 540.922C92.6632 539.736 96.7788 539.311 100.864 539.67C102.151 539.782 101.83 541.766 100.545 541.655C93.6976 541.087 86.8637 542.894 81.1934 546.774C75.7369 550.487 71.4883 555.65 67.8928 561.125C65.6902 564.479 63.7172 567.974 61.7443 571.465C61.1139 572.581 59.2703 571.776 59.9081 570.647Z" fill="#F2F2F2"/>
<path d="M520.205 347.858C507.422 330.755 484.028 326.627 472.403 335.313C460.777 343.999 458.107 367.601 470.889 384.704C482.721 400.535 504.156 404.853 515.963 398.922C515.925 399.107 515.923 399.298 515.956 399.484L516.622 402.774C516.673 403.025 516.787 403.258 516.953 403.453C517.12 403.647 517.333 403.796 517.573 403.885C517.813 403.973 518.072 403.999 518.325 403.96C518.578 403.92 518.816 403.817 519.018 403.659L524.655 399.256C524.857 399.099 525.015 398.892 525.114 398.657C525.214 398.421 525.251 398.163 525.223 397.909C525.195 397.655 525.103 397.412 524.954 397.203C524.806 396.995 524.607 396.827 524.376 396.717L521.343 395.276C521.237 395.228 521.125 395.192 521.01 395.171C530.11 385.551 532.062 363.724 520.205 347.858Z" fill="#CCCCCC"/>
<path d="M492.245 341.401C498.498 342.394 504.131 345.749 507.981 350.774C511.831 355.8 513.604 362.111 512.935 368.406C512.798 369.847 515.051 369.838 515.187 368.406C515.832 361.621 513.887 354.844 509.743 349.432C505.6 344.021 499.563 340.377 492.844 339.229C491.426 338.988 490.817 341.158 492.245 341.401Z" fill="white"/>
<path d="M541.039 52.2162C552.215 34.0225 547.41 10.7608 535.044 3.16707C522.677 -4.42663 499.755 1.80931 488.58 20.003C478.236 36.8435 482.14 58.3554 492.013 67.1352C491.827 67.1681 491.649 67.2364 491.488 67.3363L488.676 69.1701C488.462 69.3099 488.287 69.5022 488.167 69.7286C488.048 69.9551 487.989 70.2083 487.995 70.4641C488.001 70.7199 488.073 70.9699 488.203 71.1904C488.333 71.4108 488.517 71.5943 488.738 71.7235L494.912 75.3348C495.133 75.464 495.384 75.5346 495.639 75.5399C495.895 75.5452 496.148 75.4851 496.374 75.3651C496.601 75.2451 496.792 75.0694 496.931 74.8545C497.07 74.6397 497.152 74.3929 497.169 74.1375L497.389 70.7876C497.394 70.6707 497.386 70.5537 497.363 70.4389C509.666 75.3419 530.673 69.0933 541.039 52.2162Z" fill="#CCCCCC"/>
<path d="M536.715 23.8522C538.101 30.0287 537.063 36.5017 533.814 41.935C530.566 47.3683 525.355 51.3472 519.257 53.0504C517.866 53.4552 518.707 55.5454 520.089 55.1431C526.633 53.2361 532.214 48.9261 535.713 43.0772C539.211 37.2283 540.369 30.2732 538.954 23.6065C538.654 22.2002 536.413 22.4355 536.715 23.8522Z" fill="white"/>
<path d="M342.994 138.541C342.06 117.21 325.049 100.63 310.55 101.265C296.052 101.9 280.556 119.904 281.49 141.234C282.355 160.978 297.64 176.612 310.738 178.356C310.602 178.488 310.493 178.644 310.416 178.817L309.113 181.911C309.014 182.147 308.977 182.404 309.005 182.659C309.033 182.913 309.126 183.156 309.274 183.364C309.423 183.573 309.622 183.74 309.853 183.85C310.084 183.959 310.34 184.008 310.595 183.992L317.733 183.525C317.988 183.509 318.235 183.427 318.45 183.288C318.665 183.149 318.841 182.958 318.961 182.732C319.081 182.506 319.142 182.253 319.136 181.997C319.131 181.741 319.061 181.491 318.932 181.27L317.237 178.371C317.176 178.272 317.103 178.18 317.021 178.097C329.959 175.269 343.861 158.327 342.994 138.541Z" fill="#6C63FF"/>
<path d="M323.522 117.466C328.13 121.806 330.897 127.75 331.249 134.07C331.602 140.39 329.514 146.605 325.417 151.431C324.491 152.545 326.359 153.805 327.278 152.698C331.631 147.454 333.84 140.758 333.462 133.953C333.084 127.148 330.146 120.738 325.239 116.008C324.203 115.011 322.478 116.461 323.522 117.466Z" fill="white"/>
<path d="M409.472 280.044C403.884 279.692 398.458 278.021 393.64 275.168C388.822 272.314 384.749 268.36 381.755 263.629C380.916 262.287 379.821 260.813 380.402 259.162C380.604 258.529 381.015 257.984 381.568 257.615C382.121 257.246 382.782 257.075 383.444 257.13C385.157 257.339 386.262 259.014 386.473 260.619C386.713 262.44 385.428 263.869 383.842 264.546C379.966 266.199 376.055 263.644 372.898 261.605C365.704 256.959 357.791 252.758 349.074 252.228C341.008 251.739 332.359 254.901 327.873 261.894C327.088 263.117 329.037 264.248 329.818 263.03C334.267 256.095 343.261 253.604 351.082 254.676C355.742 255.411 360.242 256.939 364.387 259.192C366.537 260.308 368.621 261.544 370.664 262.844C372.608 264.2 374.668 265.381 376.82 266.373C380.41 267.847 385.162 267.732 387.67 264.337C390.009 261.17 388.201 255.898 384.289 255.007C383.43 254.838 382.544 254.885 381.708 255.143C380.872 255.4 380.113 255.862 379.499 256.485C378.885 257.108 378.436 257.874 378.191 258.714C377.946 259.553 377.913 260.441 378.095 261.296C378.486 263.161 379.89 264.986 380.978 266.511C384.244 271.105 388.5 274.909 393.431 277.64C398.363 280.372 403.844 281.963 409.472 282.296C410.921 282.368 410.917 280.116 409.472 280.044Z" fill="#CCCCCC"/>
<path d="M625.778 124.888C631.945 122.019 639.516 121.079 645.79 123.744C652.065 126.41 656.342 133.241 654.313 139.287C653.393 142.028 651.298 144.724 652.115 147.492C652.743 149.623 654.935 151.03 657.087 152.03C659.239 153.031 661.594 153.872 663.15 155.559C664.707 157.246 665.031 160.151 663.087 161.459C662.446 161.89 661.646 162.094 661.024 162.549C660.495 162.979 660.113 163.563 659.932 164.221C659.75 164.878 659.779 165.576 660.013 166.217C660.53 167.506 661.386 168.631 662.49 169.475C664.697 171.378 667.614 173.557 666.929 176.259C666.675 176.981 666.25 177.631 665.691 178.154C665.132 178.677 664.454 179.057 663.717 179.263C662.185 179.705 660.596 179.914 659.002 179.885L593.865 181.937C591.715 182.098 589.553 181.978 587.434 181.578C586.404 181.39 585.424 180.992 584.555 180.408C583.686 179.824 582.947 179.067 582.383 178.185C581.136 175.877 581.955 173.033 583.495 170.877C585.036 168.722 587.216 167.021 589.017 165.042C590.819 163.063 592.293 160.592 591.975 158.033C591.721 155.985 590.37 154.215 589.4 152.355C588.431 150.494 587.867 148.169 589.123 146.457C590.893 144.045 595.142 144.263 597.154 142.015C598.673 140.319 598.38 137.877 598.53 135.689C598.894 130.428 602.537 125.459 607.723 123.151C610.361 122.019 613.229 121.53 616.093 121.725C618.956 121.92 621.732 122.793 624.191 124.272L625.778 124.888Z" fill="#2F2E41"/>
<path d="M705.103 385.27V395.921L664.016 400.989L664.017 385.269L705.103 385.27Z" fill="#9E616A"/>
<path d="M715.429 382.555L715.428 416.897H714.994C711.448 416.897 708.048 415.488 705.541 412.981C703.034 410.475 701.625 407.075 701.625 403.53V403.529L701.626 382.554L715.429 382.555Z" fill="#2F2E41"/>
<path d="M654.311 403.388L651.696 413.712L610.622 408.54L614.482 393.302L654.311 403.388Z" fill="#9E616A"/>
<path d="M664.988 403.289L656.555 436.58L656.134 436.474C652.697 435.603 649.747 433.404 647.932 430.358C646.117 427.313 645.586 423.671 646.456 420.235L651.607 399.901L664.988 403.289Z" fill="#2F2E41"/>
<path d="M643.821 283.947L646.04 286.258C646.04 286.258 660.517 297.608 649.806 327.506L632.285 377.972L691.011 380.262L689.753 403.322C689.753 403.322 604.588 408.059 605.333 394.025C606.078 379.992 609.22 328.031 609.22 328.031L591.526 313.824L595.793 289.794L643.821 283.947Z" fill="#2F2E41"/>
<path d="M598.33 306.849L591.527 313.824L568.716 376.517C568.716 376.517 565.241 392.154 573.061 395.629C580.881 399.104 631.197 418.543 631.197 418.543L636.335 400.054L597.565 376.787L615.636 353.061L618.355 315.665L598.33 306.849Z" fill="#2F2E41"/>
<path d="M598.692 196.251L656.59 184.676L657.848 216.437L642.851 248.398L646.039 286.258L594.15 295.323L595.775 245.54C595.775 245.54 581.84 225.884 590.049 206.073L598.692 196.251Z" fill="#E4E4E4"/>
<path d="M727.795 120.909C728.086 122.242 728.08 123.622 727.779 124.953C727.477 126.284 726.888 127.532 726.052 128.611C725.216 129.689 724.154 130.571 722.94 131.194C721.726 131.818 720.39 132.168 719.027 132.219L663.506 196.591L650.598 180.928L709.232 122.577C709.297 120.281 710.203 118.089 711.777 116.416C713.351 114.742 715.484 113.705 717.772 113.499C720.061 113.293 722.345 113.934 724.192 115.3C726.039 116.665 727.321 118.661 727.795 120.909Z" fill="#9E616A"/>
<path d="M675.594 189.567C675.607 190.168 675.491 190.765 675.252 191.317C675.013 191.869 674.658 192.363 674.211 192.765L658.599 206.817C656.64 209.189 653.819 210.687 650.757 210.983C647.694 211.279 644.639 210.348 642.262 208.396C639.884 206.443 638.378 203.628 638.073 200.567C637.768 197.505 638.69 194.448 640.635 192.065L651.533 174.03C651.844 173.516 652.262 173.074 652.759 172.736C653.256 172.397 653.821 172.17 654.414 172.069C655.007 171.968 655.614 171.996 656.195 172.152C656.776 172.307 657.317 172.585 657.781 172.968L674.076 186.43C674.54 186.813 674.915 187.292 675.178 187.833C675.44 188.374 675.582 188.966 675.594 189.567Z" fill="#E4E4E4"/>
<path d="M507.908 272.187C507.821 270.825 508.034 269.461 508.532 268.191C509.029 266.92 509.799 265.774 510.788 264.834C511.776 263.893 512.959 263.18 514.252 262.746C515.546 262.312 516.919 262.166 518.275 262.32L582.827 207.007L593.239 224.429L526.512 273.322C526.103 275.583 524.878 277.614 523.071 279.033C521.264 280.451 518.999 281.157 516.706 281.017C514.413 280.877 512.25 279.901 510.629 278.273C509.007 276.646 508.039 274.48 507.908 272.187Z" fill="#9E616A"/>
<path d="M569.822 212.138C569.899 211.541 570.104 210.969 570.423 210.459C570.742 209.949 571.167 209.514 571.669 209.183L589.213 197.632C591.506 195.581 594.52 194.523 597.592 194.69C600.665 194.857 603.546 196.235 605.604 198.522C607.661 200.81 608.728 203.819 608.57 206.892C608.412 209.964 607.042 212.849 604.76 214.913L591.279 231.109C590.894 231.571 590.415 231.945 589.872 232.205C589.33 232.465 588.738 232.605 588.137 232.615C587.535 232.626 586.939 232.507 586.388 232.266C585.836 232.026 585.344 231.669 584.943 231.221L570.852 215.467C570.451 215.019 570.151 214.489 569.973 213.915C569.796 213.34 569.744 212.734 569.822 212.138Z" fill="#E4E4E4"/>
<path d="M623.368 181.432C635.154 181.432 644.709 171.879 644.709 160.095C644.709 148.31 635.154 138.757 623.368 138.757C611.582 138.757 602.028 148.31 602.028 160.095C602.028 171.879 611.582 181.432 623.368 181.432Z" fill="#9E616A"/>
<path d="M645.201 157.061C638.461 156.52 632.866 149.789 633.567 143.065C633.646 145.836 632.703 148.54 630.918 150.662C629.133 152.783 626.631 154.175 623.886 154.572C620.795 154.913 617.406 153.978 614.715 155.537C611.735 157.264 610.781 161.458 607.676 162.95C604.677 164.391 600.866 162.425 599.384 159.446C597.902 156.466 598.266 152.887 599.248 149.707C600.649 145.173 603.199 141.078 606.652 137.821C610.104 134.565 614.341 132.257 618.949 131.122C623.558 129.987 628.382 130.064 632.952 131.346C637.522 132.627 641.682 135.069 645.029 138.435C647.862 141.285 650.113 144.917 650.477 148.919C650.842 152.921 648.986 157.264 645.391 159.062L645.201 157.061Z" fill="#2F2E41"/>
<path d="M331.91 569.814H0.868875C0.638435 569.814 0.417446 569.722 0.2545 569.559C0.0915545 569.396 0 569.175 0 568.945C0 568.715 0.0915545 568.494 0.2545 568.331C0.417446 568.168 0.638435 568.076 0.868875 568.076H331.91C332.141 568.076 332.362 568.168 332.525 568.331C332.688 568.494 332.779 568.715 332.779 568.945C332.779 569.175 332.688 569.396 332.525 569.559C332.362 569.722 332.141 569.814 331.91 569.814Z" fill="#CACACA"/>
</g>
<defs>
<clipPath id="clip0_1_12146">
<rect width="728" height="572" fill="white"/>
</clipPath>
</defs>
</svg>
