<svg width="814" height="857" viewBox="0 0 814 857" fill="none" xmlns="http://www.w3.org/2000/svg">
<path fill-rule="evenodd" clip-rule="evenodd" d="M-24.7148 856.817C58.9393 860.66 122.967 790.659 181.438 730.71C238.901 671.796 304.972 606.662 299.355 524.557C293.904 444.863 217.491 394.609 155.041 344.801C101.879 302.402 43.1823 262.38 -24.7148 266.094C-89.8463 269.657 -142.383 314.789 -185.824 363.448C-226.328 408.818 -250.782 463.917 -255.46 524.557C-260.6 591.179 -250.874 657.717 -212.759 712.601C-165.918 780.049 -106.747 853.048 -24.7148 856.817Z" fill="#FFEDFA"/>
<path fill-rule="evenodd" clip-rule="evenodd" d="M489.016 354.963C572.67 358.806 636.698 288.805 695.169 228.856C752.631 169.942 818.702 104.808 813.086 22.7027C807.634 -56.9908 731.221 -107.245 668.771 -157.053C615.61 -199.452 556.913 -239.474 489.016 -235.76C423.884 -232.197 371.348 -187.065 327.907 -138.406C287.402 -93.0362 262.948 -37.9368 258.27 22.7027C253.13 89.3251 262.856 155.863 300.972 210.747C347.813 278.195 406.984 351.194 489.016 354.963Z" fill="#EDF3FF"/>
</svg>
