<svg width="602" height="446" viewBox="0 0 602 446" fill="none" xmlns="http://www.w3.org/2000/svg">
<rect width="602" height="446" rx="12" fill="#FE0000" fill-opacity="0.22"/>
<g clip-path="url(#clip0_1085_9565)">
<path d="M178.213 369.834L184.636 369.833L187.691 345.038L178.212 345.038L178.213 369.834Z" fill="#9E616A"/>
<path d="M176.575 367.735L178.382 367.735L185.44 364.862L189.222 367.734C191.36 367.734 193.411 368.584 194.922 370.097C196.434 371.61 197.283 373.662 197.283 375.802V376.064L176.575 376.065L176.575 367.735Z" fill="#2F2E41"/>
<path d="M208.05 369.834L214.472 369.833L217.527 345.038L208.048 345.038L208.05 369.834Z" fill="#9E616A"/>
<path d="M206.411 367.735L208.219 367.735L215.276 364.862L219.059 367.734C221.196 367.734 223.247 368.584 224.759 370.097C226.27 371.61 227.119 373.662 227.119 375.802V376.064L206.412 376.065L206.411 367.735Z" fill="#2F2E41"/>
<path d="M213.183 234.139L162.724 235.457L163.602 260.052C163.602 260.052 162.724 266.64 164.479 268.397C166.234 270.154 167.112 270.154 166.234 273.228C165.357 276.303 169.993 281.324 169.43 281.888C168.867 282.452 167.551 285.526 167.551 285.526L171.938 310.56C171.938 310.56 175.01 354.041 175.887 354.92C176.765 355.798 177.642 354.92 176.765 357.116C175.887 359.312 175.01 358.433 175.887 359.312C176.665 360.151 177.397 361.03 178.081 361.947H188.689C188.689 361.947 189.489 357.555 189.489 357.116C189.489 356.677 190.367 354.041 190.367 353.602C190.367 353.163 189.591 352.387 189.591 352.387C189.323 351.494 189.142 350.577 189.051 349.649C189.051 348.771 186.418 314.952 186.418 314.952L191.683 271.032L204.408 314.074C204.408 314.074 204.408 351.845 205.285 352.724C206.163 353.602 206.163 353.163 205.724 354.92C205.285 356.677 203.53 356.237 204.846 357.555C206.163 358.873 206.601 356.677 206.163 358.873L205.724 361.069L218.887 361.257C218.887 361.257 220.642 357.555 219.765 356.237C218.887 354.92 218.94 355.279 220.01 353.123C221.081 350.967 221.52 350.528 221.081 350.089C220.642 349.649 220.642 347.313 220.642 347.313L218.448 305.29C218.448 305.29 218.01 260.931 218.01 259.613C217.976 258.935 218.101 258.259 218.374 257.637V255.849L216.693 249.511L213.183 234.139Z" fill="#2F2E41"/>
<path d="M270.287 138.348C270.045 139.023 269.657 139.636 269.152 140.145C268.648 140.654 268.037 141.045 267.365 141.292C266.693 141.539 265.974 141.636 265.26 141.575C264.547 141.514 263.855 141.297 263.234 140.94L241.331 159.308L240.141 150.329L261.564 133.914C262.233 132.909 263.247 132.186 264.413 131.879C265.58 131.573 266.818 131.706 267.893 132.253C268.968 132.799 269.806 133.722 270.247 134.845C270.688 135.969 270.703 137.215 270.287 138.348Z" fill="#9E616A"/>
<path d="M173.706 145.929C181.219 145.929 187.308 139.833 187.308 132.314C187.308 124.794 181.219 118.699 173.706 118.699C166.194 118.699 160.104 124.794 160.104 132.314C160.104 139.833 166.194 145.929 173.706 145.929Z" fill="#9E616A"/>
<path d="M184.733 118.764C183.467 115.743 178.04 113.949 169.453 114.219C160.865 114.489 159.361 124.74 159.361 124.74C154.632 129.153 162.268 142.931 163.593 141.031C164.918 139.131 167.142 140.927 167.142 140.927L165.022 128.992C167.261 129.854 169.668 130.433 171.774 129.428L168.285 127.561C171.177 127.921 174.068 128.281 176.959 128.642L173.382 125.887C173.469 125.858 173.556 125.828 173.642 125.799C175.077 126.418 176.613 126.767 178.174 126.829C179.998 126.816 181.936 125.96 182.7 124.302C182.904 123.847 183.014 123.356 183.024 122.858C185.539 123.675 186.859 126.623 186.859 126.623C186.382 123.946 185.67 121.316 184.733 118.764Z" fill="#2F2E41"/>
<path d="M184.594 146.538C181.556 146.538 179.6 146.958 174.874 147.754C166.15 149.226 171.375 157.523 171.375 157.523C171.375 157.523 171.769 157.322 170.7 157.523C169.631 157.724 165.986 160.88 165.986 160.88L159.467 166.675C149.644 174.392 151.843 186.432 151.843 186.432L166.168 200.863L159.893 229.814C159.893 229.814 162.56 234.114 161.181 236.041C159.801 237.969 173.331 237.416 173.331 237.416C182.668 241.581 215.565 238.06 215.565 238.06C215.109 236.868 210.705 227.631 210.705 227.631C212.618 224.323 210.796 219.543 210.796 219.543C210.796 219.543 208.894 196.934 207.679 193.809C206.464 190.683 210.79 173.747 213.633 173.93C216.476 174.112 234.841 164.735 234.841 164.735C234.841 164.735 234.379 163.999 240.442 161.518C243.925 160.149 247.117 158.133 249.853 155.577L252.343 150.597C251.147 151.059 247.107 143.433 247.107 143.433L245.345 144.106L244.324 143.81C244.324 143.81 236.36 146.079 234.732 147.733C233.104 149.387 232.557 148.925 231.087 149.295C229.616 149.666 229.434 150.7 228.972 150.585C228.511 150.469 227.691 151.868 227.047 151.685C226.403 151.503 225.024 152.239 224.106 152.421C223.189 152.604 216.67 155.364 216.67 155.364C212.637 153.321 201.701 154.148 201.701 154.148C201.701 154.148 198.123 152.038 197.109 154.148C196.836 154.748 196.397 155.257 195.845 155.615C195.293 155.974 194.65 156.168 193.992 156.173L189.63 154.306C189.377 155.232 184.619 145.578 184.594 146.538Z" fill="#6C63FF"/>
<path d="M163.769 259.848C163.293 259.312 162.939 258.679 162.734 257.992C162.528 257.305 162.476 256.581 162.58 255.872C162.685 255.163 162.943 254.485 163.337 253.886C163.732 253.288 164.252 252.783 164.862 252.407L158.683 228.09L167.132 231.331L171.827 254.294C172.389 255.362 172.541 256.599 172.252 257.771C171.964 258.943 171.256 259.969 170.263 260.654C169.269 261.338 168.06 261.634 166.863 261.486C165.666 261.337 164.565 260.754 163.769 259.848Z" fill="#9E616A"/>
<path d="M152.396 181.808L151.633 191.519C151.633 191.519 150.684 202.187 150.933 204.159C151.181 206.132 151.644 218.179 151.644 218.179L159.686 234.105L168.799 231.673L168.253 224.202L168.799 231.064L170.014 224.983L166.976 214.646L168.799 210.997L167.88 198.749L152.396 181.808Z" fill="#6C63FF"/>
<path d="M368.148 159.113L371.156 159.758C371.176 158.499 371.333 157.245 371.624 156.019C371.898 157.52 372.474 158.95 373.318 160.22L390.573 163.909L407.138 146.409C407.164 137.66 402.31 131.01 393.606 131.01C393.082 131.01 392.538 131.036 391.988 131.086C387.286 130.299 382.462 131.368 378.531 134.069C374.601 136.77 371.871 140.892 370.916 145.568C364.747 151.648 366.985 155.222 368.148 159.113Z" fill="#2F2E41"/>
<path d="M359.664 363.761H353.406L350.428 339.596H359.665L359.664 363.761Z" fill="#FFB6B6"/>
<path d="M362.464 375.657H358.023L357.23 371.46L355.2 375.657H343.421C342.856 375.657 342.306 375.477 341.852 375.142C341.397 374.807 341.061 374.335 340.893 373.796C340.725 373.256 340.734 372.677 340.918 372.143C341.102 371.608 341.452 371.147 341.916 370.826L351.323 364.323V360.08L361.217 360.671L362.464 375.657Z" fill="#2F2E41"/>
<path d="M432.99 356.942L427.546 360.033L413.043 340.487L421.077 335.924L432.99 356.942Z" fill="#FFB6B6"/>
<path d="M441.29 365.905L437.427 368.099L434.669 364.84L434.972 369.494L424.727 375.312C424.236 375.591 423.669 375.706 423.108 375.639C422.547 375.573 422.023 375.328 421.611 374.942C421.198 374.556 420.92 374.048 420.817 373.492C420.714 372.936 420.791 372.362 421.037 371.853L426.012 361.551L423.92 357.861L432.817 353.487L441.29 365.905Z" fill="#2F2E41"/>
<path d="M336.53 163.347C337.332 163.463 338.098 163.754 338.776 164.199C339.454 164.644 340.026 165.232 340.452 165.922C340.878 166.612 341.147 167.387 341.241 168.193C341.336 168.998 341.252 169.815 340.997 170.585L350.575 178.883L346.957 185.938L333.596 174.03C332.332 173.515 331.301 172.555 330.698 171.33C330.094 170.105 329.961 168.701 330.322 167.384C330.684 166.067 331.516 164.929 332.66 164.185C333.804 163.441 335.181 163.143 336.53 163.347Z" fill="#FFB6B6"/>
<path d="M344.809 189.172L338.403 178.971L345.525 171.682L350.584 177.844L356.85 180.642L365.45 185.887C367.16 183.872 380.337 168.72 386.216 173.083C386.922 173.564 387.516 174.193 387.956 174.926C388.396 175.659 388.672 176.479 388.765 177.329C389.181 181.385 385.549 185.512 385.411 185.664L377.644 196.152C377.403 196.811 374.833 203.602 370.822 205.429C370.253 205.702 369.633 205.854 369.002 205.874C368.371 205.895 367.742 205.784 367.156 205.549C356.529 201.402 349.369 196.725 346.174 191.881C345.609 191.038 345.15 190.128 344.809 189.172Z" fill="#2F2E41"/>
<path d="M368.511 210.463C368.511 210.463 350.108 239.806 353.442 243.143C356.777 246.48 361.965 247.357 361.965 247.357L373.447 232.464L368.511 210.463Z" fill="#2F2E41"/>
<path d="M384.783 170.389L376.109 176.262C372.078 178.992 369.046 182.963 367.473 187.574C365.9 192.184 365.872 197.182 367.393 201.81L369.834 209.24L384.783 170.389Z" fill="#2F2E41"/>
<path d="M400.12 250.485L401.279 254.528L405.236 303.28L425.004 340.158L415.569 346.904L388.612 311.825L377.95 276.994L361.206 354.099L348.626 353.2L357.363 246.295L373.942 216.204L400.12 250.485Z" fill="#2F2E41"/>
<path d="M386.258 171.866L374.186 181.741C371.537 183.909 369.629 186.849 368.729 190.154C368.32 191.654 368.126 193.205 368.152 194.76L368.511 216.204L357.443 245.813C357.443 245.813 387.45 257.16 391.451 247.148C395.452 237.136 386.258 171.866 386.258 171.866Z" fill="#6C63FF"/>
<path d="M369.446 237.136L367.445 229.126L367.934 209.197C367.973 208.039 374.139 190.016 381.911 170.872L388.596 164.18L392.201 161.833L400.135 169.163C400.135 169.163 399.126 189.228 399.452 209.77C399.543 215.453 398.545 222.09 398.119 227.124L401.764 243.337V252.362L401.527 252.41C401.29 252.458 397.637 252.345 382.647 252.345C370.227 252.345 378.495 243.53 369.446 237.136Z" fill="#2F2E41"/>
<path opacity="0.2" d="M396.771 187.058L398.595 198.443L386.257 203.537L396.771 187.058Z" fill="black"/>
<path d="M384.344 159.697C391.015 159.697 396.423 154.284 396.423 147.606C396.423 140.929 391.015 135.516 384.344 135.516C377.673 135.516 372.266 140.929 372.266 147.606C372.266 154.284 377.673 159.697 384.344 159.697Z" fill="#FFB6B6"/>
<path opacity="0.2" d="M404.583 208.951C401.368 212.677 397.008 215.228 392.187 216.203C387.366 217.179 382.359 216.523 377.951 214.339L375.322 213.037L404.583 208.951Z" fill="black"/>
<path d="M362.553 206.168C363.092 205.562 363.757 205.082 364.501 204.761C365.245 204.44 366.051 204.286 366.861 204.311C367.671 204.335 368.465 204.537 369.189 204.902C369.913 205.268 370.547 205.787 371.049 206.425L383.244 202.998L387.132 209.908L369.842 214.505C368.717 215.277 367.347 215.609 365.994 215.438C364.64 215.267 363.396 214.605 362.498 213.577C361.599 212.55 361.109 211.228 361.119 209.862C361.129 208.496 361.639 207.182 362.553 206.168Z" fill="#FFB6B6"/>
<path d="M388.644 213.485L376.61 213.214L374.459 203.248L382.383 202.418L388.169 198.726L397.28 194.433C396.543 191.895 391.173 172.538 398.05 170.031C398.841 169.707 399.692 169.558 400.546 169.595C401.399 169.631 402.235 169.852 402.995 170.242C406.606 172.131 408.044 177.438 408.095 177.638L412.558 189.905C412.974 190.469 417.219 196.359 416.532 200.715C416.446 201.341 416.231 201.942 415.9 202.481C415.569 203.019 415.131 203.483 414.612 203.843C405.299 210.434 397.453 213.837 391.655 213.837C390.641 213.844 389.63 213.726 388.644 213.485Z" fill="#2F2E41"/>
<path d="M369.86 139.653C370.827 140.911 374.158 142.025 378.115 142.923C378.109 142.841 378.108 142.759 378.108 142.677C378.128 141.417 378.285 140.163 378.576 138.938C378.85 140.439 379.426 141.868 380.27 143.138C380.333 143.233 380.396 143.328 380.466 143.423C383.86 144.094 387.45 144.613 390.263 144.961C388.329 151.932 380.915 157.652 381.717 161.891L403.441 166.332C403.307 164.57 403.448 162.799 403.858 161.081C404.273 163.348 405.372 165.434 407.005 167.059L408.851 167.439L409.401 164.725C414.167 153.267 407.524 141.538 396.64 135.471C394.7 132.559 391.686 130.534 388.259 129.84L385.548 129.283C383.837 128.933 382.075 128.923 380.361 129.255C378.647 129.586 377.015 130.253 375.558 131.216C374.102 132.178 372.849 133.419 371.871 134.867C370.893 136.314 370.21 137.941 369.86 139.653Z" fill="#2F2E41"/>
<path d="M103.382 360.943L103.09 354.356C100.039 352.724 96.6361 351.862 93.1768 351.844C97.9378 355.741 97.3428 363.251 100.571 368.491C101.59 370.118 102.962 371.494 104.585 372.517C106.207 373.541 108.039 374.186 109.945 374.404L113.929 376.846C114.476 373.795 114.355 370.662 113.576 367.663C112.796 364.663 111.377 361.868 109.414 359.471C108.3 358.137 107.022 356.948 105.611 355.934C104.657 358.452 103.382 360.943 103.382 360.943Z" fill="#F2F2F2"/>
<path d="M93.7232 377H508.276C508.468 376.999 508.651 376.923 508.787 376.787C508.922 376.651 508.998 376.467 508.998 376.276C508.998 376.084 508.922 375.9 508.787 375.765C508.651 375.629 508.468 375.552 508.276 375.552H93.7232C93.5317 375.552 93.3483 375.629 93.2131 375.765C93.0779 375.9 93.002 376.084 93.002 376.276C93.002 376.467 93.0779 376.651 93.2131 376.787C93.3483 376.923 93.5317 376.999 93.7232 377Z" fill="#CACACA"/>
<path d="M318.617 110.384C320.12 116.994 320.835 124.487 316.826 130.403C315.122 132.94 312.621 134.836 309.719 135.791C306.782 136.663 303.685 136.854 300.663 136.348C293.825 135.4 287.748 131.835 281.024 130.451C278.056 129.84 274.906 129.638 272.05 130.813C269.909 131.694 267.655 133.465 267.644 135.991C267.634 138.585 269.885 140.307 272.123 141.105C275.11 142.169 278.214 141.757 281.312 141.623C284.649 141.478 288.051 141.78 290.823 143.826C293.207 145.688 295.036 148.17 296.109 151C297.503 154.385 298.068 158.024 298.959 161.555C299.755 164.73 300.882 167.813 302.32 170.753C305.142 176.516 309.098 181.648 313.95 185.843C316.343 187.904 319.251 190.005 322.519 190.194C325.04 190.339 328.105 189.279 329.076 186.723C329.437 185.62 329.402 184.425 328.976 183.344C328.551 182.264 327.762 181.367 326.746 180.807C324.585 179.716 322.232 181.272 321.535 183.409C321.352 183.901 321.288 184.43 321.348 184.952C321.408 185.474 321.591 185.975 321.881 186.412C322.536 187.39 320.958 188.304 320.308 187.333C318.797 185.078 319.586 182.045 321.437 180.239C322.339 179.318 323.546 178.757 324.832 178.661C326.117 178.565 327.393 178.941 328.423 179.718C329.492 180.533 330.3 181.642 330.748 182.911C331.196 184.179 331.265 185.55 330.946 186.857C330.168 189.664 327.412 191.45 324.66 191.892C321.262 192.439 317.991 191.102 315.248 189.17C312.496 187.181 309.993 184.867 307.794 182.278C303.325 177.133 299.965 171.119 297.925 164.614C295.919 158.179 295.773 149.679 289.812 145.334C286.745 143.097 282.986 143.346 279.39 143.551C276.216 143.732 273.119 143.699 270.206 142.26C267.802 141.073 265.862 138.88 265.821 136.087C265.781 133.267 267.781 130.999 270.138 129.715C276.363 126.321 283.84 129.058 289.956 131.325C296.106 133.606 303.129 136.282 309.665 133.882C312.682 132.709 315.111 130.386 316.42 127.423C318.002 124.063 318.228 120.25 317.862 116.604C317.646 114.673 317.312 112.758 316.86 110.869C316.6 109.726 318.357 109.238 318.617 110.384Z" fill="#3F3D56"/>
<path d="M307.446 91.8414C309.248 97.8646 311.965 103.575 315.502 108.771C316.377 110.048 317.296 111.293 318.26 112.505C319.009 111.142 319.917 109.872 320.963 108.722C324.639 104.678 329.566 102.033 334.347 99.3819C339.128 96.7306 343.982 93.8847 347.36 89.5854C348.875 87.65 349.961 85.413 350.543 83.024C351.308 79.7828 351.017 76.4017 349.127 73.6957C346.382 69.7612 340.908 68.3748 336.254 69.5119C331.595 70.6491 327.695 73.8902 324.669 77.6118C325.659 73.0389 320.842 68.6241 316.182 69.0254C311.523 69.4329 307.786 73.5071 306.547 78.0193C305.302 82.5253 306.11 87.3536 307.446 91.8414Z" fill="#FF4949"/>
<g opacity="0.2">
<path d="M315.501 108.771C316.376 110.048 317.296 111.293 318.26 112.505C319.009 111.142 319.916 109.872 320.963 108.722C324.638 104.678 329.565 102.033 334.346 99.3819C339.128 96.7306 343.981 93.8846 347.359 89.5853C348.875 87.65 349.96 85.413 350.543 83.0239C339.795 84.5154 329.919 89.7598 322.658 97.8312C319.751 101.108 317.34 104.794 315.501 108.771Z" fill="black"/>
</g>
</g>
<defs>
<clipPath id="clip0_1085_9565">
<rect width="416" height="308" fill="white" transform="translate(93 69)"/>
</clipPath>
</defs>
</svg>
