<svg width="303" height="250" viewBox="0 0 303 250" fill="none" xmlns="http://www.w3.org/2000/svg">
<circle cx="163.088" cy="124.82" r="74.1293" fill="#26C4BB"/>
<circle cx="163.088" cy="124.82" r="57.6561" fill="#49DBD2"/>
<path d="M156.411 145.608C155.319 145.608 154.282 145.172 153.518 144.407L138.066 128.956C136.483 127.372 136.483 124.752 138.066 123.168C139.65 121.585 142.27 121.585 143.854 123.168L156.411 135.726L184.475 107.662C186.058 106.079 188.679 106.079 190.262 107.662C191.846 109.246 191.846 111.866 190.262 113.45L159.305 144.407C158.541 145.172 157.503 145.608 156.411 145.608Z" fill="#FBFFFD"/>
<circle cx="6" cy="6" r="6" transform="matrix(0.75627 0.654259 0.654259 -0.75627 227.894 19.2538)" fill="#009891"/>
<circle cx="10.5" cy="10.5" r="10.5" transform="matrix(0.75627 0.654259 0.654259 -0.75627 240.075 35.7422)" fill="#FFC942"/>
<circle cx="7.98251" cy="7.98251" r="7.98251" transform="matrix(0.75627 0.654259 0.654259 -0.75627 258.041 19.3572)" fill="#FF0000"/>
<circle cx="18.5323" cy="18.5323" r="18.5323" transform="matrix(0.707874 0.706338 0.706338 -0.707874 2.67114 92.0748)" fill="#FFC942"/>
<circle cx="11.1194" cy="11.1194" r="11.1194" transform="matrix(0.707874 0.706338 0.706338 -0.707874 0 47.5235)" fill="#FFBEB6"/>
<circle cx="4.63308" cy="4.63308" r="4.63308" transform="matrix(0.707874 0.706338 0.706338 -0.707874 39.2871 23.892)" fill="#7EFFFF"/>
<circle cx="6" cy="6" r="6" transform="matrix(0.415171 -0.909744 -0.909744 -0.415171 62.761 218.069)" fill="#EF4A50"/>
<circle cx="6" cy="6" r="6" transform="matrix(0.415171 -0.909744 -0.909744 -0.415171 78.2268 225.127)" fill="#868686"/>
<circle cx="4.63308" cy="4.63308" r="4.63308" transform="matrix(0.99871 0.0507731 0.0507731 -0.99871 77.3652 249.311)" fill="#7EFFFF"/>
<circle cx="11.1194" cy="11.1194" r="11.1194" transform="matrix(0.707874 0.706338 0.706338 -0.707874 49.8057 55.3309)" fill="#FFB328"/>
<circle cx="6" cy="6" r="6" transform="matrix(0.620678 -0.784066 -0.784066 -0.620678 239.773 212.995)" fill="#FFB328"/>
<circle cx="10" cy="10" r="10" transform="matrix(0.620678 -0.784066 -0.784066 -0.620678 255.323 199.796)" fill="#EF4A50"/>
</svg>
