<svg width="202" height="101" viewBox="0 0 202 101" fill="none" xmlns="http://www.w3.org/2000/svg">
<g clip-path="url(#clip0_95_9024)">
<path d="M21.4883 32.5431C16.5512 32.5508 11.7689 34.2597 7.95278 37.3799V10.7522C7.8871 9.75304 7.44229 8.81619 6.70862 8.13168C5.97495 7.44717 5.00738 7.06628 4.00213 7.06628C2.99688 7.06628 2.02926 7.44717 1.29559 8.13168C0.561923 8.81619 0.117107 9.75304 0.0514276 10.7522V71.423C0.0160338 71.9614 0.0919635 72.5014 0.274485 73.0094C0.457007 73.5174 0.742231 73.9827 1.11255 74.3765C1.48287 74.7703 1.93044 75.0843 2.42746 75.2989C2.92448 75.5135 3.46042 75.6243 4.00213 75.6243C4.54384 75.6243 5.07979 75.5135 5.5768 75.2989C6.07382 75.0843 6.52134 74.7703 6.89166 74.3765C7.26198 73.9827 7.5472 73.5174 7.72972 73.0094C7.91225 72.5014 7.98818 71.9614 7.95278 71.423V53.9633C7.98389 52.185 8.36631 50.4303 9.07824 48.7992C9.79018 47.1681 10.8177 45.6927 12.1021 44.4572C13.3864 43.2216 14.9026 42.2502 16.5638 41.5983C18.2251 40.9464 19.999 40.6269 21.7843 40.6578C23.5696 40.6888 25.3313 41.0697 26.9688 41.7789C28.6062 42.488 30.0874 43.5115 31.3278 44.7909C32.5682 46.0702 33.5435 47.5804 34.1979 49.2351C34.8524 50.8899 35.1733 52.6569 35.1422 54.4351V71.423C35.1068 71.9614 35.1827 72.5014 35.3652 73.0094C35.5477 73.5174 35.833 73.9827 36.2033 74.3765C36.5736 74.7703 37.0211 75.0843 37.5182 75.2989C38.0152 75.5135 38.5511 75.6243 39.0928 75.6243C39.6345 75.6243 40.1705 75.5135 40.6675 75.2989C41.1645 75.0843 41.612 74.7703 41.9824 74.3765C42.3527 73.9827 42.638 73.5174 42.8205 73.0094C43.003 72.5014 43.0789 71.9614 43.0435 71.423V53.0027C42.8029 47.4782 40.4236 42.2613 36.4046 38.4466C32.3857 34.632 27.0396 32.5161 21.4883 32.5431Z" fill="#FD8C47"/>
<path d="M84.6983 32.5431C83.6512 32.5475 82.6486 32.965 81.9098 33.7041C81.1709 34.4432 80.7561 35.4437 80.7561 36.4867V53.9632C80.7561 57.539 79.3301 60.9683 76.7917 63.4967C74.2533 66.0252 70.8105 67.4456 67.2207 67.4456C63.6308 67.4456 60.188 66.0252 57.6496 63.4967C55.1112 60.9683 53.6852 57.539 53.6852 53.9632V36.4867C53.7206 35.9482 53.6447 35.4083 53.4621 34.9003C53.2796 34.3922 52.9944 33.9269 52.6241 33.5331C52.2538 33.1393 51.8062 32.8254 51.3092 32.6108C50.8122 32.3961 50.2763 32.2854 49.7346 32.2854C49.1928 32.2854 48.6569 32.3961 48.1599 32.6108C47.6629 32.8254 47.2153 33.1393 46.845 33.5331C46.4747 33.9269 46.1894 34.3922 46.0069 34.9003C45.8244 35.4083 45.7485 35.9482 45.7838 36.4867V53.9632C45.7898 58.0021 46.9456 61.9564 49.1171 65.3673C51.2886 68.7781 54.3868 71.5056 58.0519 73.233C61.7171 74.9605 65.7989 75.6171 69.8236 75.1267C73.8484 74.6362 77.651 73.0189 80.79 70.4623V79.5124C80.9852 83.0881 79.7463 86.5947 77.3459 89.2606C74.9456 91.9265 71.5803 93.5334 67.9905 93.7279C64.4007 93.9223 60.8803 92.6883 58.2039 90.2973C55.5275 87.9064 53.9142 84.5543 53.719 80.9786C53.6418 79.9892 53.1898 79.0661 52.4546 78.3964C51.7194 77.7267 50.7561 77.3605 49.7599 77.372C49.2165 77.3764 48.68 77.4935 48.1846 77.7161C47.6892 77.9386 47.2458 78.2616 46.8828 78.6644C46.5198 79.0672 46.2451 79.5411 46.0763 80.0556C45.9074 80.5702 45.8482 81.1141 45.9023 81.6527C46.3947 86.8744 48.8022 91.732 52.6644 95.2967C56.5266 98.8614 61.5724 100.883 66.8369 100.975C72.1014 101.066 77.2152 99.222 81.2002 95.7942C85.1852 92.3663 87.762 87.5956 88.4375 82.3943H88.6406V36.4867C88.6406 35.4437 88.2258 34.4432 87.487 33.7041C86.7481 32.965 85.7454 32.5475 84.6983 32.5431Z" fill="#FD8C47"/>
<path d="M180.157 53.3903C179.829 49.6249 178.51 46.0123 176.332 42.9171C174.154 39.8219 171.196 37.3536 167.754 35.7613C164.313 34.1689 160.511 33.5089 156.732 33.8478C152.952 34.1867 149.33 35.5125 146.229 37.6914C143.129 39.8704 140.66 42.8254 139.073 46.2583C137.485 49.6911 136.835 53.4803 137.187 57.2436C137.539 61.0069 138.882 64.6111 141.079 67.6924C143.277 70.7737 146.251 73.2232 149.702 74.7937C150.037 75.0168 150.41 75.1767 150.802 75.2655C153.246 76.2708 155.857 76.8083 158.5 76.8497H158.737C160.547 76.843 162.349 76.6109 164.101 76.1587L164.541 76.0239C166.625 75.5282 168.613 74.6971 170.429 73.5634C171.009 73.2323 171.497 72.7607 171.846 72.1921C172.195 71.6235 172.394 70.9764 172.425 70.3107C172.451 69.6058 172.288 68.9066 171.952 68.2855C171.616 67.6645 171.12 67.144 170.515 66.778C169.909 66.4121 169.216 66.2138 168.508 66.2038C167.8 66.1938 167.102 66.3723 166.486 66.7211C165.996 67.0076 165.505 67.2435 165.048 67.4795L163.356 68.103C161.883 68.6479 160.326 68.933 158.754 68.9457H157.756C157.51 68.9047 157.261 68.8766 157.012 68.8614C153.938 68.4782 151.089 67.0564 148.941 64.8335C147.558 63.419 146.502 61.7213 145.845 59.8586C145.189 57.996 144.948 56.0131 145.139 54.0481C145.33 52.0832 145.949 50.1833 146.952 48.4809C147.956 46.7784 149.32 45.3143 150.949 44.1904C152.578 43.0666 154.434 42.31 156.387 41.9734C158.34 41.6368 160.343 41.7283 162.257 42.2415C164.171 42.7546 165.949 43.6772 167.469 44.9449C168.988 46.2125 170.212 47.7948 171.055 49.5816C171.167 49.7855 171.226 50.0145 171.226 50.2473C171.226 50.48 171.167 50.709 171.055 50.9129C170.938 51.0983 170.775 51.2511 170.583 51.3572C170.391 51.4633 170.175 51.5192 169.955 51.5197H151.987C150.963 51.5197 149.982 51.9245 149.259 52.6451C148.535 53.3657 148.129 54.3431 148.129 55.3621V55.5307C148.129 56.5498 148.535 57.5271 149.259 58.2477C149.982 58.9683 150.963 59.3732 151.987 59.3732H174.709C175.454 59.3886 176.193 59.2463 176.879 58.9558C177.564 58.6653 178.18 58.2331 178.685 57.6879C179.211 57.1735 179.618 56.5513 179.878 55.8645C180.138 55.1776 180.245 54.4426 180.191 53.7105L180.157 53.3903Z" fill="#FD8C47"/>
<path d="M112.632 32.6274C106.934 32.8284 101.537 35.225 97.5794 39.3122C93.6213 43.3993 91.4111 48.8576 91.4146 54.5363V97.0901C91.4056 97.6107 91.5011 98.1277 91.6954 98.611C91.8897 99.0943 92.1789 99.5341 92.5461 99.9046C92.9133 100.275 93.3511 100.569 93.8337 100.768C94.3164 100.968 94.8342 101.07 95.3569 101.067C95.8628 101.061 96.3623 100.955 96.8269 100.755C97.2915 100.555 97.7119 100.266 98.064 99.9046C98.8485 99.1212 99.2921 98.0618 99.2991 96.9553V54.452C99.2522 50.8583 100.616 47.3885 103.1 44.7819C105.584 42.1753 108.992 40.638 112.598 40.4977C114.468 40.4518 116.327 40.797 118.056 41.5111C119.784 42.2252 121.342 43.2923 122.631 44.6436C123.916 45.944 124.915 47.4968 125.564 49.2028C126.214 50.9089 126.5 52.731 126.404 54.5531C126.324 56.7897 125.686 58.9712 124.548 60.9008C123.41 62.8305 121.808 64.4477 119.886 65.6064C117.963 66.7652 115.782 67.4292 113.538 67.5385C111.294 67.6477 109.058 67.1988 107.031 66.2323C106.569 66.0059 106.067 65.8743 105.553 65.8453C105.039 65.8163 104.524 65.8904 104.04 66.0634C103.555 66.2363 103.111 66.5045 102.732 66.852C102.354 67.1994 102.049 67.6191 101.837 68.0861C101.62 68.537 101.496 69.0263 101.47 69.5256C101.445 70.0249 101.52 70.5241 101.69 70.9945C101.86 71.4648 102.122 71.8969 102.461 72.2656C102.8 72.6342 103.209 72.9321 103.664 73.142C107.498 75.0622 111.836 75.7498 116.079 75.1099C120.321 74.4699 124.26 72.5339 127.351 69.5692C129.424 67.6711 131.091 65.3767 132.254 62.8229C133.416 60.2691 134.051 57.5082 134.119 54.7048C134.23 51.8151 133.748 48.9332 132.704 46.2351C131.659 43.5369 130.074 41.079 128.044 39.0115C126.014 36.9439 123.583 35.31 120.898 34.2095C118.213 33.109 115.331 32.565 112.428 32.6106L112.632 32.6274Z" fill="#FD8C47"/>
<path d="M193.103 67C192.691 66.9954 192.284 66.9077 191.905 66.7417C191.526 66.5758 191.183 66.3348 190.895 66.0328C190.607 65.7308 190.379 65.3735 190.226 64.9813C190.072 64.5892 189.996 64.1699 190 63.7474V5.95591C189.996 5.44102 190.09 4.93027 190.278 4.45281C190.466 3.97534 190.744 3.54052 191.096 3.17318C191.447 2.80583 191.866 2.51314 192.328 2.31185C192.79 2.11055 193.287 2.0046 193.789 2H202L196.206 63.7474C196.21 64.1699 196.134 64.5892 195.98 64.9813C195.827 65.3735 195.599 65.7308 195.311 66.0328C195.023 66.3348 194.68 66.5758 194.301 66.7417C193.922 66.9077 193.515 66.9954 193.103 67Z" fill="#FD8C47"/>
<path d="M193 77C194.657 77 196 75.6569 196 74C196 72.3431 194.657 71 193 71C191.343 71 190 72.3431 190 74C190 75.6569 191.343 77 193 77Z" fill="#FD8C47"/>
</g>
<defs>
<clipPath id="clip0_95_9024">
<rect width="202" height="101" fill="white"/>
</clipPath>
</defs>
</svg>
