<svg width="260" height="185" viewBox="0 0 260 185" fill="none" xmlns="http://www.w3.org/2000/svg">
<rect width="260" height="185" rx="17" fill="white"/>
<path d="M0 17C0 7.61116 7.61116 0 17 0H77V185H17C7.61116 185 0 177.389 0 168V17Z" fill="#D9D9D9"/>
<g filter="url(#filter0_d_826_9250)">
<circle cx="14" cy="15" r="3" fill="#FD3817"/>
</g>
<g filter="url(#filter1_d_826_9250)">
<circle cx="24" cy="15" r="3" fill="#FFF480"/>
</g>
<g filter="url(#filter2_d_826_9250)">
<circle cx="34" cy="15" r="3" fill="#009967"/>
</g>
<circle cx="15" cy="39" r="5" fill="#C2C1C2"/>
<circle cx="99" cy="21" r="7" fill="#D6D6D6"/>
<circle cx="97" cy="58" r="3" fill="#D6D6D6"/>
<circle cx="97" cy="72" r="3" fill="#D6D6D6"/>
<circle cx="97" cy="86" r="3" fill="#D6D6D6"/>
<circle cx="97" cy="96" r="3" fill="#D6D6D6"/>
<circle cx="97" cy="112" r="3" fill="#D6D6D6"/>
<circle cx="97" cy="124" r="3" fill="#D6D6D6"/>
<circle cx="97" cy="146" r="3" fill="#D6D6D6"/>
<circle cx="97" cy="158" r="3" fill="#D6D6D6"/>
<rect x="24" y="34" width="48" height="10" rx="5" fill="#C1C1C1"/>
<rect x="92" y="34" width="62" height="7" rx="3.5" fill="#D6D6D6"/>
<rect x="103" y="55" width="138" height="6" rx="3" fill="#D6D6D6"/>
<rect x="103" y="69" width="116" height="6" rx="3" fill="#D6D6D6"/>
<rect x="103" y="83" width="138" height="6" rx="3" fill="#D6D6D6"/>
<rect x="103" y="93" width="138" height="6" rx="3" fill="#D6D6D6"/>
<rect x="103" y="109" width="96" height="6" rx="3" fill="#D6D6D6"/>
<rect x="103" y="121" width="138" height="6" rx="3" fill="#D6D6D6"/>
<rect x="103" y="143" width="138" height="6" rx="3" fill="#D6D6D6"/>
<rect x="103" y="155" width="138" height="6" rx="3" fill="#D6D6D6"/>
<rect x="10" y="63" width="62" height="7" rx="3.5" fill="#C1C1C1"/>
<rect x="10" y="76" width="41" height="7" rx="3.5" fill="#C1C1C1"/>
<rect x="10" y="106" width="62" height="7" rx="3.5" fill="#C1C1C1"/>
<rect x="10" y="119" width="50" height="7" rx="3.5" fill="#C1C1C1"/>
<rect x="10" y="132" width="57" height="7" rx="3.5" fill="#C1C1C1"/>
<rect x="10" y="145" width="39" height="7" rx="3.5" fill="#C1C1C1"/>
<defs>
<filter id="filter0_d_826_9250" x="7" y="8" width="14" height="14" filterUnits="userSpaceOnUse" color-interpolation-filters="sRGB">
<feFlood flood-opacity="0" result="BackgroundImageFix"/>
<feColorMatrix in="SourceAlpha" type="matrix" values="0 0 0 0 0 0 0 0 0 0 0 0 0 0 0 0 0 0 127 0" result="hardAlpha"/>
<feOffset/>
<feGaussianBlur stdDeviation="2"/>
<feComposite in2="hardAlpha" operator="out"/>
<feColorMatrix type="matrix" values="0 0 0 0 0 0 0 0 0 0 0 0 0 0 0 0 0 0 0.2 0"/>
<feBlend mode="normal" in2="BackgroundImageFix" result="effect1_dropShadow_826_9250"/>
<feBlend mode="normal" in="SourceGraphic" in2="effect1_dropShadow_826_9250" result="shape"/>
</filter>
<filter id="filter1_d_826_9250" x="17" y="8" width="14" height="14" filterUnits="userSpaceOnUse" color-interpolation-filters="sRGB">
<feFlood flood-opacity="0" result="BackgroundImageFix"/>
<feColorMatrix in="SourceAlpha" type="matrix" values="0 0 0 0 0 0 0 0 0 0 0 0 0 0 0 0 0 0 127 0" result="hardAlpha"/>
<feOffset/>
<feGaussianBlur stdDeviation="2"/>
<feComposite in2="hardAlpha" operator="out"/>
<feColorMatrix type="matrix" values="0 0 0 0 0 0 0 0 0 0 0 0 0 0 0 0 0 0 0.2 0"/>
<feBlend mode="normal" in2="BackgroundImageFix" result="effect1_dropShadow_826_9250"/>
<feBlend mode="normal" in="SourceGraphic" in2="effect1_dropShadow_826_9250" result="shape"/>
</filter>
<filter id="filter2_d_826_9250" x="27" y="8" width="14" height="14" filterUnits="userSpaceOnUse" color-interpolation-filters="sRGB">
<feFlood flood-opacity="0" result="BackgroundImageFix"/>
<feColorMatrix in="SourceAlpha" type="matrix" values="0 0 0 0 0 0 0 0 0 0 0 0 0 0 0 0 0 0 127 0" result="hardAlpha"/>
<feOffset/>
<feGaussianBlur stdDeviation="2"/>
<feComposite in2="hardAlpha" operator="out"/>
<feColorMatrix type="matrix" values="0 0 0 0 0 0 0 0 0 0 0 0 0 0 0 0 0 0 0.2 0"/>
<feBlend mode="normal" in2="BackgroundImageFix" result="effect1_dropShadow_826_9250"/>
<feBlend mode="normal" in="SourceGraphic" in2="effect1_dropShadow_826_9250" result="shape"/>
</filter>
</defs>
</svg>
