<svg width="160" height="160" viewBox="0 0 160 160" fill="none" xmlns="http://www.w3.org/2000/svg">
<path d="M86.5943 154.299C40.697 163.199 9.64839 112.635 9.47941 56.4073C8.87293 -7.65552 62.2582 11.6962 97.0099 11.9521C131.614 12.2829 152.344 41.6227 152.126 86.7536C151.337 138.895 123.864 147.754 86.5943 154.299Z" fill="#FFDF59"/>
<path d="M68.1254 10.4364C107.805 -3.19932 138.694 38.58 142.863 89.2422C147.977 146.913 99.6994 136 69.1554 140.02C38.7356 143.954 18.4282 120.043 15.3928 79.3364C12.3573 32.2401 35.8558 20.8952 68.1254 10.4364Z" fill="#26C4BB"/>
<g opacity="0.99">
<path d="M127.2 62.4492L128.626 114.574C128.647 115.341 128.544 116.077 128.341 116.75C127.603 119.205 125.5 120.9 122.984 120.806L41.2802 117.752C38.752 117.659 36.5482 115.78 35.6842 113.251C35.4478 112.568 35.3136 111.841 35.2894 111.086L33.8636 58.9832C33.8225 57.4746 34.264 56.5822 35.0143 55.5139C35.9028 54.2482 68.1973 56.3141 76.9827 56.2276C78.3148 56.2144 79.8505 56.2704 81.1917 56.3822C90.0261 57.1169 124.723 56.9883 125.683 58.2195C126.584 59.3742 127.151 60.8522 127.2 62.4492ZM127.2 62.4492L128.626 114.574C128.647 115.341 128.544 116.077 128.341 116.75C127.603 119.205 125.5 120.9 122.984 120.806L41.2802 117.752C38.752 117.659 36.5482 115.78 35.6842 113.251C35.4478 112.568 35.3136 111.841 35.2894 111.086L33.8636 58.9832C33.8225 57.4746 34.264 56.5822 35.0143 55.5139C35.9028 54.2482 68.1973 56.3141 76.9827 56.2276C78.3148 56.2144 79.8505 56.2704 81.1917 56.3822C90.0261 57.1169 124.723 56.9883 125.683 58.2195C126.584 59.3742 127.151 60.8522 127.2 62.4492Z" fill="#FFBEB6"/>
<path d="M128.726 61.0269L130.152 113.153C130.173 113.921 130.07 114.656 129.867 115.329C129.129 117.784 127.026 119.479 124.509 119.385L42.8041 116.332C40.2759 116.238 38.072 114.359 37.2079 111.83C36.9716 111.148 36.8374 110.42 36.8132 109.665L35.3873 57.5607C35.3463 56.0521 35.7878 55.1597 36.5381 54.0913C37.4266 52.8256 69.9099 44.5008 78.6644 43.2896C79.9915 43.1057 81.5281 43.1606 82.8737 43.4407C91.7385 45.2836 126.249 55.5658 127.209 56.797C128.11 57.9518 128.677 59.4298 128.726 61.0269ZM128.726 61.0269L130.152 113.153C130.173 113.921 130.07 114.656 129.867 115.329C129.129 117.784 127.026 119.479 124.509 119.385L42.8041 116.332C40.2759 116.238 38.072 114.359 37.2079 111.83C36.9716 111.148 36.8374 110.42 36.8132 109.665L35.3873 57.5607C35.3463 56.0521 35.7878 55.1597 36.5381 54.0913C37.4266 52.8256 69.9099 44.5008 78.6644 43.2896C79.9915 43.1057 81.5281 43.1606 82.8737 43.4407C91.7385 45.2836 126.249 55.5658 127.209 56.797C128.11 57.9518 128.677 59.4298 128.726 61.0269Z" fill="#ADACAD"/>
<path d="M124.564 60.8114L126.648 113.32C126.744 115.748 125.019 117.621 122.796 117.504L45.617 113.513C43.3938 113.396 41.5131 111.333 41.4167 108.905L39.3332 56.3966C39.2368 53.9688 40.9618 52.0952 43.185 52.2119L120.365 56.2039C122.588 56.3206 124.468 58.3836 124.564 60.8114ZM124.564 60.8114L126.648 113.32C126.744 115.748 125.019 117.621 122.796 117.504L45.617 113.513C43.3938 113.396 41.5131 111.333 41.4167 108.905L39.3332 56.3966C39.2368 53.9688 40.9618 52.0952 43.185 52.2119L120.365 56.2039C122.588 56.3206 124.468 58.3836 124.564 60.8114Z" fill="#ECF2FB"/>
<path d="M128.716 61.5259L130.13 113.162C130.151 113.929 130.047 114.664 129.844 115.338C129.107 117.792 127.004 119.486 124.488 119.393L42.7981 116.34C40.2703 116.246 38.0668 114.368 37.2029 111.839C36.9666 111.157 36.8325 110.43 36.8083 109.675L35.396 58.0608C35.2995 54.4965 37.8746 53.433 41.1392 55.7342L82.2943 85.4342L122.829 58.7872C125.818 56.8895 128.606 57.9681 128.716 61.5259ZM128.716 61.5259L130.13 113.162C130.151 113.929 130.047 114.664 129.844 115.338C129.107 117.792 127.004 119.486 124.488 119.393L42.7981 116.34C40.2703 116.246 38.0668 114.368 37.2029 111.839C36.9666 111.157 36.8325 110.43 36.8083 109.675L35.396 58.0608C35.2995 54.4965 37.8746 53.433 41.1392 55.7342L82.2943 85.4342L122.829 58.7872C125.818 56.8895 128.606 57.9681 128.716 61.5259ZM129.841 115.226C129.106 117.745 127.004 119.486 124.488 119.393L42.7982 116.339C40.2704 116.246 38.0652 114.32 37.1998 111.727L79.1592 81.5087C79.1592 81.5087 81.0987 80.1554 82.7209 80.2363C84.343 80.3173 86.1071 81.8599 86.1071 81.8599L129.841 115.226ZM129.841 115.226C129.106 117.745 127.004 119.486 124.488 119.393L42.7982 116.339C40.2704 116.246 38.0652 114.32 37.1998 111.727L79.1592 81.5087C79.1592 81.5087 81.0987 80.1554 82.7209 80.2363C84.343 80.3173 86.1071 81.8599 86.1071 81.8599L129.841 115.226ZM129.844 115.338C129.107 117.792 127.004 119.486 124.488 119.393L42.7981 116.34C40.2703 116.246 38.0668 114.368 37.2029 111.839L79.1845 82.4318C79.1845 82.4318 81.1249 81.1149 82.7473 81.1953C84.3696 81.2756 86.133 82.7806 86.133 82.7806L129.844 115.338ZM129.844 115.338C129.107 117.792 127.004 119.486 124.488 119.393L42.7981 116.34C40.2703 116.246 38.0668 114.368 37.2029 111.839L79.1845 82.4318C79.1845 82.4318 81.1249 81.1149 82.7473 81.1953C84.3696 81.2756 86.133 82.7806 86.133 82.7806L129.844 115.338ZM76.9885 52.8788C70.9656 52.6548 52.2535 51.9581 39.6511 51.4882C38.7579 51.4548 38.1493 51.4314 38.4084 51.4405C38.7871 51.4535 39.1671 51.4676 40.7925 51.5281L115.584 54.3056C117.174 54.3646 117.127 54.3623 118.103 54.3998C118.511 54.4155 118.109 54.4014 117.339 54.3732C104.485 53.8972 84.8446 53.1699 78.7342 52.9433C78.166 52.9224 77.549 52.8998 76.9885 52.8788ZM76.9885 52.8788C70.9656 52.6548 52.2535 51.9581 39.6511 51.4882C38.7579 51.4548 38.1493 51.4314 38.4084 51.4405C38.7871 51.4535 39.1671 51.4676 40.7925 51.5281L115.584 54.3056C117.174 54.3646 117.127 54.3623 118.103 54.3998C118.511 54.4155 118.109 54.4014 117.339 54.3732C104.485 53.8972 84.8446 53.1699 78.7342 52.9433C78.166 52.9224 77.549 52.8998 76.9885 52.8788Z" fill="#FFBEB6"/>
<path d="M129.838 115.216C129.103 117.736 127 119.477 124.484 119.384L42.7747 116.329C40.2463 116.236 38.0405 114.309 37.175 111.715L79.1442 81.4876C79.1442 81.4876 81.0841 80.1338 82.7067 80.2148C84.3293 80.2957 86.0937 81.8389 86.0937 81.8389L129.838 115.216ZM129.838 115.216C129.103 117.736 127 119.477 124.484 119.384L42.7747 116.329C40.2463 116.236 38.0405 114.309 37.175 111.715L79.1442 81.4876C79.1442 81.4876 81.0841 80.1338 82.7067 80.2148C84.3293 80.2957 86.0937 81.8389 86.0937 81.8389L129.838 115.216ZM129.841 115.328C129.103 117.782 127 119.477 124.484 119.384L42.7746 116.33C40.2462 116.236 38.0422 114.357 37.1781 111.828L79.1695 82.4109C79.1695 82.4109 81.1104 81.0936 82.7331 81.174C84.3558 81.2544 86.1197 82.7598 86.1197 82.7598L129.841 115.328ZM129.841 115.328C129.103 117.782 127 119.477 124.484 119.384L42.7746 116.33C40.2462 116.236 38.0422 114.357 37.1781 111.828L79.1695 82.4109C79.1695 82.4109 81.1104 81.0936 82.7331 81.174C84.3558 81.2544 86.1197 82.7598 86.1197 82.7598L129.841 115.328ZM76.973 52.8483C70.9486 52.6242 52.2322 51.9273 39.6269 51.4572C38.7334 51.4238 38.1247 51.4004 38.3838 51.4095C38.7626 51.4226 39.1427 51.4367 40.7685 51.4971L115.578 54.2756C117.168 54.3346 117.121 54.3322 118.097 54.3698C118.506 54.3855 118.103 54.3714 117.333 54.3432C104.476 53.8671 84.8309 53.1395 78.7191 52.9128C78.1508 52.8919 77.5336 52.8693 76.973 52.8483ZM76.973 52.8483C70.9486 52.6242 52.2322 51.9273 39.6269 51.4572C38.7334 51.4238 38.1247 51.4004 38.3838 51.4095C38.7626 51.4226 39.1427 51.4367 40.7685 51.4971L115.578 54.2756C117.168 54.3346 117.121 54.3322 118.097 54.3698C118.506 54.3855 118.103 54.3714 117.333 54.3432C104.476 53.8671 84.8309 53.1395 78.7191 52.9128C78.1508 52.8919 77.5336 52.8693 76.973 52.8483Z" fill="#090809" fill-opacity="0.3"/>
<path d="M129.841 115.328C129.103 117.782 127 119.477 124.484 119.384L42.7746 116.33C40.2462 116.236 38.0422 114.357 37.1781 111.828L79.1695 82.4109C79.1695 82.4109 81.1104 81.0936 82.7331 81.174C84.3558 81.2544 86.1197 82.7598 86.1197 82.7598L129.841 115.328ZM129.841 115.328C129.103 117.782 127 119.477 124.484 119.384L42.7746 116.33C40.2462 116.236 38.0422 114.357 37.1781 111.828L79.1695 82.4109C79.1695 82.4109 81.1104 81.0936 82.7331 81.174C84.3558 81.2544 86.1197 82.7598 86.1197 82.7598L129.841 115.328ZM76.973 52.8483C70.9486 52.6242 52.2322 51.9273 39.6269 51.4572C38.7334 51.4238 38.1247 51.4004 38.3838 51.4095C38.7626 51.4226 39.1427 51.4367 40.7685 51.4971L115.578 54.2756C117.168 54.3346 117.121 54.3322 118.097 54.3698C118.506 54.3855 118.103 54.3714 117.333 54.3432C104.476 53.8671 84.8309 53.1395 78.7191 52.9128C78.1508 52.8919 77.5336 52.8693 76.973 52.8483ZM76.973 52.8483C70.9486 52.6242 52.2322 51.9273 39.6269 51.4572C38.7334 51.4238 38.1247 51.4004 38.3838 51.4095C38.7626 51.4226 39.1427 51.4367 40.7685 51.4971L115.578 54.2756C117.168 54.3346 117.121 54.3322 118.097 54.3698C118.506 54.3855 118.103 54.3714 117.333 54.3432C104.476 53.8671 84.8309 53.1395 78.7191 52.9128C78.1508 52.8919 77.5336 52.8693 76.973 52.8483Z" fill="#5B5A5B"/>
</g>
<mask id="mask0_288_11549" style="mask-type:alpha" maskUnits="userSpaceOnUse" x="36" y="48" width="94" height="49">
<g opacity="0.99">
<path d="M129.075 60.7926L129.227 64.7875L36.6977 96.1568L36.1453 74.8056C36.1453 74.8056 108.431 40.5633 119.392 49.6284C124.035 53.4684 127.272 56.1935 127.557 56.56C128.458 57.7155 129.026 59.1944 129.075 60.7926Z" fill="#4ADCD3"/>
</g>
</mask>
<g mask="url(#mask0_288_11549)">
</g>
</svg>
