<svg width="1440" height="871" viewBox="0 0 1440 871" fill="none" xmlns="http://www.w3.org/2000/svg">
<path d="M362.426 107.856C353.972 122.689 337.277 131.876 334.797 143.696C332.519 154.554 342.257 165.556 356.473 168.189C348.71 166.751 344.391 161.872 345.635 155.943C346.879 150.013 362.676 138.62 362.676 138.62C362.676 138.62 372.69 154.793 371.446 160.722C370.202 166.652 364.237 169.626 356.473 168.189C370.689 170.821 384.142 164.113 386.419 153.256C391.588 128.615 362.426 107.856 362.426 107.856ZM381.946 172.586C381.224 172.532 380.552 172.488 379.864 172.52C379.596 172.551 379.27 172.61 378.993 172.679L325.303 172.976C318.743 173.041 313.691 176.905 313.464 181.983C313.287 187.07 317.956 191.774 324.459 192.978L314.121 242.26L365.744 251.82L378.084 192.989L381.44 192.971C388.71 193.517 394.759 189.397 394.889 183.782C395.02 178.167 389.215 173.132 381.946 172.586ZM234.62 237.778C212.691 233.717 193.214 243.43 189.701 260.178L188.667 265.106C187.011 272.999 206.235 283.718 230.735 288.255C260.428 293.753 279.006 281.835 279.006 281.835C279.006 281.835 292.692 299.728 327.527 306.178C362.362 312.629 382.251 300.953 382.251 300.953C382.251 300.953 395.937 318.846 424.319 324.102C448.819 328.639 470.934 325.575 472.59 317.682L473.624 312.754C477.137 296.005 463.039 280.076 441.11 276.015L234.62 237.778ZM276.292 294.771C266.025 299.029 249.337 301.939 228.668 298.111L218.182 296.17C204.176 292.536 192.118 287.103 185.178 281.739L177.295 319.316L151.484 314.536C149.207 325.394 158.944 336.396 173.16 339.029L457.083 391.605C471.299 394.237 484.752 387.529 487.029 376.672L461.218 371.892L469.295 333.39C459.237 336.648 447.163 337.532 432.737 335.9L422.251 333.958C401.582 330.131 387.527 320.489 379.537 313.89C368.169 316.904 349.96 320.572 325.46 316.035C300.959 311.498 285.383 302.614 276.292 294.771Z" fill="#00AEA6" fill-opacity="0.35"/>
<path d="M0.0678168 341.132C0.0890857 351.634 -6.1966 361.321 -3.84006 368.506C-1.67542 375.107 7.13869 378.449 15.7809 375.947C11.0614 377.314 7.15254 375.831 5.97043 372.227C4.78832 368.623 9.88572 357.972 9.88572 357.972C9.88572 357.972 20.4792 364.08 21.6613 367.684C22.8434 371.289 20.5004 374.581 15.7809 375.947C24.4231 373.445 29.7063 366.022 27.5416 359.421C22.629 344.442 0.0678168 341.132 0.0678168 341.132ZM31.1652 371.288C30.7515 371.46 30.3684 371.622 30.0008 371.831C29.8629 371.922 29.702 372.045 29.5718 372.16L0.155187 387.237C-3.42995 389.095 -4.99117 392.622 -3.51829 395.476C-2.01477 398.321 2.03191 399.61 5.98527 398.465L15.8106 428.424L47.1923 419.339L35.4633 383.576L37.3019 382.633C41.4694 380.914 43.4978 376.97 41.8026 373.847C40.1074 370.724 35.3328 369.569 31.1652 371.288ZM-29.2969 448.044C-42.628 451.904 -50.277 462.652 -46.938 472.834L-45.9554 475.83C-44.3819 480.628 -30.4429 481.18 -15.5489 476.868C2.50175 471.642 8.96254 459.93 8.96254 459.93C8.96254 459.93 22.1153 465.963 43.2918 459.833C64.4684 453.702 71.7259 441.76 71.7259 441.76C71.7259 441.76 84.8787 447.793 102.133 442.798C117.027 438.486 128.218 430.658 126.644 425.86L125.661 422.864C122.322 412.683 109.561 407.843 96.2299 411.703L-29.2969 448.044ZM11.5417 467.794C7.23812 472.987 -1.01884 479.222 -13.5838 482.859L-19.9582 484.705C-28.8 486.598 -37.1369 486.962 -42.6394 485.941L-35.1476 508.784L-50.8384 513.327C-48.6738 519.927 -39.8597 523.27 -31.2174 520.768L141.382 470.799C150.024 468.297 155.307 460.873 153.143 454.272L137.452 458.815L129.776 435.41C125.273 439.994 118.915 443.833 110.472 446.944L104.098 448.789C91.5327 452.427 80.7733 451.032 74.3051 449.624C69.0051 454.439 60.151 461.512 45.2569 465.824C30.3629 470.136 19.0063 469.58 11.5417 467.794Z" fill="#00AEA6" fill-opacity="0.35"/>
<path d="M263.773 498.242C264.661 503.889 262.089 509.563 263.957 513.254C265.673 516.644 270.693 517.792 275.132 515.81C272.708 516.892 270.481 516.383 269.544 514.532C268.608 512.68 270.46 506.576 270.46 506.576C270.46 506.576 276.668 509.08 277.605 510.932C278.541 512.783 277.556 514.727 275.132 515.81C279.571 513.827 281.793 509.444 280.077 506.053C276.184 498.359 263.773 498.242 263.773 498.242ZM283.017 512.169C282.809 512.292 282.617 512.407 282.436 512.547C282.37 512.606 282.294 512.684 282.233 512.756L267.67 523.034C265.897 524.298 265.352 526.31 266.383 527.736C267.429 529.156 269.713 529.551 271.744 528.643L279.531 544.033L295.651 536.833L286.356 518.461L287.266 517.819C289.364 516.587 290.125 514.316 288.953 512.761C287.78 511.207 285.116 510.937 283.017 512.169ZM256.908 557.912C250.06 560.97 246.843 567.316 249.49 572.546L250.268 574.085C251.516 576.549 259.059 575.818 266.71 572.401C275.982 568.259 278.479 561.484 278.479 561.484C278.479 561.484 286.057 563.759 296.935 558.9C307.813 554.041 310.72 547.083 310.72 547.083C310.72 547.083 318.298 549.358 327.161 545.399C334.812 541.982 340.177 536.947 338.93 534.482L338.152 532.943C335.505 527.713 328.237 526.051 321.389 529.11L256.908 557.912ZM280.523 565.524C278.642 568.634 274.722 572.596 268.267 575.479L264.993 576.942C260.395 578.612 255.941 579.422 252.896 579.279L258.834 591.013L250.774 594.613C252.489 598.004 257.509 599.152 261.949 597.169L350.611 557.566C355.05 555.583 357.272 551.201 355.556 547.81L347.496 551.41L341.412 539.387C339.373 542.185 336.274 544.719 331.993 547.015L328.718 548.477C322.264 551.36 316.36 551.403 312.764 551.123C310.315 554.103 306.144 558.561 298.493 561.978C290.842 565.395 284.687 565.934 280.523 565.524Z" fill="#00AEA6" fill-opacity="0.35"/>
<path d="M140.416 707.79C135.547 710.82 129.106 710.981 126.499 714.033C124.104 716.836 125.276 721.481 129.11 724.372C127.016 722.793 126.496 720.733 127.804 719.202C129.112 717.671 135.633 716.737 135.633 716.737C135.633 716.737 136.072 722.92 134.764 724.451C133.456 725.982 131.203 725.951 129.11 724.372C132.943 727.263 138.023 727.334 140.418 724.531C145.854 718.169 140.416 707.79 140.416 707.79ZM136.029 729.459C135.821 729.336 135.628 729.222 135.417 729.129C135.332 729.097 135.225 729.066 135.132 729.044L119.038 721.091C117.067 720.128 114.947 720.49 114.077 721.927C113.221 723.373 113.874 725.435 115.627 726.757L104.755 739.482L118.675 749.98L131.653 734.79L132.659 735.287C134.745 736.534 137.204 736.247 138.129 734.64C139.055 733.033 138.115 730.706 136.029 729.459ZM81.7019 726.28C75.7889 721.82 68.434 721.717 64.7393 726.041L63.6521 727.313C61.911 729.351 65.9638 735.334 72.57 740.317C80.5764 746.355 88.011 745.685 88.011 745.685C88.011 745.685 89.276 752.917 98.6688 760.001C108.062 767.085 115.85 766.682 115.85 766.682C115.85 766.682 117.115 773.913 124.768 779.685C131.374 784.668 138.467 787.091 140.209 785.054L141.296 783.781C144.99 779.457 143.292 772.732 137.379 768.273L81.7019 726.28ZM85.1572 749.026C81.416 748.721 75.9689 747.065 70.3957 742.862L67.5683 740.729C63.9559 737.58 61.2099 734.201 59.9829 731.608L51.6932 741.311L44.7335 736.061C42.3384 738.865 43.5113 743.509 47.3445 746.4L123.901 804.141C127.734 807.032 132.814 807.103 135.209 804.3L128.25 799.051L136.743 789.11C133.223 788.547 129.475 786.995 125.421 784.362L122.593 782.23C117.02 778.027 114.342 773.13 112.996 770.022C109.122 769.193 103.101 767.528 96.4945 762.546C89.8882 757.563 86.6358 752.658 85.1572 749.026Z" fill="#00AEA6" fill-opacity="0.35"/>
<path d="M824.479 -258.04C809.761 -232.213 780.691 -216.217 776.374 -195.636C772.408 -176.732 789.362 -157.575 814.115 -152.991C800.597 -155.495 793.079 -163.99 795.244 -174.314C797.41 -184.638 824.915 -204.476 824.915 -204.476C824.915 -204.476 842.351 -176.316 840.185 -165.992C838.02 -155.668 827.632 -150.488 814.115 -152.991C838.867 -148.408 862.29 -160.088 866.256 -178.992C875.255 -221.896 824.479 -258.04 824.479 -258.04ZM858.466 -145.336C857.209 -145.429 856.04 -145.506 854.843 -145.45C854.376 -145.397 853.807 -145.293 853.326 -145.173L759.844 -144.656C748.422 -144.543 739.625 -137.815 739.229 -128.974C738.921 -120.117 747.051 -111.926 758.374 -109.829L740.374 -24.0222L830.256 -7.37821L851.743 -109.81L857.586 -109.843C870.244 -108.892 880.775 -116.064 881.003 -125.842C881.23 -135.619 871.124 -144.385 858.466 -145.336ZM601.952 -31.8268C563.769 -38.8973 529.858 -21.9866 523.74 7.17434L521.94 15.7551C519.058 29.4976 552.528 48.1613 595.187 56.0607C646.887 65.6342 679.234 44.8821 679.234 44.8821C679.234 44.8821 703.063 76.0368 763.716 87.2682C824.368 98.4997 858.997 78.1701 858.997 78.1701C858.997 78.1701 882.827 109.325 932.244 118.476C974.903 126.375 1013.41 121.04 1016.29 107.297L1018.09 98.7165C1024.21 69.5555 999.661 41.8197 961.479 34.7492L601.952 -31.8268ZM674.509 67.4064C656.631 74.8207 627.575 79.8862 591.587 73.2221L573.33 69.8413C548.943 63.5147 527.949 54.0558 515.866 44.7149L502.141 110.143L457.2 101.821C453.234 120.725 470.188 139.882 494.941 144.466L989.291 236.008C1014.04 240.591 1037.47 228.911 1041.43 210.007L996.491 201.685L1010.55 134.648C993.042 140.319 972.02 141.859 946.902 139.018L928.644 135.637C892.656 128.973 868.184 112.185 854.273 100.694C834.479 105.943 802.775 112.329 760.116 104.43C717.457 96.5302 690.337 81.0622 674.509 67.4064Z" fill="#26C4BB" fill-opacity="0.15"/>
<path d="M1341.58 364.621C1341.56 375.122 1347.85 384.81 1345.49 391.995C1343.33 398.596 1334.51 401.938 1325.87 399.436C1330.59 400.803 1334.5 399.32 1335.68 395.716C1336.86 392.111 1331.77 381.461 1331.77 381.461C1331.77 381.461 1321.17 387.569 1319.99 391.173C1318.81 394.778 1321.15 398.07 1325.87 399.436C1317.23 396.934 1311.94 389.51 1314.11 382.91C1319.02 367.93 1341.58 364.621 1341.58 364.621ZM1310.49 394.777C1310.9 394.948 1311.28 395.11 1311.65 395.319C1311.79 395.411 1311.95 395.534 1312.08 395.649L1341.5 410.726C1345.08 412.584 1346.64 416.111 1345.17 418.965C1343.67 421.81 1339.62 423.099 1335.67 421.954L1325.84 451.913L1294.46 442.828L1306.19 407.064L1304.35 406.122C1300.18 404.403 1298.15 400.458 1299.85 397.336C1301.54 394.213 1306.32 393.058 1310.49 394.777ZM1370.95 471.533C1384.28 475.393 1391.93 486.141 1388.59 496.322L1387.61 499.318C1386.03 504.116 1372.09 504.668 1357.2 500.356C1339.15 495.131 1332.69 483.419 1332.69 483.419C1332.69 483.419 1319.54 489.452 1298.36 483.321C1277.18 477.191 1269.93 465.248 1269.93 465.248C1269.93 465.248 1256.77 471.282 1239.52 466.286C1224.62 461.974 1213.43 454.147 1215.01 449.349L1215.99 446.353C1219.33 436.172 1232.09 431.332 1245.42 435.192L1370.95 471.533ZM1330.11 491.283C1334.41 496.476 1342.67 502.71 1355.23 506.348L1361.61 508.194C1370.45 510.087 1378.79 510.45 1384.29 509.429L1376.8 532.273L1392.49 536.816C1390.32 543.416 1381.51 546.759 1372.87 544.257L1200.27 494.288C1191.63 491.786 1186.34 484.362 1188.51 477.761L1204.2 482.304L1211.88 458.898C1216.38 463.483 1222.74 467.322 1231.18 470.433L1237.55 472.278C1250.12 475.916 1260.88 474.52 1267.35 473.113C1272.65 477.927 1281.5 485.001 1296.39 489.313C1311.29 493.625 1322.64 493.069 1330.11 491.283Z" fill="#49DBD2" fill-opacity="0.4"/>
<path d="M1086.13 507.111C1084.87 514.847 1088.29 522.587 1085.72 527.655C1083.37 532.311 1076.57 533.929 1070.59 531.258C1073.85 532.717 1076.87 531.999 1078.16 529.457C1079.44 526.914 1077 518.578 1077 518.578C1077 518.578 1068.58 522.064 1067.3 524.606C1066.01 527.149 1067.32 529.799 1070.59 531.258C1064.61 528.587 1061.65 522.611 1064.01 517.955C1069.35 507.388 1086.13 507.111 1086.13 507.111ZM1059.97 526.352C1060.25 526.517 1060.5 526.673 1060.75 526.863C1060.84 526.943 1060.94 527.049 1061.02 527.146L1080.6 541.073C1082.98 542.786 1083.7 545.534 1082.29 547.496C1080.86 549.448 1077.77 550.01 1075.03 548.788L1064.34 569.92L1042.62 560.22L1055.38 534.993L1054.16 534.122C1051.34 532.457 1050.33 529.356 1051.93 527.218C1053.54 525.079 1057.14 524.686 1059.97 526.352ZM1094.77 588.698C1104 592.818 1108.28 601.471 1104.65 608.652L1103.58 610.766C1101.87 614.15 1091.67 613.222 1081.37 608.618C1068.88 603.038 1065.57 593.79 1065.57 593.79C1065.57 593.79 1055.3 596.975 1040.65 590.429C1025.99 583.883 1022.14 574.389 1022.14 574.389C1022.14 574.389 1011.87 577.574 999.928 572.241C989.62 567.637 982.42 560.798 984.133 557.413L985.202 555.3C988.836 548.118 998.68 545.775 1007.91 549.896L1094.77 588.698ZM1062.77 599.337C1065.28 603.576 1070.53 608.96 1079.23 612.844L1083.64 614.815C1089.84 617.057 1095.85 618.123 1099.97 617.898L1091.82 634.012L1102.67 638.862C1100.32 643.518 1093.52 645.136 1087.54 642.465L968.094 589.112C962.113 586.441 959.156 580.465 961.512 575.809L972.371 580.659L980.725 564.149C983.452 567.958 987.614 571.396 993.378 574.497L997.789 576.468C1006.48 580.352 1014.47 580.354 1019.33 579.936C1022.61 583.992 1028.2 590.052 1038.51 594.656C1048.82 599.26 1057.13 599.938 1062.77 599.337Z" fill="#C01DE9" fill-opacity="0.3"/>
<path d="M1201.24 731.279C1206.1 734.309 1212.54 734.47 1215.15 737.522C1217.55 740.325 1216.37 744.969 1212.54 747.86C1214.63 746.282 1215.15 744.222 1213.85 742.691C1212.54 741.16 1206.02 740.226 1206.02 740.226C1206.02 740.226 1205.58 746.409 1206.89 747.94C1208.2 749.471 1210.45 749.439 1212.54 747.86C1208.71 750.752 1203.63 750.823 1201.23 748.02C1195.8 741.657 1201.24 731.279 1201.24 731.279ZM1205.62 752.948C1205.83 752.824 1206.02 752.711 1206.23 752.617C1206.32 752.586 1206.43 752.554 1206.52 752.533L1222.61 744.58C1224.58 743.616 1226.7 743.979 1227.57 745.415C1228.43 746.862 1227.78 748.924 1226.02 750.246L1236.9 762.971L1222.98 773.469L1210 758.279L1208.99 758.776C1206.91 760.023 1204.45 759.735 1203.52 758.129C1202.6 756.522 1203.54 754.195 1205.62 752.948ZM1259.95 749.769C1265.86 745.309 1273.22 745.205 1276.91 749.53L1278 750.802C1279.74 752.84 1275.69 758.823 1269.08 763.806C1261.07 769.844 1253.64 769.174 1253.64 769.174C1253.64 769.174 1252.38 776.405 1242.98 783.49C1233.59 790.574 1225.8 790.17 1225.8 790.17C1225.8 790.17 1224.54 797.402 1216.88 803.174C1210.28 808.156 1203.18 810.58 1201.44 808.542L1200.36 807.27C1196.66 802.945 1198.36 796.221 1204.27 791.761L1259.95 749.769ZM1256.49 772.514C1260.24 772.21 1265.68 770.554 1271.26 766.35L1274.08 764.218C1277.7 761.068 1280.44 757.69 1281.67 755.097L1289.96 764.799L1296.92 759.55C1299.31 762.354 1298.14 766.998 1294.31 769.889L1217.75 827.629C1213.92 830.52 1208.84 830.592 1206.44 827.789L1213.4 822.539L1204.91 812.598C1208.43 812.036 1212.18 810.484 1216.23 807.851L1219.06 805.719C1224.63 801.515 1227.31 796.618 1228.66 793.511C1232.53 792.681 1238.55 791.017 1245.16 786.035C1251.76 781.052 1255.02 776.147 1256.49 772.514Z" fill="#C01DE9" fill-opacity="0.2"/>
<path d="M598.958 597.342C588.368 606.221 573.376 608.683 568.069 616.886C563.194 624.42 567.116 635.248 576.801 640.988C571.512 637.853 569.772 633.051 572.435 628.937C575.097 624.822 590.077 620.468 590.077 620.468C590.077 620.468 592.68 635.244 590.018 639.359C587.355 643.474 582.089 644.123 576.801 640.988C586.485 646.728 598.36 645.265 603.235 637.73C614.299 620.63 598.958 597.342 598.958 597.342ZM594.247 651.033C593.732 650.802 593.251 650.591 592.735 650.433C592.529 650.385 592.271 650.343 592.047 650.321L552.456 636.317C547.61 634.627 542.754 636.185 541.091 639.93C539.462 643.696 541.511 648.46 545.941 651.086L523.813 685.286L558.979 706.13L585.394 665.304L587.869 666.179C593.057 668.515 598.721 667.03 600.472 662.855C602.222 658.681 599.435 653.369 594.247 651.033ZM466.639 660.859C451.7 652.004 434.507 654.123 426.987 665.746L424.775 669.166C421.231 674.643 432.216 687.772 448.906 697.665C469.134 709.654 486.315 705.643 486.315 705.643C486.315 705.643 491.112 722.682 514.842 736.748C538.573 750.813 556.647 747.332 556.647 747.332C556.647 747.332 561.444 764.37 580.779 775.831C597.469 785.723 614.643 789.287 618.187 783.809L620.4 780.389C627.92 768.767 622.241 753.091 607.302 744.236L466.639 660.859ZM480.506 714.621C471.697 715.092 458.561 712.85 444.481 704.505L437.338 700.271C428.103 693.836 420.832 686.568 417.306 680.708L400.434 706.786L382.851 696.364C377.976 703.898 381.898 714.725 391.583 720.466L584.995 835.109C594.68 840.85 606.554 839.386 611.429 831.851L593.846 821.429L611.134 794.711C602.774 794.487 593.63 791.95 583.496 786.905L576.353 782.671C562.273 774.325 554.773 763.373 550.838 756.309C541.585 755.556 527.107 753.48 510.417 743.588C493.727 733.695 484.884 722.908 480.506 714.621Z" fill="#26C4BB" fill-opacity="0.25"/>
<path d="M740.886 760.258C741.824 766.326 739.11 772.424 741.081 776.391C742.891 780.035 748.187 781.268 752.87 779.137C750.312 780.301 747.964 779.754 746.975 777.764C745.987 775.774 747.941 769.214 747.941 769.214C747.941 769.214 754.49 771.905 755.478 773.895C756.467 775.885 755.427 777.973 752.87 779.137C757.553 777.006 759.897 772.296 758.087 768.652C753.98 760.383 740.886 760.258 740.886 760.258ZM761.189 775.225C760.969 775.357 760.766 775.481 760.576 775.631C760.506 775.694 760.425 775.779 760.361 775.855L744.998 786.901C743.128 788.259 742.552 790.422 743.64 791.955C744.744 793.48 747.153 793.905 749.296 792.93L757.511 809.469L774.517 801.731L764.71 781.987L765.671 781.297C767.884 779.973 768.687 777.532 767.45 775.861C766.213 774.19 763.402 773.901 761.189 775.225ZM733.644 824.384C726.42 827.672 723.027 834.491 725.818 840.112L726.64 841.766C727.955 844.414 735.913 843.629 743.985 839.956C753.767 835.505 756.401 828.223 756.401 828.223C756.401 828.223 764.396 830.669 775.872 825.447C787.348 820.225 790.414 812.747 790.414 812.747C790.414 812.747 798.408 815.192 807.759 810.937C815.83 807.265 821.49 801.853 820.175 799.205L819.353 797.551C816.561 791.93 808.894 790.144 801.669 793.431L733.644 824.384ZM758.557 832.565C756.573 835.908 752.437 840.166 745.628 843.264L742.173 844.836C737.323 846.631 732.625 847.502 729.412 847.348L735.676 859.959L727.173 863.828C728.983 867.472 734.279 868.705 738.962 866.574L832.497 824.013C837.18 821.882 839.524 817.172 837.714 813.529L829.211 817.398L822.793 804.476C820.642 807.483 817.372 810.206 812.856 812.673L809.401 814.245C802.592 817.344 796.364 817.39 792.57 817.088C789.987 820.291 785.586 825.082 777.515 828.755C769.443 832.427 762.95 833.006 758.557 832.565Z" fill="#26C4BB" fill-opacity="0.25"/>
<g clip-path="url(#clip0_1_12146)">
<path d="M1248.89 568.179L1255.29 512.653C1278.96 501.083 1304.74 496.289 1330.4 498.689C1292.6 528.159 1292.18 592.157 1264.88 634.123C1256.28 647.137 1245.22 657.773 1232.53 665.241C1219.84 672.71 1205.85 676.82 1191.58 677.268L1160.47 695.001C1158.38 668.781 1161.29 642.356 1169 617.545C1176.71 592.734 1189.03 570.127 1205.12 551.282C1214.24 540.812 1224.47 531.696 1235.59 524.148C1241.04 546.164 1248.89 568.179 1248.89 568.179Z" fill="#F2F2F2"/>
<path d="M1180.28 230.409C1181.94 226.048 1184.44 222.179 1187.61 219.1C1190.78 216.022 1194.52 213.817 1198.56 212.655C1207.51 209.994 1220.62 214.048 1227.35 219.869C1239.67 230.516 1242.67 267.094 1234.21 278.653C1232.53 278.576 1226.72 278.519 1225.02 278.463L1222.61 271.496V278.395C1209.32 278.038 1195.48 278.261 1181.63 278.492C1180.39 270.308 1177.44 238.282 1180.28 230.409Z" fill="#2F2E41"/>
<path d="M1182.54 671.48L1170.42 671.479L1164.65 618.042L1182.54 618.043L1182.54 671.48Z" fill="#9E616A"/>
<path d="M1288.68 662.864L1276.94 666.358L1259.57 616.312L1276.88 611.155L1288.68 662.864Z" fill="#9E616A"/>
<path d="M1198.8 269.831C1209.4 269.831 1218 260.007 1218 247.889C1218 235.77 1209.4 225.946 1198.8 225.946C1188.19 225.946 1179.59 235.77 1179.59 247.889C1179.59 260.007 1188.19 269.831 1198.8 269.831Z" fill="#9E616A"/>
<path d="M1185.6 219.316C1189.29 216.745 1193.52 215.355 1197.84 215.29C1202.16 215.225 1206.42 216.487 1210.16 218.946C1213.91 221.404 1217.01 224.968 1219.14 229.264C1221.27 233.56 1222.35 238.432 1222.27 243.369C1211.8 246.426 1200.65 247.704 1188.83 244.105L1186.13 236.548L1184.53 244.11C1180.92 247.017 1177.43 247.012 1174.06 244.095C1173.92 239.172 1174.91 234.292 1176.93 229.944C1178.96 225.596 1181.95 221.931 1185.6 219.316Z" fill="#2F2E41"/>
<path d="M1187.96 697.785H1179.36L1177.82 688.503L1173.89 697.785H1151.07C1149.98 697.785 1148.91 697.385 1148.03 696.645C1147.15 695.904 1146.5 694.861 1146.18 693.668C1145.85 692.475 1145.87 691.194 1146.22 690.012C1146.58 688.831 1147.26 687.811 1148.16 687.101L1166.38 672.721V663.338L1185.55 664.645L1187.96 697.785Z" fill="#2F2E41"/>
<path d="M1300.79 686.439L1292.47 688.919L1288.93 680.38L1287.18 690.495L1265.1 697.072C1264.04 697.387 1262.92 697.307 1261.9 696.845C1260.89 696.382 1260.03 695.56 1259.45 694.499C1258.87 693.439 1258.6 692.194 1258.69 690.948C1258.77 689.702 1259.2 688.52 1259.92 687.573L1274.38 668.407L1272.3 659.327L1291.14 655.068L1300.79 686.439Z" fill="#2F2E41"/>
<path d="M1287.19 629.259C1279.77 597.74 1271.52 566.915 1251.65 545.796L1246.18 454.08C1253.87 437.756 1233.9 394.673 1233.9 394.673L1226.92 383.066L1178.56 392.657C1167.24 427.931 1161.72 436.628 1162.37 502.865C1163.02 569.101 1164.6 637.899 1164.6 637.899H1163.9C1162.74 637.899 1161.63 638.426 1160.81 639.364C1159.99 640.302 1159.53 641.574 1159.53 642.9C1159.53 644.227 1159.99 645.499 1160.81 646.437C1161.63 647.374 1162.74 647.901 1163.9 647.901H1185.79C1186.95 647.901 1188.06 647.374 1188.88 646.437C1189.7 645.499 1190.16 644.227 1190.16 642.9C1190.16 641.574 1189.7 640.302 1188.88 639.364C1188.06 638.426 1186.95 637.899 1185.79 637.899H1185.22C1198.07 596.643 1200.36 533.191 1200.93 466.111L1219.2 550.884L1263.34 628.938C1262.21 629.038 1261.17 629.633 1260.42 630.598C1259.67 631.563 1259.27 632.822 1259.32 634.112C1259.36 635.401 1259.84 636.62 1260.66 637.513C1261.47 638.406 1262.56 638.903 1263.69 638.9H1285.57C1286.59 638.901 1287.58 638.496 1288.36 637.756C1289.15 637.015 1289.68 635.985 1289.87 634.843C1290.06 633.7 1289.9 632.518 1289.41 631.498C1288.92 630.479 1288.13 629.687 1287.19 629.259Z" fill="#2F2E41"/>
<path d="M1238.9 403.223C1238.72 402.407 1238.32 401.678 1237.75 401.139C1237.18 400.601 1236.48 400.282 1235.75 400.228C1229.79 393.321 1225.33 332.029 1230.01 327.793L1230.01 327.717L1228.61 293.653C1228.56 292.416 1228.11 291.243 1227.35 290.36C1226.59 289.476 1225.58 288.943 1224.5 288.862L1217.12 288.311C1217.02 288.307 1216.93 288.259 1216.86 288.176C1216.79 288.093 1216.75 287.982 1216.75 287.866C1216.75 286.936 1216.59 286.015 1216.28 285.156C1215.96 284.296 1215.51 283.515 1214.93 282.858C1214.36 282.2 1213.67 281.678 1212.92 281.322C1212.17 280.966 1211.36 280.783 1210.55 280.783H1188.73C1187.31 280.784 1185.95 281.374 1184.89 282.443C1183.83 283.512 1183.15 284.986 1182.97 286.588C1182.96 286.698 1182.92 286.801 1182.84 286.874C1182.77 286.947 1182.68 286.987 1182.58 286.984L1182.58 286.984C1180.1 286.926 1177.68 287.885 1175.77 289.688C1173.85 291.491 1172.57 294.018 1172.15 296.81C1169.16 316.645 1170.57 358.04 1173.53 383.067C1174.56 391.779 1166.7 408.505 1166.31 415.794C1166.27 416.499 1166.36 417.205 1166.56 417.873C1166.76 418.54 1167.07 419.156 1167.48 419.685C1166.61 419.971 1165.87 420.633 1165.42 421.53C1164.97 422.427 1164.84 423.489 1165.06 424.493C1165.29 425.522 1165.86 426.406 1166.66 426.95C1167.46 427.494 1168.41 427.654 1169.31 427.395L1236.36 408.08C1237.26 407.821 1238.04 407.163 1238.51 406.253C1238.99 405.342 1239.13 404.252 1238.9 403.223Z" fill="#E6E6E6"/>
<path d="M1094.68 319.209C1095.84 318.69 1097.09 318.468 1098.34 318.56C1099.58 318.652 1100.8 319.055 1101.89 319.741C1102.99 320.427 1103.94 321.379 1104.68 322.53C1105.41 323.681 1105.92 325.003 1106.17 326.403L1173.54 342.96L1163.13 356.499L1098.86 338.107C1096.78 338.417 1094.66 337.843 1092.92 336.493C1091.19 335.143 1089.94 333.11 1089.42 330.781C1088.91 328.452 1089.16 325.987 1090.13 323.854C1091.1 321.721 1092.71 320.069 1094.68 319.209Z" fill="#9E616A"/>
<path d="M1183.37 361.63C1172.96 367.852 1110.12 343.511 1107.38 342.443L1106.68 342.171L1119.6 328.597L1169.32 336.916L1170.83 303.652C1171 299.982 1172.16 296.461 1174.15 293.573C1176.14 290.684 1178.86 288.569 1181.94 287.517C1184.67 286.589 1187.57 286.535 1190.32 287.359C1193.08 288.184 1195.58 289.856 1197.57 292.193C1199.55 294.531 1200.93 297.444 1201.56 300.617C1202.19 303.789 1202.05 307.1 1201.16 310.188L1188.85 352.457C1187.91 355.702 1186.29 358.638 1184.13 361.015C1183.9 361.26 1183.65 361.468 1183.37 361.63Z" fill="#E6E6E6"/>
<path d="M1125.91 697.125H736.978L736.882 696.775L736.786 696.425C735.514 691.805 734.351 687.122 733.305 682.409C732.258 677.696 731.328 672.952 730.521 668.212C729.424 661.774 728.545 655.27 727.889 648.745C727.233 642.219 726.799 635.672 726.592 629.149C726.233 617.586 727.919 606.059 731.55 595.259C735.18 584.458 740.681 574.606 747.722 566.291C754.764 557.977 763.201 551.371 772.529 546.87C781.857 542.369 791.884 540.065 802.009 540.096H1068.25C1078.84 540.075 1089.31 542.604 1098.99 547.518C1108.66 552.433 1117.32 559.622 1124.4 568.617C1131.48 577.613 1136.82 588.212 1140.08 599.725C1143.33 611.237 1144.43 623.404 1143.29 635.432C1142.53 643.209 1141.26 650.909 1139.48 658.466C1137.64 666.283 1135.32 673.941 1132.54 681.384C1131.59 683.92 1130.58 686.461 1129.51 689.008C1128.45 691.549 1127.33 694.078 1126.16 696.595L1126.03 696.86L1125.91 697.125Z" fill="#E6E6E6"/>
<path d="M1071.12 571.602H791.89C785.739 571.602 779.839 568.809 775.488 563.838C771.138 558.868 768.695 552.126 768.695 545.097C768.695 538.067 771.138 531.326 775.488 526.355C779.839 521.384 785.739 518.592 791.89 518.592H1071.12C1077.27 518.592 1083.17 521.384 1087.52 526.355C1091.87 531.326 1094.31 538.067 1094.31 545.097C1094.31 552.126 1091.87 558.868 1087.52 563.838C1083.17 568.809 1077.27 571.602 1071.12 571.602Z" fill="#6C63FF"/>
<path d="M1074.64 553.271H790.418L790.226 552.571C785.828 536.632 783.322 520.091 782.774 503.391C782.522 494.918 783.766 486.473 786.432 478.562C789.098 470.65 793.131 463.433 798.29 457.34C803.449 451.248 809.629 446.405 816.462 443.1C823.295 439.796 830.64 438.097 838.059 438.106H1032.41C1040.17 438.097 1047.84 439.955 1054.93 443.56C1062.02 447.165 1068.37 452.435 1073.56 459.028C1078.75 465.621 1082.66 473.389 1085.05 481.826C1087.44 490.263 1088.24 499.18 1087.41 507.996C1085.98 522.926 1081.77 537.981 1074.89 552.741L1074.64 553.271Z" fill="#E6E6E6"/>
<path d="M1036.1 471.583H830.404C824.252 471.583 818.352 468.791 814.002 463.82C809.652 458.849 807.208 452.108 807.208 445.078C807.208 438.049 809.652 431.307 814.002 426.336C818.352 421.366 824.252 418.573 830.404 418.573H1036.1C1042.26 418.573 1048.16 421.366 1052.51 426.336C1056.86 431.307 1059.3 438.049 1059.3 445.078C1059.3 452.108 1056.86 458.849 1052.51 463.82C1048.16 468.791 1042.26 471.583 1036.1 471.583Z" fill="#6C63FF"/>
<path d="M1049.8 378.356C1045.49 372.865 1040.22 368.472 1034.32 365.463C1028.43 362.455 1022.04 360.897 1015.59 360.893H854.887C848.733 360.886 842.641 362.295 836.974 365.036C831.306 367.777 826.18 371.794 821.901 376.847C817.621 381.9 814.276 387.887 812.065 394.449C809.853 401.011 808.821 408.015 809.029 415.043C809.481 428.869 811.553 442.563 815.191 455.76L815.384 456.46H1050.59L1050.84 455.93C1056.33 444.443 1059.85 431.862 1061.21 418.863C1061.9 411.575 1061.24 404.201 1059.28 397.222C1057.31 390.243 1054.09 383.814 1049.8 378.356Z" fill="#E6E6E6"/>
<path d="M1012.65 360.893H860.856C859.729 364.87 859.441 369.096 860.015 373.225C860.59 377.354 862.011 381.269 864.163 384.651C866.315 388.032 869.136 390.784 872.397 392.682C875.657 394.579 879.264 395.569 882.923 395.569H990.587C994.246 395.569 997.853 394.579 1001.11 392.682C1004.37 390.784 1007.2 388.032 1009.35 384.651C1011.5 381.269 1012.92 377.354 1013.49 373.225C1014.07 369.096 1013.78 364.87 1012.65 360.893Z" fill="#6C63FF"/>
<path d="M1131.73 680.992C1129.84 686.053 1127.73 691.097 1125.39 696.125H737.621C735.08 686.898 732.997 677.514 731.38 668.019C732.103 667.378 732.939 666.922 733.83 666.684C734.721 666.446 735.647 666.43 736.544 666.639C738.392 667.308 739.989 668.668 741.078 670.5C744.343 675.341 745.709 681.472 746.996 687.413C748.37 683.912 749.797 680.322 752.195 677.621C753.149 676.491 754.299 675.599 755.57 675.001C756.842 674.404 758.208 674.114 759.583 674.151C760.554 672.165 761.94 670.485 763.618 669.26C765.972 667.66 769.185 667.439 771.329 669.37C772.768 670.853 773.728 672.848 774.052 675.031C775.251 680.992 774.253 687.213 773.255 693.234C775.785 690.694 778.393 688.113 781.553 686.803C782.983 686.205 784.506 685.95 786.026 686.053C786.323 682.726 787.092 679.476 788.302 676.431C789.325 673.512 791.094 671.013 793.378 669.26C795.733 667.66 798.945 667.439 801.09 669.37C802.529 670.853 803.488 672.848 803.812 675.031C805.011 680.992 804.014 687.213 803.016 693.234C805.545 690.694 808.154 688.113 811.314 686.803C812.744 686.205 814.266 685.95 815.787 686.053C816.084 682.726 816.853 679.476 818.062 676.431C819.086 673.512 820.855 671.013 823.139 669.26C825.494 667.66 828.706 667.439 830.851 669.37C832.29 670.853 833.249 672.848 833.573 675.031C834.772 680.992 833.774 687.213 832.776 693.234C835.306 690.694 837.915 688.113 841.074 686.803C842.505 686.205 844.027 685.95 845.547 686.053C845.845 682.726 846.613 679.476 847.823 676.431C848.847 673.512 850.616 671.013 852.9 669.26C855.255 667.66 858.467 667.439 860.611 669.37C862.051 670.853 863.01 672.848 863.334 675.031C864.533 680.992 863.535 687.213 862.537 693.234C865.067 690.694 867.675 688.113 870.835 686.803C872.265 686.205 873.788 685.95 875.308 686.053C875.606 682.726 876.374 679.476 877.584 676.431C878.607 673.512 880.376 671.013 882.661 669.26C885.015 667.66 888.228 667.439 890.372 669.37C891.811 670.853 892.771 672.848 893.094 675.031C894.294 680.992 893.296 687.213 892.298 693.234C894.828 690.694 897.436 688.113 900.596 686.803C902.026 686.205 903.549 685.95 905.069 686.053C905.366 682.726 906.135 679.476 907.345 676.431C908.368 673.512 910.137 671.013 912.421 669.26C914.776 667.66 917.988 667.439 920.133 669.37C921.572 670.853 922.531 672.848 922.855 675.031C924.054 680.992 923.057 687.213 922.059 693.234C924.588 690.694 927.197 688.113 930.357 686.803C931.787 686.205 933.309 685.95 934.83 686.053C935.127 682.726 935.896 679.476 937.105 676.431C938.129 673.512 939.898 671.013 942.182 669.26C944.537 667.66 947.749 667.439 949.894 669.37C951.333 670.853 952.292 672.848 952.616 675.031C953.815 680.992 952.817 687.213 951.819 693.234C954.349 690.694 956.958 688.113 960.117 686.803C961.548 686.205 963.07 685.95 964.59 686.053C964.888 682.726 965.656 679.476 966.866 676.431C967.889 673.512 969.659 671.013 971.943 669.26C974.298 667.66 977.51 667.439 979.654 669.37C981.094 670.853 982.053 672.848 982.377 675.031C983.576 680.992 982.578 687.213 981.58 693.234C984.11 690.694 986.718 688.113 989.878 686.803C991.308 686.205 992.831 685.95 994.351 686.053C994.648 682.726 995.417 679.476 996.627 676.431C997.65 673.512 999.419 671.013 1001.7 669.26C1004.06 667.66 1007.27 667.439 1009.42 669.37C1010.85 670.853 1011.81 672.848 1012.14 675.031C1013.34 680.992 1012.34 687.213 1011.34 693.234C1013.87 690.694 1016.48 688.113 1019.64 686.803C1021.07 686.205 1022.59 685.95 1024.11 686.053C1024.41 682.726 1025.18 679.476 1026.39 676.431C1027.41 673.512 1029.18 671.013 1031.46 669.26C1033.82 667.66 1037.03 667.439 1039.18 669.37C1040.62 670.853 1041.57 672.848 1041.9 675.031C1043.1 680.992 1042.1 687.213 1041.1 693.234C1043.63 690.694 1046.24 688.113 1049.4 686.803C1050.83 686.205 1052.35 685.95 1053.87 686.053C1054.17 682.726 1054.94 679.476 1056.15 676.431C1057.17 673.512 1058.94 671.013 1061.23 669.26C1063.58 667.66 1066.79 667.439 1068.94 669.37C1070.38 670.853 1071.33 672.848 1071.66 675.031C1072.86 680.992 1071.86 687.213 1070.86 693.234C1073.39 690.694 1076 688.113 1079.16 686.803C1080.59 686.205 1082.11 685.95 1083.63 686.053C1083.93 682.726 1084.7 679.476 1085.91 676.431C1086.93 673.512 1088.7 671.013 1090.99 669.26C1093.34 667.66 1096.55 667.439 1098.7 669.37C1100.14 670.853 1101.1 672.848 1101.42 675.031C1102.62 680.992 1101.62 687.213 1100.62 693.234C1103.15 690.694 1105.76 688.113 1108.92 686.803C1110.35 686.205 1111.87 685.95 1113.39 686.053C1113.69 682.726 1114.46 679.476 1115.67 676.431C1116.69 673.512 1118.46 671.013 1120.75 669.26C1123.1 667.66 1126.31 667.439 1128.46 669.37C1129.9 670.853 1130.86 672.848 1131.18 675.031C1131.56 676.988 1131.75 678.987 1131.73 680.992Z" fill="#CCCCCC"/>
<path d="M814.967 393.426C821.109 390.329 828.516 391.503 833.998 395.777C839.771 400.277 842.459 408.202 841.757 416.022C841.368 420.509 839.776 424.749 837.2 428.164L838.128 427.724C835.269 427.685 833.704 423.862 834.138 420.975C834.726 417.065 838.634 415.042 841.739 414.749C845.967 414.349 850.032 416.444 853.844 418.251C857.935 420.206 862.126 421.878 866.394 423.256C875.073 426.025 884.02 427.55 893.029 427.795C897.47 427.917 901.913 427.719 906.333 427.201C910.371 426.726 914.511 426.14 918.299 424.384C922.128 422.608 925.436 419.688 927.072 415.251C927.877 413.286 928.204 411.108 928.016 408.949C927.828 406.789 927.132 404.728 926.004 402.983C925.84 402.8 925.638 402.668 925.417 402.601C925.196 402.534 924.963 402.534 924.741 402.6C924.52 402.667 924.318 402.799 924.154 402.982C923.991 403.165 923.872 403.393 923.809 403.645C923.203 407.069 923.228 410.6 923.883 414.012C924.538 417.424 925.808 420.643 927.612 423.463C929.529 426.471 932.015 428.947 934.886 430.707C937.756 432.466 940.936 433.463 944.19 433.624C951.619 434.082 958.885 430.792 965.337 426.895C972.079 422.822 978.23 417.605 985.085 413.758C991.698 410.047 999.315 407.314 1006.67 409.54C1012.54 411.314 1018.73 417.167 1016.8 424.859C1016.05 427.83 1013.97 430.332 1011.13 430.322C1008.73 430.314 1005.96 428.578 1005.67 425.607C1005.32 422.047 1008.3 419.251 1010.96 418.201C1014.76 416.697 1019 417.824 1022.89 418.202C1029.28 418.855 1035.65 416.796 1040.79 412.418C1045.75 408.294 1049.36 402.398 1051.06 395.663C1051.46 393.947 1051.72 392.193 1051.83 390.422C1051.97 388.497 1049.34 388.507 1049.21 390.422C1048.88 394.033 1047.93 397.534 1046.42 400.724C1044.9 403.913 1042.85 406.728 1040.38 409.004C1037.91 411.352 1035.07 413.124 1032.01 414.219C1028.68 415.304 1025.2 415.597 1021.77 415.08C1017.83 414.621 1013.59 413.797 1009.78 415.511C1006.86 416.824 1004.04 419.428 1003.24 423.041C1001.69 430.072 1008.73 435.165 1014.12 432.675C1020.18 429.88 1021.11 420.545 1017.89 414.828C1014.01 407.957 1006.28 405.285 999.443 405.796C983.208 407.011 971.428 421.878 956.777 428.067C949.864 430.988 941.879 432.117 935.269 427.595C932.593 425.693 930.354 423.087 928.739 419.994C927.124 416.901 926.18 413.411 925.987 409.817C925.897 408.015 926.016 406.208 926.341 404.443L924.147 405.105C925.783 407.523 925.715 410.825 924.843 413.579C923.783 416.662 921.753 419.182 919.152 420.645C916.292 422.242 913.214 423.268 910.051 423.679C906.546 424.26 903.015 424.616 899.474 424.746C885.228 425.343 871.023 422.645 857.712 416.815C851.713 414.182 845.357 410.119 838.752 412.359C833.774 414.048 829.957 419.488 832.038 425.5C832.419 426.755 833.07 427.88 833.932 428.772C834.793 429.664 835.838 430.294 836.968 430.604C837.567 430.81 838.208 430.78 838.791 430.52C839.324 430.045 839.775 429.46 840.122 428.797C841.005 427.474 841.758 426.045 842.369 424.535C844.694 418.756 845.124 412.215 843.582 406.104C839.924 391.915 825.288 384.964 813.642 390.835C812.099 391.613 813.434 394.199 814.967 393.426Z" fill="#3F3D56"/>
<path d="M786.248 482.814C790.007 493.161 795.731 502.425 803.006 509.936C810.282 517.447 818.927 523.017 828.316 526.243C831.515 527.354 834.796 528.132 838.117 528.568C841.281 528.958 844.753 528.731 847.372 526.437C851.145 523.134 851.064 513.692 845.089 513.761C842.136 513.796 839.664 516.887 839.297 520.098C838.869 523.845 840.908 527.347 843.351 529.612C848.712 534.581 856.066 535.194 862.602 533.639C870.107 531.852 876.685 527.005 883.266 522.756C890.802 517.891 899.757 513.006 908.62 515.612C915.342 517.589 921.472 525.651 919.28 533.882L921.209 532.986C918.291 531.474 917.582 527.296 918.728 524.099C920.162 520.098 924.355 518.603 927.834 518.606C932.42 518.61 936.657 521.042 940.728 523.186C944.474 525.2 948.367 526.84 952.361 528.085C968.115 532.764 984.8 531.073 999.587 523.298C1003.22 521.421 1006.67 519.13 1009.9 516.461C1012.45 514.309 1015.4 510.544 1013.34 506.767C1012.96 506.031 1012.43 505.412 1011.8 504.966C1011.16 504.52 1010.44 504.259 1009.69 504.208C1007.89 504.197 1007.11 505.624 1006.54 507.364C1005.44 511.069 1005.42 515.087 1006.51 518.8C1008.79 527.029 1014.86 532.709 1022.07 534.782C1030.04 537.075 1038.62 535.511 1046.32 532.678C1061.06 527.207 1073.75 516.227 1082.35 501.508C1083.42 499.658 1084.42 497.752 1085.34 495.802C1086.15 494.105 1083.89 492.589 1083.08 494.288C1076.01 509.008 1064.86 520.626 1051.39 527.315C1039.02 533.453 1018.54 537.972 1010.45 521.674C1008.78 518.46 1008.07 514.709 1008.44 510.992C1008.58 509.815 1008.91 506.411 1010.42 507.522C1012.14 508.78 1011.21 511.003 1010.12 512.332C1007.67 515.327 1003.96 517.43 1000.8 519.292C997.41 521.282 993.875 522.928 990.235 524.209C975.485 529.467 959.601 528.761 945.253 522.21C937.641 518.647 928.951 512.323 920.698 517.55C919.202 518.453 917.942 519.792 917.046 521.431C916.15 523.071 915.649 524.952 915.595 526.883C915.503 530.427 916.967 534.065 919.884 535.577C920.059 535.687 920.253 535.752 920.452 535.766C920.652 535.779 920.851 535.742 921.036 535.656C921.221 535.57 921.387 535.437 921.521 535.269C921.656 535.1 921.755 534.899 921.813 534.68C923.455 528.511 921.181 522.055 917.196 517.755C912.509 512.698 906.127 511.249 899.87 512.236C885.658 514.478 875.354 527.796 861.443 530.851C855.442 532.169 848.038 531.429 843.72 525.888C841.791 523.412 840.702 518.399 844.308 516.941C846.954 515.871 847.782 519.456 847.192 521.662C845.369 528.477 835.298 525.252 831.118 524.017C825.371 522.306 819.867 519.664 814.775 516.169C803.124 508.271 794.009 496.296 788.78 482.016C788.15 480.252 785.608 481.024 786.248 482.814Z" fill="#CCCCCC"/>
<path d="M730.092 610.075C750.222 605.74 774.973 601.373 790.073 621.354C793.068 625.234 795.138 629.931 796.082 634.991C796.482 637.266 796.983 639.791 794.961 641.196C794.183 641.71 793.304 641.99 792.406 642.011C791.507 642.033 790.619 641.794 789.822 641.318C785.412 638.522 787.869 631.085 791.189 628.648C795.709 625.329 801.525 626.746 806.164 628.907C811.198 631.25 815.959 634.246 821.052 636.454C825.866 638.539 830.803 640.237 835.824 641.534C846.227 644.227 856.907 645.247 867.556 644.566C877.883 644.028 888.083 641.735 897.819 637.763C901.545 636.175 905.422 633.881 907.691 630.001C908.734 628.276 909.269 626.215 909.218 624.119C909.166 622.023 908.532 620.001 907.406 618.345C906.222 616.526 904.517 615.24 902.588 614.71C900.659 614.181 898.629 614.441 896.851 615.446C895.206 616.461 893.87 618.023 893.019 619.924C892.32 621.49 891.408 624.587 892.3 626.237C892.753 627.075 893.862 627.408 894.588 627.815C895.803 628.496 897.029 629.153 898.264 629.787C900.424 630.896 902.61 631.937 904.822 632.91C909.665 635.035 914.617 636.816 919.652 638.243C939.46 643.838 960.132 644.131 980.056 639.097C985.01 637.842 989.893 636.245 994.678 634.316C999.202 632.49 1003.98 630.537 1008.14 627.771C1011.42 625.59 1015.26 621.844 1014.95 617.048C1014.83 615.295 1014.11 613.666 1012.95 612.508C1011.79 611.351 1010.29 610.755 1008.75 610.848C1007.17 610.853 1005.62 611.361 1004.28 612.313C1002.94 613.265 1001.86 614.625 1001.16 616.241C999.378 620.859 1001.16 626.119 1003.76 629.806C1009.37 637.767 1018.95 640.627 1027.54 640.529C1037.5 640.416 1046.94 636.822 1056.17 632.915C1066.52 628.538 1077.31 623.68 1088.55 624.456C1098.67 625.155 1108.22 632 1118.5 630.579C1127.42 629.346 1132.66 621.186 1134.97 611.894C1136.02 607.364 1136.74 602.743 1137.11 598.078C1137.3 596.162 1134.67 596.177 1134.49 598.078C1133.59 607.198 1132.24 618.765 1125.18 624.557C1116.62 631.58 1105.48 625.391 1096.51 622.896C1086.16 620.018 1076 621.98 1066.02 625.715C1056.2 629.393 1046.74 634.422 1036.5 636.521C1027.61 638.345 1017.77 638.143 1010.01 632.222C1006.2 629.313 1001.66 623.595 1003.41 617.867C1004.41 614.594 1009.63 611.916 1011.75 615.35C1014.87 620.406 1007.02 625.198 1004.01 626.782C999.397 629.2 994.654 631.281 989.81 633.012C958.106 644.313 923.804 641.149 894.097 624.184L894.747 625.48C894.242 620.298 898.849 615.437 903.246 618.163C907.433 620.759 907.406 626.458 904.281 630.032C901.203 633.552 896.789 635.119 892.727 636.513C888.245 638.051 883.68 639.258 879.062 640.127C859.667 643.737 839.782 641.422 821.422 633.417C813.2 629.817 804.684 622.505 795.467 623.866C791.79 624.409 788.234 626.448 786.323 630.203C784.639 633.512 784.277 637.862 786.067 641.213C788.924 646.56 798.932 646.314 799.105 638.812C799.302 630.267 794.583 621.735 789.311 616.136C772.894 598.698 749.47 602.859 729.394 607.182C727.735 607.539 728.438 610.431 730.092 610.075Z" fill="#CCCCCC"/>
<path d="M984.659 318.805C991.045 317.56 993.782 308.756 992.282 302.274C991.306 298.059 989.017 294.442 986.474 291.271C983.522 287.592 980.248 284.232 977.103 280.773C973.257 276.543 969.412 272.313 965.566 268.083C965.402 267.901 965.2 267.77 964.979 267.704C964.758 267.638 964.526 267.638 964.305 267.704C964.084 267.771 963.882 267.902 963.718 268.084C963.555 268.267 963.435 268.494 963.372 268.745C961.708 281.128 964.317 293.766 970.648 303.995C972.266 306.55 974.087 308.928 976.089 311.099C978.043 313.245 980.137 315.38 981.351 318.203L984.883 321.162C984.766 320.369 984.59 319.588 984.358 318.829C984.459 318.833 984.559 318.825 984.659 318.805Z" fill="#FD6584"/>
<path d="M984.46 318.055H981.834C983.213 321.263 982.649 326.144 982.458 329.621C982.244 333.508 981.95 337.391 981.692 341.274C981.114 350.007 980.535 358.741 979.956 367.474C979.828 369.4 982.455 369.39 982.582 367.474L984.122 344.24C984.384 340.286 984.646 336.331 984.908 332.376C985.12 327.597 984.97 322.805 984.46 318.055Z" fill="#3F3D56"/>
<path d="M984.646 318.394C985.2 316.525 985.397 314.543 985.226 312.579C985.054 310.616 984.517 308.717 983.65 307.01C983.468 306.681 983.181 306.445 982.85 306.353C982.519 306.261 982.17 306.319 981.876 306.515C981.582 306.712 981.366 307.031 981.274 307.406C981.182 307.781 981.221 308.182 981.383 308.524C982.077 309.884 982.502 311.401 982.629 312.968C982.755 314.535 982.579 316.115 982.113 317.597C982.021 317.98 982.066 318.39 982.238 318.736C982.41 319.081 982.696 319.335 983.031 319.44C983.367 319.546 983.725 319.495 984.028 319.299C984.33 319.103 984.553 318.778 984.646 318.394Z" fill="#3F3D56"/>
<path d="M882.247 315.804C888.633 314.559 891.37 305.755 889.87 299.273C888.894 295.058 886.605 291.441 884.062 288.27C881.11 284.591 877.836 281.231 874.691 277.772C870.845 273.542 867 269.312 863.154 265.082C862.99 264.9 862.788 264.769 862.567 264.703C862.346 264.637 862.114 264.637 861.893 264.703C861.672 264.77 861.47 264.901 861.306 265.083C861.143 265.266 861.023 265.493 860.96 265.744C859.297 278.128 861.905 290.765 868.237 300.994C869.854 303.549 871.675 305.927 873.677 308.098C875.631 310.244 877.725 312.379 878.939 315.202L882.471 318.161C882.354 317.368 882.178 316.587 881.946 315.828C882.047 315.832 882.148 315.824 882.247 315.804Z" fill="#FD6584"/>
<path d="M882.048 315.054H879.422C880.801 318.262 880.237 323.143 880.046 326.62C879.832 330.507 879.538 334.39 879.281 338.274C878.702 347.007 878.123 355.74 877.544 364.473C877.416 366.399 880.043 366.39 880.17 364.473L881.71 341.24C881.972 337.285 882.234 333.331 882.496 329.376C882.709 324.596 882.559 319.804 882.048 315.054Z" fill="#3F3D56"/>
<path d="M882.234 315.394C882.788 313.525 882.985 311.542 882.814 309.579C882.642 307.615 882.105 305.716 881.238 304.009C881.056 303.68 880.769 303.445 880.438 303.352C880.107 303.26 879.758 303.318 879.464 303.515C879.17 303.711 878.954 304.031 878.862 304.405C878.77 304.78 878.809 305.181 878.971 305.524C879.665 306.883 880.09 308.4 880.216 309.967C880.343 311.535 880.167 313.115 879.701 314.596C879.609 314.98 879.654 315.389 879.826 315.735C879.998 316.081 880.283 316.334 880.619 316.44C880.954 316.546 881.313 316.495 881.616 316.299C881.918 316.103 882.141 315.777 882.234 315.394Z" fill="#3F3D56"/>
<path d="M930.389 310.803C936.775 309.558 939.512 300.755 938.012 294.273C937.037 290.058 934.748 286.44 932.204 283.27C929.252 279.591 925.978 276.231 922.833 272.771C918.988 268.541 915.142 264.312 911.297 260.082C911.133 259.899 910.931 259.769 910.71 259.702C910.489 259.636 910.256 259.636 910.035 259.703C909.814 259.77 909.612 259.9 909.449 260.083C909.285 260.265 909.166 260.493 909.102 260.744C907.439 273.127 910.048 285.765 916.379 295.993C917.996 298.549 919.818 300.927 921.819 303.098C923.773 305.243 925.868 307.379 927.081 310.202L930.613 313.161C930.496 312.368 930.321 311.587 930.089 310.827C930.189 310.831 930.29 310.823 930.389 310.803Z" fill="#FD6584"/>
<path d="M930.19 310.053H927.564C928.943 313.261 928.38 318.142 928.188 321.619C927.974 325.506 927.68 329.389 927.423 333.273C926.844 342.006 926.265 350.739 925.686 359.472C925.559 361.398 928.185 361.389 928.312 359.472L929.852 336.239C930.114 332.284 930.376 328.33 930.639 324.375C930.851 319.595 930.701 314.803 930.19 310.053Z" fill="#3F3D56"/>
<path d="M930.376 310.393C930.93 308.524 931.128 306.541 930.956 304.578C930.785 302.614 930.247 300.715 929.381 299.008C929.199 298.679 928.912 298.444 928.581 298.351C928.25 298.259 927.901 298.317 927.606 298.514C927.312 298.71 927.096 299.03 927.004 299.404C926.912 299.779 926.951 300.18 927.113 300.523C927.807 301.882 928.233 303.399 928.359 304.966C928.485 306.534 928.309 308.114 927.844 309.595C927.752 309.979 927.797 310.388 927.969 310.734C928.141 311.08 928.426 311.333 928.761 311.439C929.097 311.545 929.455 311.494 929.758 311.298C930.061 311.102 930.283 310.776 930.376 310.393Z" fill="#3F3D56"/>
<path d="M967.323 489.322C966.675 486.497 964.202 484.111 961.687 484.633C959.666 485.052 958.177 487.169 957.618 489.427C957.184 491.727 957.127 494.099 957.451 496.422C955.196 493.712 952.85 490.929 949.832 489.484C948.77 488.887 947.562 488.718 946.405 489.003C945.618 489.332 944.933 489.917 944.436 490.687C943.938 491.458 943.65 492.378 943.607 493.334C943.553 495.255 944.006 497.15 944.908 498.772C946.167 501.257 947.896 503.389 949.968 505.013C952.04 506.638 954.403 507.713 956.885 508.162L956.072 506.949C960.204 505.302 963.684 502.022 965.885 497.701C967.162 495.171 967.971 492.147 967.323 489.322Z" fill="#6C63FF"/>
<path d="M848.28 607.343C847.632 604.518 845.159 602.132 842.644 602.654C840.623 603.073 839.134 605.19 838.575 607.449C838.141 609.749 838.084 612.12 838.408 614.444C836.153 611.734 833.807 608.95 830.789 607.505C829.727 606.908 828.519 606.739 827.362 607.025C826.575 607.353 825.89 607.939 825.393 608.709C824.895 609.479 824.607 610.4 824.564 611.356C824.51 613.276 824.964 615.171 825.865 616.793C827.124 619.278 828.853 621.41 830.925 623.035C832.997 624.659 835.36 625.735 837.842 626.183L837.029 624.97C841.161 623.324 844.641 620.044 846.842 615.722C848.119 613.192 848.928 610.168 848.28 607.343Z" fill="#6C63FF"/>
<path d="M869.288 431.311C868.64 428.486 866.166 426.1 863.652 426.622C861.631 427.041 860.141 429.158 859.583 431.417C859.149 433.716 859.092 436.088 859.416 438.412C857.161 435.702 854.814 432.918 851.796 431.473C850.734 430.876 849.527 430.707 848.37 430.993C847.583 431.321 846.898 431.907 846.4 432.677C845.903 433.447 845.614 434.367 845.571 435.323C845.518 437.244 845.971 439.139 846.872 440.761C848.132 443.246 849.861 445.378 851.933 447.002C854.005 448.627 856.368 449.702 858.85 450.151L858.037 448.938C862.168 447.292 865.649 444.011 867.85 439.69C869.127 437.16 869.936 434.136 869.288 431.311Z" fill="#6C63FF"/>
<path d="M1054.3 266.067C1052.13 276.938 1051.1 289.264 1056.88 298.993C1059.33 303.167 1062.94 306.285 1067.12 307.856C1071.35 309.29 1075.81 309.603 1080.17 308.772C1090.02 307.212 1098.77 301.348 1108.46 299.072C1112.74 298.067 1117.28 297.735 1121.39 299.669C1124.48 301.117 1127.73 304.03 1127.74 308.185C1127.76 312.452 1124.51 315.283 1121.29 316.595C1116.98 318.346 1112.51 317.668 1108.05 317.447C1103.24 317.21 1098.34 317.707 1094.34 321.071C1090.91 324.135 1088.27 328.216 1086.73 332.87C1084.72 338.437 1083.91 344.423 1082.62 350.231C1081.47 355.453 1079.85 360.524 1077.78 365.36C1073.71 374.838 1068.01 383.28 1061.02 390.179C1057.57 393.57 1053.38 397.024 1048.68 397.335C1045.04 397.575 1040.63 395.831 1039.23 391.627C1038.71 389.812 1038.76 387.846 1039.37 386.07C1039.99 384.293 1041.12 382.817 1042.59 381.896C1045.7 380.101 1049.09 382.661 1050.09 386.176C1050.36 386.986 1050.45 387.856 1050.36 388.714C1050.28 389.573 1050.01 390.396 1049.59 391.116C1048.65 392.724 1050.92 394.228 1051.86 392.63C1054.04 388.921 1052.9 383.933 1050.24 380.962C1048.93 379.447 1047.2 378.525 1045.34 378.367C1043.49 378.209 1041.65 378.827 1040.17 380.105C1038.63 381.445 1037.46 383.27 1036.82 385.356C1036.17 387.442 1036.07 389.698 1036.53 391.847C1037.65 396.464 1041.63 399.401 1045.59 400.129C1050.49 401.027 1055.2 398.828 1059.15 395.651C1063.12 392.38 1066.72 388.575 1069.89 384.316C1076.33 375.853 1081.17 365.962 1084.11 355.262C1087 344.679 1087.21 330.698 1095.8 323.551C1100.22 319.873 1105.64 320.281 1110.82 320.618C1115.39 320.916 1119.85 320.862 1124.05 318.496C1127.51 316.542 1130.31 312.936 1130.37 308.342C1130.43 303.704 1127.54 299.974 1124.15 297.861C1115.18 292.279 1104.41 296.781 1095.59 300.511C1086.73 304.261 1076.61 308.663 1067.2 304.716C1062.85 302.786 1059.35 298.965 1057.46 294.091C1055.18 288.565 1054.86 282.295 1055.39 276.297C1055.7 273.122 1056.18 269.972 1056.83 266.864C1057.2 264.984 1054.67 264.182 1054.3 266.067Z" fill="#3F3D56"/>
<path d="M1070.39 235.569C1067.8 245.476 1063.88 254.867 1058.79 263.414C1057.53 265.514 1056.2 267.561 1054.81 269.555C1053.73 267.313 1052.43 265.225 1050.92 263.334C1045.62 256.683 1038.52 252.332 1031.63 247.971C1024.75 243.61 1017.75 238.929 1012.89 231.858C1010.7 228.675 1009.14 224.996 1008.3 221.066C1007.2 215.735 1007.62 210.174 1010.34 205.723C1014.29 199.252 1022.18 196.972 1028.89 198.842C1035.6 200.712 1041.22 206.043 1045.58 212.164C1044.15 204.643 1051.09 197.382 1057.81 198.042C1064.52 198.712 1069.9 205.413 1071.69 212.835C1073.48 220.246 1072.32 228.187 1070.39 235.569Z" fill="#6C63FF"/>
<g opacity="0.2">
<path d="M1058.79 263.414C1057.53 265.514 1056.2 267.561 1054.81 269.555C1053.73 267.313 1052.43 265.225 1050.92 263.334C1045.62 256.683 1038.52 252.332 1031.63 247.971C1024.75 243.61 1017.75 238.929 1012.89 231.858C1010.7 228.675 1009.14 224.995 1008.3 221.066C1023.78 223.519 1038.01 232.145 1048.48 245.42C1052.66 250.81 1056.14 256.872 1058.79 263.414Z" fill="black"/>
</g>
<path d="M1219.37 405.279C1220.62 405.241 1221.85 404.89 1222.97 404.251C1224.08 403.613 1225.06 402.702 1225.84 401.584C1226.61 400.465 1227.17 399.166 1227.46 397.778C1227.74 396.389 1227.76 394.945 1227.51 393.547L1252.71 375.189L1238.5 367.344L1216.8 386.01C1214.77 386.651 1213.02 388.118 1211.88 390.135C1210.73 392.152 1210.28 394.578 1210.6 396.953C1210.91 399.328 1211.98 401.487 1213.6 403.022C1215.22 404.557 1217.27 405.36 1219.37 405.279Z" fill="#9E616A"/>
<path d="M1224.51 315.944C1224.51 315.944 1209.72 302.279 1215.59 292.583C1221.46 282.888 1236.45 293.445 1236.45 293.445L1280.07 350.108C1280.07 350.108 1233.73 398.17 1235.17 391.032C1236.6 383.894 1225.85 378.315 1225.85 378.315L1246.53 351.739L1242 349.226L1243.85 348.01L1241.9 342.799L1224.51 315.944Z" fill="#E6E6E6"/>
<path d="M1360 697.5C1360 697.656 1359.97 697.811 1359.92 697.956C1359.87 698.1 1359.79 698.232 1359.7 698.342C1359.6 698.453 1359.48 698.541 1359.36 698.6C1359.23 698.66 1359.1 698.69 1358.96 698.69L1161.99 698.72L1148.23 698.73L1139.15 698.74H1129.11L1123.63 698.75L1108.42 698.76L869.053 698.9L867.232 698.91L760.164 698.95H758.395L667.258 698.99H665.489L637.042 699C636.765 699 636.5 698.875 636.305 698.651C636.11 698.428 636 698.125 636 697.81C636 697.494 636.11 697.191 636.305 696.968C636.5 696.745 636.765 696.62 637.042 696.62L665.787 696.61H667.555L758.667 696.57H760.435L866.672 696.53H868.484L959.009 696.49H960.199L1106.75 696.39L1121.94 696.38L1128.89 696.37L1139.88 696.36H1149.26L1164.04 696.35L1358.96 696.31C1359.1 696.309 1359.23 696.34 1359.36 696.399C1359.48 696.459 1359.6 696.547 1359.7 696.657C1359.79 696.768 1359.87 696.899 1359.92 697.044C1359.97 697.188 1360 697.343 1360 697.5Z" fill="#CACACA"/>
<path d="M1238.02 221.494C1236.13 218.169 1234.03 214.655 1230.81 213.169C1227.59 211.683 1223.02 213.46 1222.58 217.398C1222.26 220.342 1224.22 222.87 1225.7 225.308C1227.18 227.747 1228.14 231.427 1226.21 233.409L1225.12 234.049C1226.16 235.584 1227.5 236.818 1229.04 237.654C1230.57 238.489 1232.25 238.903 1233.95 238.861C1237.33 238.617 1240.59 235.751 1241.16 231.937C1241.71 228.218 1239.83 224.654 1238.02 221.494Z" fill="#2F2E41"/>
</g>
<defs>
<clipPath id="clip0_1_12146">
<rect width="724" height="501" fill="white" transform="translate(636 198)"/>
</clipPath>
</defs>
</svg>
