<svg width="841" height="794" viewBox="0 0 841 794" fill="none" xmlns="http://www.w3.org/2000/svg">
<path d="M362.426 30.8556C353.972 45.689 337.277 54.8765 334.797 66.6964C332.52 77.5539 342.257 88.5563 356.473 91.1888C348.71 89.7512 344.391 84.8719 345.635 78.9426C346.879 73.0134 362.676 61.6197 362.676 61.6197C362.676 61.6197 372.69 77.793 371.446 83.7223C370.202 89.6515 364.237 92.6265 356.473 91.1888C370.689 93.8214 384.142 87.1131 386.419 76.2557C391.588 51.6147 362.426 30.8556 362.426 30.8556ZM381.946 95.5858C381.224 95.5321 380.552 95.4877 379.864 95.5204C379.596 95.5507 379.27 95.6102 378.993 95.679L325.303 95.9762C318.743 96.0413 313.691 99.9054 313.464 104.983C313.287 110.07 317.956 114.774 324.459 115.978L314.121 165.26L365.744 174.82L378.084 115.989L381.44 115.971C388.71 116.517 394.759 112.397 394.889 106.782C395.02 101.167 389.215 96.132 381.946 95.5858ZM234.62 160.778C212.691 156.717 193.214 166.43 189.701 183.178L188.667 188.106C187.011 195.999 206.235 206.718 230.735 211.255C260.428 216.753 279.006 204.835 279.006 204.835C279.006 204.835 292.692 222.728 327.527 229.178C362.362 235.629 382.251 223.953 382.251 223.953C382.251 223.953 395.937 241.846 424.319 247.102C448.819 251.639 470.934 248.575 472.59 240.682L473.624 235.754C477.137 219.005 463.039 203.076 441.11 199.015L234.62 160.778ZM276.292 217.771C266.025 222.029 249.337 224.939 228.668 221.111L218.182 219.169C204.176 215.536 192.118 210.103 185.178 204.739L177.295 242.316L151.484 237.536C149.207 248.394 158.944 259.396 173.16 262.029L457.083 314.605C471.299 317.237 484.752 310.529 487.029 299.672L461.218 294.892L469.295 256.39C459.237 259.648 447.163 260.532 432.737 258.9L422.251 256.958C401.582 253.131 387.527 243.489 379.537 236.89C368.169 239.904 349.96 243.572 325.46 239.035C300.959 234.498 285.383 225.614 276.292 217.771Z" fill="#00AEA6" fill-opacity="0.35"/>
<path d="M0.0678141 264.132C0.0890826 274.634 -6.19661 284.321 -3.84006 291.506C-1.67542 298.107 7.1387 301.449 15.7809 298.947C11.0614 300.314 7.15254 298.831 5.97043 295.227C4.78832 291.623 9.88572 280.972 9.88572 280.972C9.88572 280.972 20.4792 287.08 21.6613 290.684C22.8434 294.289 20.5004 297.581 15.7809 298.947C24.4231 296.445 29.7063 289.022 27.5416 282.421C22.629 267.442 0.0678141 264.132 0.0678141 264.132ZM31.1652 294.288C30.7515 294.46 30.3684 294.622 30.0008 294.831C29.8629 294.922 29.702 295.045 29.5718 295.16L0.155187 310.237C-3.42995 312.095 -4.99116 315.622 -3.51829 318.476C-2.01478 321.321 2.03191 322.61 5.98527 321.465L15.8106 351.424L47.1923 342.339L35.4633 306.576L37.3018 305.633C41.4694 303.914 43.4979 299.97 41.8026 296.847C40.1074 293.724 35.3328 292.569 31.1652 294.288ZM-29.2969 371.044C-42.628 374.904 -50.277 385.652 -46.938 395.834L-45.9554 398.83C-44.3819 403.628 -30.4429 404.18 -15.5489 399.868C2.50175 394.642 8.96254 382.93 8.96254 382.93C8.96254 382.93 22.1153 388.963 43.2918 382.833C64.4684 376.702 71.7259 364.76 71.7259 364.76C71.7259 364.76 84.8787 370.793 102.133 365.798C117.027 361.486 128.218 353.658 126.644 348.86L125.661 345.864C122.322 335.683 109.561 330.843 96.2299 334.703L-29.2969 371.044ZM11.5417 390.794C7.23813 395.987 -1.01884 402.222 -13.5838 405.859L-19.9582 407.705C-28.8 409.598 -37.1369 409.962 -42.6394 408.941L-35.1476 431.784L-50.8384 436.327C-48.6738 442.927 -39.8597 446.27 -31.2174 443.768L141.382 393.799C150.024 391.297 155.307 383.873 153.143 377.272L137.452 381.815L129.776 358.41C125.273 362.994 118.915 366.833 110.472 369.944L104.098 371.789C91.5327 375.427 80.7733 374.032 74.3051 372.624C69.0052 377.439 60.151 384.512 45.2569 388.824C30.3629 393.136 19.0063 392.58 11.5417 390.794Z" fill="#00AEA6" fill-opacity="0.35"/>
<path d="M263.773 421.242C264.661 426.889 262.089 432.563 263.957 436.254C265.673 439.644 270.693 440.792 275.132 438.81C272.708 439.892 270.481 439.383 269.544 437.532C268.608 435.68 270.46 429.576 270.46 429.576C270.46 429.576 276.668 432.08 277.605 433.932C278.541 435.783 277.556 437.727 275.132 438.81C279.571 436.827 281.793 432.444 280.077 429.053C276.184 421.359 263.773 421.242 263.773 421.242ZM283.017 435.169C282.809 435.292 282.617 435.407 282.436 435.547C282.37 435.606 282.294 435.684 282.233 435.756L267.67 446.034C265.897 447.298 265.352 449.31 266.383 450.736C267.429 452.156 269.713 452.551 271.744 451.643L279.531 467.033L295.651 459.833L286.356 441.461L287.266 440.819C289.364 439.587 290.125 437.316 288.953 435.761C287.78 434.207 285.116 433.937 283.017 435.169ZM256.908 480.912C250.06 483.97 246.843 490.316 249.49 495.546L250.268 497.085C251.516 499.549 259.059 498.818 266.71 495.401C275.982 491.259 278.479 484.484 278.479 484.484C278.479 484.484 286.057 486.759 296.935 481.9C307.813 477.041 310.72 470.083 310.72 470.083C310.72 470.083 318.298 472.358 327.161 468.399C334.812 464.982 340.177 459.947 338.93 457.482L338.152 455.943C335.505 450.713 328.237 449.051 321.389 452.11L256.908 480.912ZM280.523 488.524C278.642 491.634 274.722 495.596 268.267 498.479L264.993 499.942C260.395 501.612 255.941 502.422 252.896 502.279L258.834 514.013L250.774 517.613C252.489 521.004 257.509 522.152 261.949 520.169L350.611 480.566C355.05 478.583 357.272 474.201 355.556 470.81L347.496 474.41L341.412 462.387C339.373 465.185 336.274 467.719 331.993 470.015L328.718 471.477C322.264 474.36 316.36 474.403 312.764 474.123C310.315 477.103 306.144 481.561 298.493 484.978C290.842 488.395 284.687 488.934 280.523 488.524Z" fill="#00AEA6" fill-opacity="0.35"/>
<path d="M140.416 630.79C135.547 633.82 129.106 633.981 126.499 637.033C124.104 639.836 125.276 644.481 129.11 647.372C127.016 645.793 126.496 643.733 127.804 642.202C129.112 640.671 135.633 639.737 135.633 639.737C135.633 639.737 136.072 645.92 134.764 647.451C133.456 648.982 131.203 648.951 129.11 647.372C132.943 650.263 138.023 650.334 140.418 647.531C145.854 641.169 140.416 630.79 140.416 630.79ZM136.029 652.459C135.821 652.336 135.628 652.222 135.417 652.129C135.332 652.097 135.225 652.066 135.132 652.044L119.038 644.091C117.067 643.128 114.947 643.49 114.077 644.927C113.221 646.373 113.874 648.435 115.627 649.757L104.755 662.482L118.675 672.98L131.653 657.79L132.659 658.287C134.745 659.534 137.204 659.247 138.129 657.64C139.055 656.033 138.115 653.706 136.029 652.459ZM81.7019 649.28C75.7889 644.82 68.434 644.717 64.7393 649.041L63.6521 650.313C61.911 652.351 65.9638 658.334 72.5701 663.317C80.5764 669.355 88.011 668.685 88.011 668.685C88.011 668.685 89.276 675.917 98.6688 683.001C108.062 690.085 115.85 689.682 115.85 689.682C115.85 689.682 117.115 696.913 124.768 702.685C131.374 707.668 138.467 710.091 140.209 708.054L141.296 706.781C144.99 702.457 143.292 695.732 137.379 691.273L81.7019 649.28ZM85.1572 672.026C81.416 671.721 75.9689 670.065 70.3957 665.862L67.5683 663.729C63.9559 660.58 61.2099 657.201 59.9829 654.608L51.6932 664.311L44.7335 659.061C42.3384 661.865 43.5113 666.509 47.3445 669.4L123.901 727.141C127.734 730.032 132.814 730.103 135.209 727.3L128.25 722.051L136.743 712.11C133.223 711.547 129.475 709.995 125.421 707.362L122.593 705.23C117.02 701.027 114.342 696.13 112.996 693.022C109.122 692.193 103.101 690.528 96.4945 685.546C89.8882 680.563 86.6358 675.658 85.1572 672.026Z" fill="#00AEA6" fill-opacity="0.35"/>
<path d="M598.958 520.342C588.368 529.221 573.376 531.683 568.069 539.886C563.194 547.42 567.116 558.248 576.801 563.988C571.512 560.853 569.772 556.051 572.435 551.937C575.097 547.822 590.077 543.468 590.077 543.468C590.077 543.468 592.68 558.244 590.018 562.359C587.355 566.474 582.089 567.123 576.801 563.988C586.485 569.728 598.36 568.265 603.235 560.73C614.299 543.63 598.958 520.342 598.958 520.342ZM594.247 574.033C593.732 573.802 593.251 573.591 592.735 573.433C592.529 573.385 592.271 573.343 592.047 573.321L552.456 559.317C547.61 557.627 542.754 559.185 541.091 562.93C539.462 566.696 541.511 571.46 545.941 574.086L523.813 608.286L558.979 629.13L585.394 588.304L587.869 589.179C593.057 591.515 598.721 590.03 600.472 585.855C602.222 581.681 599.435 576.369 594.247 574.033ZM466.639 583.859C451.7 575.004 434.507 577.123 426.987 588.746L424.775 592.166C421.231 597.643 432.216 610.772 448.906 620.665C469.134 632.654 486.315 628.643 486.315 628.643C486.315 628.643 491.112 645.682 514.842 659.748C538.573 673.813 556.647 670.332 556.647 670.332C556.647 670.332 561.444 687.37 580.779 698.831C597.469 708.723 614.643 712.287 618.187 706.809L620.4 703.389C627.92 691.767 622.241 676.091 607.302 667.236L466.639 583.859ZM480.506 637.621C471.697 638.092 458.561 635.85 444.481 627.505L437.338 623.271C428.103 616.836 420.832 609.568 417.306 603.708L400.434 629.786L382.851 619.364C377.976 626.898 381.898 637.725 391.583 643.466L584.995 758.109C594.68 763.85 606.554 762.386 611.429 754.851L593.846 744.429L611.134 717.711C602.774 717.487 593.63 714.95 583.496 709.905L576.353 705.671C562.273 697.325 554.773 686.373 550.838 679.309C541.585 678.556 527.107 676.48 510.417 666.588C493.727 656.695 484.884 645.908 480.506 637.621Z" fill="#26C4BB" fill-opacity="0.25"/>
<path d="M740.886 683.258C741.824 689.326 739.11 695.424 741.081 699.391C742.891 703.035 748.187 704.268 752.87 702.137C750.312 703.301 747.964 702.754 746.975 700.764C745.987 698.774 747.941 692.214 747.941 692.214C747.941 692.214 754.49 694.905 755.478 696.895C756.467 698.885 755.427 700.973 752.87 702.137C757.553 700.006 759.897 695.296 758.087 691.652C753.98 683.383 740.886 683.258 740.886 683.258ZM761.189 698.225C760.969 698.357 760.766 698.481 760.576 698.631C760.506 698.694 760.425 698.779 760.361 698.855L744.998 709.901C743.128 711.259 742.552 713.422 743.64 714.955C744.744 716.48 747.153 716.905 749.296 715.93L757.511 732.469L774.517 724.731L764.71 704.987L765.671 704.297C767.884 702.973 768.687 700.532 767.45 698.861C766.213 697.19 763.402 696.901 761.189 698.225ZM733.644 747.384C726.42 750.672 723.027 757.491 725.818 763.112L726.64 764.766C727.955 767.414 735.913 766.629 743.985 762.956C753.767 758.505 756.401 751.223 756.401 751.223C756.401 751.223 764.396 753.669 775.872 748.447C787.348 743.225 790.414 735.747 790.414 735.747C790.414 735.747 798.408 738.192 807.759 733.937C815.83 730.265 821.49 724.853 820.175 722.205L819.353 720.551C816.561 714.93 808.894 713.144 801.669 716.431L733.644 747.384ZM758.557 755.565C756.573 758.908 752.437 763.166 745.628 766.264L742.173 767.836C737.323 769.631 732.625 770.502 729.412 770.348L735.676 782.959L727.173 786.828C728.983 790.472 734.279 791.705 738.962 789.574L832.497 747.013C837.18 744.882 839.524 740.172 837.714 736.529L829.211 740.398L822.793 727.476C820.642 730.483 817.372 733.206 812.856 735.673L809.401 737.245C802.592 740.344 796.364 740.39 792.57 740.088C789.987 743.291 785.586 748.082 777.515 751.755C769.443 755.427 762.95 756.006 758.557 755.565Z" fill="#26C4BB" fill-opacity="0.25"/>
</svg>
