<svg width="1393" height="781" viewBox="0 0 1393 781" fill="none" xmlns="http://www.w3.org/2000/svg">
<path d="M481.411 113.086C452.458 99.1687 415.397 103.909 393.307 108.878C388.226 90.8488 375.752 62.2988 346.799 48.3818C296.832 24.3644 241.31 35.7005 211.703 75.9068C179.045 120.256 201.27 169.73 222.743 217.543C232.881 240.129 243.399 263.488 247.985 286.062C248.802 289.82 251.631 293.128 255.683 295.076L256.493 295.465C260.598 297.439 265.493 297.843 269.971 296.63C296.769 289.141 327.142 285.437 356.6 281.884C418.855 274.315 483.275 266.489 515.933 222.14C545.54 181.934 531.378 137.103 481.411 113.086Z" fill="#F60B0B" fill-opacity="0.05"/>
<path d="M115.206 236.517C93.1421 247.638 84.0501 269.855 80.4511 283.856C63.3449 280.291 34.6901 277.099 12.6265 288.22C-25.4496 307.412 -35.4752 342.194 -11.8169 372.833C14.279 406.628 64.1504 411.821 112.346 416.843C135.11 419.218 158.665 421.656 179.455 427.104C182.935 427.981 186.745 427.584 189.832 426.028L190.45 425.717C193.578 424.14 195.654 421.57 196.209 418.659C199.335 401.157 206.94 383.013 214.349 365.43C229.957 328.249 246.111 289.777 220.015 255.982C196.357 225.343 153.282 217.325 115.206 236.517Z" fill="#F60B0B" fill-opacity="0.05"/>
<path d="M43.5467 67.4636C32.5223 69.9665 25.2877 78.4526 21.6293 84.0128C14.9421 80.8015 3.31592 76.5974 -7.70845 79.1003C-26.7337 83.4197 -36.2808 97.1246 -30.9561 112.434C-25.0828 129.32 -4.79308 136.484 14.8142 143.408C24.0746 146.68 33.6601 150.058 41.6172 154.432C42.9542 155.15 44.6257 155.361 46.1683 155.011L46.4768 154.941C48.04 154.586 49.3097 153.707 49.9884 152.531C53.9812 145.444 59.9655 138.532 65.7814 131.837C78.0543 117.674 90.7554 103.02 84.8821 86.1342C79.5574 70.8253 62.5719 63.1442 43.5467 67.4636Z" fill="#F60B0B" fill-opacity="0.05"/>
<path d="M1291.41 560.242C1262.46 546.324 1225.4 551.065 1203.31 556.034C1198.23 538.005 1185.75 509.455 1156.8 495.538C1106.83 471.52 1051.31 482.856 1021.7 523.063C989.045 567.412 1011.27 616.885 1032.74 664.699C1042.88 687.284 1053.4 710.643 1057.99 733.218C1058.8 736.976 1061.63 740.284 1065.68 742.231L1066.49 742.621C1070.6 744.594 1075.49 744.999 1079.97 743.785C1106.77 736.296 1137.14 732.593 1166.6 729.039C1228.86 721.471 1293.28 713.645 1325.93 669.296C1355.54 629.089 1341.38 584.259 1291.41 560.242Z" fill="#F60B0B" fill-opacity="0.14"/>
<path d="M925.206 683.673C903.142 694.793 894.05 717.011 890.451 731.012C873.345 727.447 844.69 724.255 822.627 735.376C784.55 754.567 774.525 789.35 798.183 819.988C824.279 853.784 874.15 858.976 922.346 863.998C945.11 866.374 968.665 868.812 989.455 874.259C992.935 875.137 996.745 874.74 999.832 873.184L1000.45 872.872C1003.58 871.296 1005.65 868.726 1006.21 865.815C1009.33 848.313 1016.94 830.169 1024.35 812.585C1039.96 775.405 1056.11 736.933 1030.02 703.137C1006.36 672.499 963.282 664.481 925.206 683.673Z" fill="#F60B0B" fill-opacity="0.14"/>
<path d="M853.547 514.619C842.522 517.122 835.288 525.608 831.629 531.169C824.942 527.957 813.316 523.753 802.292 526.256C783.266 530.575 773.719 544.28 779.044 559.589C784.917 576.476 805.207 583.639 824.814 590.564C834.075 593.836 843.66 597.214 851.617 601.588C852.954 602.305 854.626 602.517 856.168 602.167L856.477 602.097C858.04 601.742 859.31 600.862 859.988 599.687C863.981 592.6 869.966 585.688 875.781 578.993C888.054 564.83 900.755 550.176 894.882 533.29C889.557 517.981 872.572 510.3 853.547 514.619Z" fill="#F60B0B" fill-opacity="0.14"/>
<path d="M747.808 105.586C776.762 91.6692 813.823 96.4095 835.913 101.379C840.994 83.3493 853.468 54.7993 882.421 40.8822C932.388 16.8649 987.909 28.201 1017.52 68.4073C1050.17 112.756 1027.95 162.23 1006.48 210.044C996.339 232.629 985.821 255.988 981.234 278.562C980.418 282.32 977.588 285.629 973.537 287.576L972.727 287.966C968.621 289.939 963.726 290.343 959.249 289.13C932.451 281.641 902.078 277.937 872.62 274.384C810.365 266.816 745.945 258.989 713.287 214.64C683.68 174.434 697.842 129.604 747.808 105.586Z" fill="#F60B0B" fill-opacity="0.5"/>
<path d="M1114.01 229.018C1136.08 240.138 1145.17 262.355 1148.77 276.357C1165.87 272.792 1194.53 269.6 1216.59 280.721C1254.67 299.912 1264.69 334.695 1241.04 365.333C1214.94 399.129 1165.07 404.321 1116.87 409.343C1094.11 411.719 1070.55 414.157 1049.76 419.604C1046.29 420.482 1042.47 420.085 1039.39 418.529L1038.77 418.217C1035.64 416.641 1033.57 414.071 1033.01 411.16C1029.89 393.658 1022.28 375.514 1014.87 357.93C999.263 320.75 983.109 282.278 1009.2 248.482C1032.86 217.844 1075.94 209.826 1114.01 229.018Z" fill="#F60B0B" fill-opacity="0.4"/>
<path d="M1185.67 59.9641C1196.7 62.467 1203.93 70.9531 1207.59 76.5133C1214.28 73.3019 1225.9 69.0979 1236.93 71.6008C1255.95 75.9202 1265.5 89.6251 1260.18 104.934C1254.3 121.82 1234.01 128.984 1214.41 135.909C1205.15 139.181 1195.56 142.558 1187.6 146.932C1186.27 147.65 1184.59 147.862 1183.05 147.512L1182.74 147.442C1181.18 147.087 1179.91 146.207 1179.23 145.032C1175.24 137.945 1169.25 131.032 1163.44 124.337C1151.17 110.175 1138.46 95.521 1144.34 78.6347C1149.66 63.3258 1166.65 55.6447 1185.67 59.9641Z" fill="#F60B0B" fill-opacity="0.3"/>
<path d="M431.872 518.665C453.936 529.786 463.028 552.003 466.627 566.005C483.733 562.44 512.388 559.248 534.452 570.369C572.528 589.56 582.553 624.343 558.895 654.981C532.799 688.777 482.928 693.969 434.732 698.991C411.968 701.367 388.413 703.805 367.623 709.252C364.143 710.13 360.333 709.733 357.246 708.176L356.628 707.865C353.5 706.288 351.424 703.719 350.87 700.808C347.744 683.306 340.138 665.162 332.729 647.578C317.122 610.398 300.967 571.926 327.063 538.13C350.721 507.492 393.796 499.474 431.872 518.665Z" fill="#F60B0B" fill-opacity="0.05"/>
<path d="M503.531 349.612C514.556 352.115 521.79 360.601 525.449 366.162C532.136 362.95 543.762 358.746 554.787 361.249C573.812 365.568 583.359 379.273 578.034 394.582C572.161 411.469 551.871 418.632 532.264 425.557C523.004 428.829 513.418 432.206 505.461 436.581C504.124 437.298 502.452 437.51 500.91 437.16L500.601 437.09C499.038 436.735 497.768 435.855 497.09 434.68C493.097 427.593 487.113 420.681 481.297 413.986C469.024 399.823 456.323 385.169 462.196 368.283C467.521 352.974 484.506 345.293 503.531 349.612Z" fill="#F60B0B" fill-opacity="0.05"/>
<g clip-path="url(#clip0_1_12146)">
<path d="M848.266 606.709L858.838 606.708L863.867 565.933L848.264 565.934L848.266 606.709Z" fill="#9E616A"/>
<path d="M845.57 603.258L848.545 603.257L860.162 598.533L866.389 603.257C869.907 603.257 873.283 604.655 875.771 607.143C878.259 609.631 879.657 613.005 879.657 616.524V616.955L845.57 616.956L845.57 603.258Z" fill="#2F2E41"/>
<path d="M897.379 606.709L907.951 606.708L912.98 565.933L897.377 565.934L897.379 606.709Z" fill="#9E616A"/>
<path d="M894.683 603.258L897.658 603.257L909.275 598.533L915.502 603.257C919.02 603.257 922.396 604.655 924.884 607.143C927.372 609.631 928.77 613.005 928.77 616.524V616.955L894.683 616.956L894.683 603.258Z" fill="#2F2E41"/>
<path d="M905.829 383.565L822.771 385.732L824.215 426.178C824.215 426.178 822.771 437.011 825.66 439.9C828.549 442.789 829.993 442.789 828.549 447.845C827.104 452.901 834.736 461.158 833.809 462.085C832.882 463.012 830.715 468.068 830.715 468.068L837.938 509.236C837.938 509.236 842.994 580.739 844.438 582.183C845.883 583.628 847.327 582.183 845.883 585.795C844.438 589.406 842.994 587.961 844.438 589.406C845.718 590.785 846.923 592.232 848.049 593.739H865.511C865.511 593.739 866.828 586.517 866.828 585.795C866.828 585.072 868.272 580.739 868.272 580.017C868.272 579.294 866.996 578.018 866.996 578.018C866.555 576.549 866.256 575.042 866.106 573.516C866.106 572.072 861.772 516.459 861.772 516.459L870.439 444.234L891.384 515.014C891.384 515.014 891.384 577.128 892.829 578.572C894.273 580.017 894.273 579.294 893.551 582.183C892.829 585.072 889.94 584.35 892.107 586.517C894.273 588.684 894.996 585.072 894.273 588.684L893.551 592.295L915.219 592.605C915.219 592.605 918.108 586.517 916.663 584.35C915.219 582.183 915.305 582.775 917.068 579.229C918.83 575.683 919.552 574.961 918.83 574.239C918.108 573.516 918.108 569.675 918.108 569.675L914.496 500.569C914.496 500.569 913.774 427.622 913.774 425.455C913.72 424.34 913.925 423.228 914.374 422.206V419.265L911.607 408.844L905.829 383.565Z" fill="#2F2E41"/>
<path d="M999.826 226.041C999.427 227.15 998.789 228.159 997.958 228.995C997.127 229.832 996.123 230.476 995.016 230.882C993.909 231.288 992.727 231.447 991.552 231.347C990.377 231.247 989.239 230.89 988.216 230.302L952.163 260.507L950.203 245.743L985.467 218.748C986.568 217.096 988.237 215.906 990.157 215.403C992.078 214.899 994.116 215.118 995.886 216.017C997.656 216.916 999.034 218.433 999.76 220.28C1000.49 222.128 1000.51 224.177 999.826 226.041Z" fill="#9E616A"/>
<path d="M840.848 238.507C853.213 238.507 863.237 228.482 863.237 216.117C863.237 203.752 853.213 193.727 840.848 193.727C828.482 193.727 818.458 203.752 818.458 216.117C818.458 228.482 828.482 238.507 840.848 238.507Z" fill="#9E616A"/>
<path d="M858.999 193.835C856.915 188.866 847.982 185.917 833.846 186.361C819.711 186.805 817.235 203.662 817.235 203.662C809.449 210.919 822.019 233.576 824.2 230.452C826.381 227.328 830.042 230.281 830.042 230.281L826.553 210.654C830.238 212.072 834.201 213.024 837.667 211.372L831.924 208.302C836.684 208.894 841.443 209.486 846.202 210.078L840.314 205.548C840.457 205.501 840.6 205.452 840.742 205.404C843.104 206.422 845.633 206.997 848.202 207.098C851.204 207.076 854.395 205.669 855.653 202.943C855.987 202.194 856.168 201.386 856.185 200.567C860.325 201.911 862.498 206.76 862.498 206.76C861.712 202.357 860.541 198.032 858.999 193.835Z" fill="#2F2E41"/>
<path d="M858.77 239.508C853.77 239.508 850.55 240.198 842.77 241.508C828.41 243.928 837.01 257.573 837.01 257.573C837.01 257.573 837.66 257.243 835.9 257.573C834.14 257.903 828.14 263.093 828.14 263.093L817.41 272.623C801.24 285.313 804.86 305.113 804.86 305.113L828.44 328.843L818.11 376.453C818.11 376.453 822.5 383.523 820.23 386.693C817.96 389.863 840.23 388.953 840.23 388.953C855.6 395.803 909.75 390.013 909.75 390.013C909 388.053 901.75 372.863 901.75 372.863C904.9 367.423 901.9 359.563 901.9 359.563C901.9 359.563 898.77 322.383 896.77 317.243C894.77 312.103 901.89 284.253 906.57 284.553C911.25 284.853 941.48 269.433 941.48 269.433C941.48 269.433 940.72 268.223 950.7 264.143C956.432 261.89 961.688 258.576 966.19 254.373L970.29 246.183C968.32 246.943 961.67 234.403 961.67 234.403L958.77 235.508L957.09 235.023C957.09 235.023 943.98 238.753 941.3 241.473C938.62 244.193 937.72 243.433 935.3 244.043C932.88 244.653 932.58 246.353 931.82 246.163C931.06 245.973 929.71 248.273 928.65 247.973C927.59 247.673 925.32 248.883 923.81 249.183C922.3 249.483 911.57 254.023 911.57 254.023C904.93 250.663 886.93 252.023 886.93 252.023C886.93 252.023 881.04 248.553 879.37 252.023C878.92 253.009 878.199 253.846 877.29 254.436C876.381 255.026 875.323 255.344 874.24 255.353L867.06 252.283C866.643 253.806 858.811 237.93 858.77 239.508Z" fill="#8A83F2"/>
<path d="M824.491 425.841C823.706 424.961 823.125 423.919 822.787 422.79C822.449 421.66 822.363 420.47 822.534 419.304C822.706 418.137 823.131 417.022 823.78 416.038C824.429 415.054 825.286 414.223 826.291 413.606L816.118 373.618L830.026 378.947L837.755 416.708C838.68 418.465 838.929 420.499 838.454 422.427C837.98 424.354 836.815 426.041 835.18 427.167C833.544 428.292 831.553 428.779 829.583 428.535C827.613 428.291 825.801 427.332 824.491 425.841Z" fill="#9E616A"/>
<path d="M805.77 297.508L804.514 313.477C804.514 313.477 802.952 331.02 803.361 334.264C803.77 337.508 804.531 357.319 804.531 357.319L817.77 383.508L832.77 379.508L831.872 367.223L832.77 378.508L834.77 368.508L829.77 351.508L832.77 345.508L831.257 325.367L805.77 297.508Z" fill="#6C63FF"/>
<path d="M1160.91 260.188L1165.86 261.249C1165.9 259.177 1166.15 257.116 1166.63 255.1C1167.08 257.568 1168.03 259.919 1169.42 262.008L1197.82 268.074L1225.09 239.297C1225.13 224.908 1217.14 213.974 1202.82 213.974C1201.95 213.974 1201.06 214.015 1200.15 214.099C1192.41 212.803 1184.47 214.562 1178 219.003C1171.53 223.445 1167.04 230.224 1165.47 237.913C1155.31 247.911 1159 253.789 1160.91 260.188Z" fill="#2F2E41"/>
<path d="M1146.95 596.723H1136.64L1131.74 556.985H1146.95L1146.95 596.723Z" fill="#FFB6B6"/>
<path d="M1151.56 616.285H1144.25L1142.94 609.383L1139.6 616.285H1120.21C1119.28 616.285 1118.37 615.988 1117.63 615.438C1116.88 614.887 1116.32 614.111 1116.05 613.224C1115.77 612.337 1115.79 611.384 1116.09 610.506C1116.39 609.627 1116.97 608.868 1117.73 608.34L1133.22 597.647V590.669L1149.5 591.641L1151.56 616.285Z" fill="#2F2E41"/>
<path d="M1267.65 585.509L1258.68 590.593L1234.81 558.449L1248.04 550.946L1267.65 585.509Z" fill="#FFB6B6"/>
<path d="M1281.31 600.249L1274.95 603.857L1270.41 598.498L1270.91 606.15L1254.04 615.719C1253.24 616.177 1252.3 616.366 1251.38 616.256C1250.46 616.146 1249.59 615.745 1248.91 615.109C1248.24 614.474 1247.78 613.639 1247.61 612.725C1247.44 611.811 1247.57 610.867 1247.97 610.03L1256.16 593.089L1252.72 587.02L1267.36 579.828L1281.31 600.249Z" fill="#2F2E41"/>
<path d="M1108.87 267.15C1110.19 267.341 1111.45 267.819 1112.56 268.55C1113.68 269.282 1114.62 270.249 1115.32 271.384C1116.02 272.519 1116.47 273.793 1116.62 275.118C1116.78 276.443 1116.64 277.786 1116.22 279.052L1131.98 292.697L1126.03 304.3L1104.04 284.717C1101.96 283.871 1100.26 282.291 1099.27 280.277C1098.27 278.263 1098.05 275.954 1098.65 273.789C1099.24 271.623 1100.61 269.751 1102.5 268.528C1104.38 267.304 1106.65 266.814 1108.87 267.15Z" fill="#FFB6B6"/>
<path d="M1122.49 309.619L1111.95 292.844L1123.67 280.857L1132 290.989L1142.31 295.591L1156.47 304.216C1159.28 300.903 1180.98 275.985 1190.65 283.16C1191.82 283.952 1192.79 284.987 1193.52 286.192C1194.24 287.397 1194.7 288.745 1194.85 290.143C1195.53 296.814 1189.55 303.599 1189.33 303.85L1176.54 321.096C1176.15 322.18 1171.91 333.348 1165.31 336.352C1164.38 336.801 1163.36 337.05 1162.32 337.084C1161.28 337.118 1160.24 336.936 1159.28 336.549C1141.79 329.73 1130 322.038 1124.74 314.073C1123.81 312.687 1123.06 311.191 1122.49 309.619Z" fill="#2F2E41"/>
<path d="M1161.51 344.631C1161.51 344.631 1131.22 392.883 1136.71 398.371C1142.19 403.859 1150.73 405.301 1150.73 405.301L1169.63 380.809L1161.51 344.631Z" fill="#2F2E41"/>
<path d="M1188.29 278.73L1174.02 288.388C1167.38 292.877 1162.39 299.408 1159.8 306.99C1157.21 314.572 1157.16 322.791 1159.67 330.401L1163.69 342.618L1188.29 278.73Z" fill="#2F2E41"/>
<path d="M1213.54 410.445L1215.45 417.093L1221.96 497.264L1254.5 557.908L1238.97 569.001L1194.6 511.316L1177.05 454.038L1149.48 580.834L1128.78 579.355L1143.16 403.554L1170.45 354.071L1213.54 410.445Z" fill="#2F2E41"/>
<path d="M1190.72 281.159L1170.85 297.399C1166.49 300.963 1163.35 305.799 1161.87 311.232C1161.19 313.7 1160.87 316.25 1160.92 318.807L1161.51 354.071L1143.29 402.762C1143.29 402.762 1192.68 421.421 1199.27 404.957C1205.86 388.493 1190.72 281.159 1190.72 281.159Z" fill="#6C63FF"/>
<path d="M1163.05 388.493L1159.76 375.321L1160.56 342.548C1160.62 340.644 1170.77 311.006 1183.57 279.525L1194.57 268.52L1200.5 264.659L1213.56 276.714C1213.56 276.714 1211.9 309.711 1212.44 343.49C1212.59 352.836 1210.95 363.751 1210.25 372.028L1216.25 398.691V413.531L1215.86 413.61C1215.47 413.689 1209.45 413.504 1184.78 413.504C1164.33 413.504 1177.94 399.008 1163.05 388.493Z" fill="#2F2E41"/>
<path opacity="0.2" d="M1208.03 306.141L1211.03 324.864L1190.72 333.241L1208.03 306.141Z" fill="black"/>
<path d="M1187.57 261.147C1198.55 261.147 1207.45 252.245 1207.45 241.265C1207.45 230.284 1198.55 221.383 1187.57 221.383C1176.59 221.383 1167.69 230.284 1167.69 241.265C1167.69 252.245 1176.59 261.147 1187.57 261.147Z" fill="#FFB6B6"/>
<path opacity="0.2" d="M1220.89 342.144C1215.59 348.271 1208.42 352.466 1200.48 354.07C1192.55 355.674 1184.3 354.595 1177.05 351.004L1172.72 348.863L1220.89 342.144Z" fill="black"/>
<path d="M1151.7 337.567C1152.59 336.57 1153.68 335.781 1154.91 335.253C1156.13 334.725 1157.46 334.473 1158.79 334.513C1160.13 334.553 1161.43 334.885 1162.63 335.486C1163.82 336.087 1164.86 336.941 1165.69 337.989L1185.76 332.354L1192.16 343.717L1163.7 351.278C1161.85 352.547 1159.59 353.093 1157.37 352.812C1155.14 352.53 1153.09 351.442 1151.61 349.752C1150.13 348.061 1149.32 345.888 1149.34 343.642C1149.36 341.396 1150.2 339.235 1151.7 337.567Z" fill="#FFB6B6"/>
<path d="M1194.65 349.599L1174.84 349.154L1171.3 332.765L1184.34 331.4L1193.87 325.329L1208.87 318.27C1207.65 314.095 1198.81 282.264 1210.13 278.142C1211.43 277.609 1212.84 277.364 1214.24 277.424C1215.65 277.484 1217.02 277.847 1218.27 278.489C1224.22 281.594 1226.58 290.322 1226.67 290.65L1234.01 310.823C1234.7 311.751 1241.69 321.436 1240.55 328.6C1240.41 329.63 1240.06 330.619 1239.51 331.504C1238.97 332.39 1238.25 333.153 1237.39 333.745C1222.06 344.583 1209.15 350.179 1199.61 350.178C1197.94 350.19 1196.27 349.996 1194.65 349.599Z" fill="#2F2E41"/>
<path d="M1163.73 228.185C1165.32 230.256 1170.81 232.087 1177.32 233.564C1177.31 233.429 1177.31 233.294 1177.31 233.158C1177.34 231.087 1177.6 229.025 1178.08 227.01C1178.53 229.478 1179.48 231.829 1180.87 233.918C1180.97 234.074 1181.07 234.23 1181.19 234.386C1186.77 235.489 1192.68 236.342 1197.31 236.914C1194.13 248.379 1181.93 257.784 1183.25 264.755L1219.01 272.058C1218.79 269.162 1219.02 266.249 1219.69 263.423C1220.38 267.152 1222.18 270.583 1224.87 273.255L1227.91 273.879L1228.82 269.416C1236.66 250.574 1225.73 231.286 1207.81 221.308C1204.62 216.52 1199.66 213.191 1194.02 212.049L1189.55 211.134C1186.74 210.558 1183.84 210.542 1181.02 211.087C1178.19 211.632 1175.51 212.728 1173.11 214.311C1170.71 215.895 1168.65 217.935 1167.04 220.315C1165.43 222.696 1164.31 225.37 1163.73 228.185Z" fill="#2F2E41"/>
<path d="M725.09 592.089L724.608 581.257C719.587 578.573 713.985 577.155 708.291 577.126C716.128 583.534 715.149 595.885 720.462 604.501C722.14 607.176 724.398 609.439 727.069 611.122C729.74 612.805 732.756 613.866 735.893 614.225L742.451 618.241C743.351 613.224 743.152 608.072 741.869 603.139C740.586 598.206 738.249 593.61 735.019 589.668C733.185 587.474 731.082 585.52 728.759 583.851C727.189 587.993 725.09 592.089 725.09 592.089Z" fill="#F2F2F2"/>
<path d="M709.191 618.494H1391.57C1391.89 618.493 1392.19 618.367 1392.41 618.144C1392.63 617.92 1392.76 617.618 1392.76 617.303C1392.76 616.988 1392.63 616.685 1392.41 616.462C1392.19 616.239 1391.89 616.113 1391.57 616.112H709.191C708.875 616.113 708.574 616.239 708.351 616.462C708.128 616.685 708.003 616.988 708.003 617.303C708.003 617.618 708.128 617.92 708.351 618.144C708.574 618.367 708.875 618.493 709.191 618.494Z" fill="#CACACA"/>
<path d="M1079.38 180.054C1081.85 190.924 1083.03 203.247 1076.43 212.974C1073.63 217.147 1069.51 220.265 1064.73 221.836C1059.9 223.269 1054.8 223.582 1049.83 222.751C1038.57 221.192 1028.57 215.329 1017.5 213.053C1012.61 212.049 1007.43 211.717 1002.73 213.65C999.204 215.098 995.493 218.01 995.476 222.165C995.459 226.43 999.164 229.262 1002.85 230.573C1007.76 232.323 1012.87 231.646 1017.97 231.425C1023.47 231.188 1029.07 231.684 1033.63 235.048C1037.55 238.111 1040.56 242.191 1042.33 246.845C1044.62 252.411 1045.56 258.396 1047.02 264.203C1048.33 269.424 1050.19 274.494 1052.55 279.329C1057.2 288.805 1063.71 297.245 1071.7 304.143C1075.64 307.534 1080.42 310.987 1085.8 311.298C1089.95 311.538 1095 309.794 1096.6 305.591C1097.19 303.776 1097.13 301.811 1096.43 300.035C1095.73 298.258 1094.43 296.783 1092.76 295.862C1089.2 294.067 1085.33 296.627 1084.18 300.141C1083.88 300.951 1083.78 301.82 1083.88 302.679C1083.97 303.537 1084.28 304.36 1084.75 305.08C1085.83 306.688 1083.23 308.191 1082.16 306.594C1079.68 302.886 1080.98 297.899 1084.02 294.928C1085.51 293.413 1087.49 292.491 1089.61 292.333C1091.73 292.176 1093.83 292.793 1095.52 294.071C1097.28 295.411 1098.61 297.236 1099.35 299.321C1100.09 301.407 1100.2 303.662 1099.67 305.811C1098.39 310.427 1093.86 313.364 1089.33 314.091C1083.73 314.99 1078.35 312.791 1073.83 309.615C1069.3 306.344 1065.18 302.539 1061.57 298.282C1054.21 289.821 1048.68 279.931 1045.32 269.233C1042.02 258.652 1041.78 244.673 1031.97 237.527C1026.92 233.85 1020.73 234.258 1014.81 234.596C1009.58 234.894 1004.49 234.84 999.693 232.474C995.735 230.52 992.541 226.915 992.475 222.321C992.409 217.684 995.701 213.956 999.58 211.843C1009.83 206.262 1022.13 210.763 1032.2 214.492C1042.33 218.241 1053.89 222.642 1064.65 218.696C1069.61 216.767 1073.61 212.947 1075.76 208.074C1078.37 202.548 1078.74 196.279 1078.14 190.283C1077.78 187.108 1077.23 183.958 1076.49 180.852C1076.06 178.972 1078.95 178.169 1079.38 180.054Z" fill="#3F3D56"/>
<path d="M1060.99 149.562C1063.96 159.467 1068.43 168.856 1074.25 177.402C1075.69 179.502 1077.21 181.549 1078.79 183.542C1080.03 181.301 1081.52 179.213 1083.24 177.322C1089.29 170.672 1097.4 166.322 1105.27 161.962C1113.14 157.602 1121.13 152.922 1126.69 145.852C1129.19 142.669 1130.97 138.991 1131.93 135.062C1133.19 129.732 1132.71 124.172 1129.6 119.722C1125.08 113.252 1116.07 110.972 1108.41 112.842C1100.74 114.712 1094.32 120.042 1089.34 126.162C1090.97 118.642 1083.04 111.382 1075.37 112.042C1067.7 112.712 1061.55 119.412 1059.51 126.832C1057.46 134.242 1058.79 142.182 1060.99 149.562Z" fill="#F70B0B"/>
<g opacity="0.2">
<path d="M1074.25 177.402C1075.69 179.502 1077.21 181.548 1078.79 183.542C1080.03 181.3 1081.52 179.213 1083.24 177.322C1089.29 170.672 1097.4 166.322 1105.27 161.962C1113.14 157.602 1121.13 152.922 1126.69 145.852C1129.19 142.669 1130.97 138.99 1131.93 135.062C1114.24 137.514 1097.98 146.139 1086.03 159.412C1081.25 164.8 1077.28 170.861 1074.25 177.402Z" fill="#F60B0B"/>
</g>
</g>
<defs>
<clipPath id="clip0_1_12146">
<rect width="684.763" height="506.494" fill="white" transform="translate(708 112)"/>
</clipPath>
</defs>
</svg>
