<svg width="1377" height="774" viewBox="0 0 1377 774" fill="none" xmlns="http://www.w3.org/2000/svg">
<path d="M481.411 106.086C452.458 92.1687 415.397 96.909 393.307 101.878C388.226 83.8488 375.752 55.2988 346.799 41.3818C296.832 17.3644 241.31 28.7005 211.703 68.9068C179.045 113.256 201.27 162.73 222.743 210.543C232.881 233.129 243.399 256.488 247.985 279.062C248.802 282.82 251.631 286.128 255.683 288.076L256.493 288.465C260.598 290.439 265.493 290.843 269.971 289.63C296.769 282.141 327.142 278.437 356.6 274.884C418.855 267.315 483.275 259.489 515.933 215.14C545.54 174.934 531.378 130.103 481.411 106.086Z" fill="#F60B0B" fill-opacity="0.05"/>
<path d="M115.206 229.517C93.1421 240.638 84.0501 262.855 80.4511 276.856C63.3449 273.291 34.6901 270.099 12.6265 281.22C-25.4496 300.412 -35.4752 335.194 -11.8169 365.833C14.279 399.628 64.1504 404.821 112.346 409.843C135.11 412.218 158.665 414.656 179.455 420.104C182.935 420.981 186.745 420.584 189.832 419.028L190.45 418.717C193.578 417.14 195.654 414.57 196.209 411.659C199.335 394.157 206.94 376.013 214.349 358.43C229.957 321.249 246.111 282.777 220.015 248.982C196.357 218.343 153.282 210.325 115.206 229.517Z" fill="#F60B0B" fill-opacity="0.05"/>
<path d="M43.5467 60.4636C32.5223 62.9665 25.2877 71.4526 21.6293 77.0128C14.9421 73.8015 3.31592 69.5974 -7.70845 72.1003C-26.7337 76.4197 -36.2808 90.1246 -30.9561 105.434C-25.0828 122.32 -4.79308 129.484 14.8142 136.408C24.0746 139.68 33.6601 143.058 41.6172 147.432C42.9542 148.15 44.6257 148.361 46.1683 148.011L46.4768 147.941C48.04 147.586 49.3097 146.707 49.9884 145.531C53.9812 138.444 59.9655 131.532 65.7814 124.837C78.0543 110.674 90.7554 96.0205 84.8821 79.1342C79.5574 63.8253 62.5719 56.1442 43.5467 60.4636Z" fill="#F60B0B" fill-opacity="0.05"/>
<path d="M1291.41 553.242C1262.46 539.324 1225.4 544.065 1203.31 549.034C1198.23 531.005 1185.75 502.455 1156.8 488.538C1106.83 464.52 1051.31 475.856 1021.7 516.063C989.045 560.412 1011.27 609.885 1032.74 657.699C1042.88 680.284 1053.4 703.643 1057.99 726.218C1058.8 729.976 1061.63 733.284 1065.68 735.231L1066.49 735.621C1070.6 737.594 1075.49 737.999 1079.97 736.785C1106.77 729.296 1137.14 725.593 1166.6 722.039C1228.86 714.471 1293.28 706.645 1325.93 662.296C1355.54 622.089 1341.38 577.259 1291.41 553.242Z" fill="#F60B0B" fill-opacity="0.14"/>
<path d="M925.206 676.673C903.142 687.793 894.05 710.011 890.451 724.012C873.345 720.447 844.69 717.255 822.627 728.376C784.55 747.567 774.525 782.35 798.183 812.988C824.279 846.784 874.15 851.976 922.346 856.998C945.11 859.374 968.665 861.812 989.455 867.259C992.935 868.137 996.745 867.74 999.832 866.184L1000.45 865.872C1003.58 864.296 1005.65 861.726 1006.21 858.815C1009.33 841.313 1016.94 823.169 1024.35 805.585C1039.96 768.405 1056.11 729.933 1030.02 696.137C1006.36 665.499 963.282 657.481 925.206 676.673Z" fill="#F60B0B" fill-opacity="0.14"/>
<path d="M853.547 507.619C842.522 510.122 835.288 518.608 831.629 524.169C824.942 520.957 813.316 516.753 802.292 519.256C783.266 523.575 773.719 537.28 779.044 552.589C784.917 569.476 805.207 576.639 824.814 583.564C834.075 586.836 843.66 590.214 851.617 594.588C852.954 595.305 854.626 595.517 856.168 595.167L856.477 595.097C858.04 594.742 859.31 593.862 859.988 592.687C863.981 585.6 869.966 578.688 875.781 571.993C888.054 557.83 900.755 543.176 894.882 526.29C889.557 510.981 872.572 503.3 853.547 507.619Z" fill="#F60B0B" fill-opacity="0.14"/>
<path d="M431.872 511.665C453.936 522.786 463.028 545.003 466.627 559.005C483.733 555.44 512.388 552.248 534.452 563.369C572.528 582.56 582.553 617.343 558.895 647.981C532.799 681.777 482.928 686.969 434.732 691.991C411.968 694.367 388.413 696.805 367.623 702.252C364.143 703.13 360.333 702.733 357.246 701.176L356.628 700.865C353.5 699.288 351.424 696.719 350.87 693.808C347.744 676.306 340.138 658.162 332.729 640.578C317.122 603.398 300.967 564.926 327.063 531.13C350.721 500.492 393.796 492.474 431.872 511.665Z" fill="#F60B0B" fill-opacity="0.05"/>
<path d="M503.531 342.612C514.556 345.115 521.79 353.601 525.449 359.162C532.136 355.95 543.762 351.746 554.787 354.249C573.812 358.568 583.359 372.273 578.034 387.582C572.161 404.469 551.871 411.632 532.264 418.557C523.004 421.829 513.418 425.206 505.461 429.581C504.124 430.298 502.452 430.51 500.91 430.16L500.601 430.09C499.038 429.735 497.768 428.855 497.09 427.68C493.097 420.593 487.113 413.681 481.297 406.986C469.024 392.823 456.323 378.169 462.196 361.283C467.521 345.974 484.506 338.293 503.531 342.612Z" fill="#F60B0B" fill-opacity="0.05"/>
</svg>
